<?xml version="1.0" encoding="UTF-8"?>
<!DOCTYPE svg PUBLIC "-//W3C//DTD SVG 1.1//EN" "http://www.w3.org/Graphics/SVG/1.1/DTD/svg11.dtd">
<svg xmlns="http://www.w3.org/2000/svg" version="1.1" width="512px" height="512px" style="shape-rendering:geometricPrecision; text-rendering:geometricPrecision; image-rendering:optimizeQuality; fill-rule:evenodd; clip-rule:evenodd" xmlns:xlink="http://www.w3.org/1999/xlink">
<g><path style="opacity:0.965" fill="#070442" d="M 438.5,-0.5 C 441.5,-0.5 444.5,-0.5 447.5,-0.5C 449.596,1.43331 451.096,3.76664 452,6.5C 452.667,58.5 452.667,110.5 452,162.5C 451.199,167.318 448.366,169.985 443.5,170.5C 439.2,169.533 436.533,166.867 435.5,162.5C 435.5,114.833 435.5,67.1667 435.5,19.5C 434.209,19.2627 433.209,19.596 432.5,20.5C 353.646,46.5627 274.979,73.2294 196.5,100.5C 195.667,197.498 195.167,294.498 195,391.5C 193.636,395.187 190.97,397.187 187,397.5C 179.777,393.974 172.277,391.14 164.5,389C 139.387,382.557 116.387,386.89 95.5,402C 72.8533,421.875 69.6866,444.375 86,469.5C 107.284,492.037 133.117,499.87 163.5,493C 184.375,487.829 199.542,475.662 209,456.5C 209.511,454.122 210.178,451.788 211,449.5C 211.005,356.752 211.672,264.086 213,171.5C 214.214,169.951 215.714,168.785 217.5,168C 281.68,146.162 345.847,124.329 410,102.5C 413.52,102.921 416.187,104.587 418,107.5C 418.667,171.833 418.667,236.167 418,300.5C 416.367,303.148 414.033,304.481 411,304.5C 403.142,301.825 395.308,298.991 387.5,296C 356.745,288.922 330.578,296.755 309,319.5C 293.348,345.578 297.182,368.412 320.5,388C 350.926,406.941 381.593,407.275 412.5,389C 424.648,380.538 432.148,369.038 435,354.5C 435.333,299.833 435.667,245.167 436,190.5C 437.913,187.72 440.413,186.053 443.5,185.5C 448.446,185.946 451.279,188.613 452,193.5C 452.667,245.5 452.667,297.5 452,349.5C 449.168,378.668 434.334,399.168 407.5,411C 372.443,424.992 339.443,421.325 308.5,400C 279.641,374.38 274.808,344.88 294,311.5C 312.785,288.61 337.118,276.943 367,276.5C 379.1,277.044 390.934,279.044 402.5,282.5C 402.5,229.5 402.5,176.5 402.5,123.5C 344.574,143.031 286.574,162.364 228.5,181.5C 228.988,272.869 228.488,364.203 227,455.5C 219.901,478.267 205.401,494.434 183.5,504C 174.92,507.254 166.254,509.754 157.5,511.5C 148.5,511.5 139.5,511.5 130.5,511.5C 103.271,507.768 82.1044,494.434 67,471.5C 51.3655,434.733 60.1988,405.233 93.5,383C 120.389,368.035 148.389,365.535 177.5,375.5C 178.333,281.168 178.833,186.835 179,92.5C 179.667,91.1667 180.333,89.8333 181,88.5C 266.877,58.7086 352.71,29.0419 438.5,-0.5 Z"/></g>
<g><path style="opacity:1" fill="#3983ba" d="M 432.5,20.5 C 433.209,19.596 434.209,19.2627 435.5,19.5C 435.5,67.1667 435.5,114.833 435.5,162.5C 435.165,114.991 434.165,67.6579 432.5,20.5 Z"/></g>
<g><path style="opacity:1" fill="#49ace0" d="M 432.5,20.5 C 434.165,67.6579 435.165,114.991 435.5,162.5C 436.533,166.867 439.2,169.533 443.5,170.5C 443.5,175.5 443.5,180.5 443.5,185.5C 440.413,186.053 437.913,187.72 436,190.5C 435.667,245.167 435.333,299.833 435,354.5C 432.148,369.038 424.648,380.538 412.5,389C 381.593,407.275 350.926,406.941 320.5,388C 297.182,368.412 293.348,345.578 309,319.5C 330.578,296.755 356.745,288.922 387.5,296C 395.308,298.991 403.142,301.825 411,304.5C 414.033,304.481 416.367,303.148 418,300.5C 418.667,236.167 418.667,171.833 418,107.5C 416.187,104.587 413.52,102.921 410,102.5C 345.847,124.329 281.68,146.162 217.5,168C 215.714,168.785 214.214,169.951 213,171.5C 211.672,264.086 211.005,356.752 211,449.5C 210.178,451.788 209.511,454.122 209,456.5C 199.542,475.662 184.375,487.829 163.5,493C 133.117,499.87 107.284,492.037 86,469.5C 69.6866,444.375 72.8533,421.875 95.5,402C 116.387,386.89 139.387,382.557 164.5,389C 172.277,391.14 179.777,393.974 187,397.5C 190.97,397.187 193.636,395.187 195,391.5C 195.167,294.498 195.667,197.498 196.5,100.5C 274.979,73.2294 353.646,46.5627 432.5,20.5 Z"/></g>
</svg>
