<?xml version="1.0" encoding="UTF-8"?>
<!DOCTYPE svg PUBLIC "-//W3C//DTD SVG 1.1//EN" "http://www.w3.org/Graphics/SVG/1.1/DTD/svg11.dtd">
<svg xmlns="http://www.w3.org/2000/svg" version="1.1" width="149px" height="150px" style="shape-rendering:geometricPrecision; text-rendering:geometricPrecision; image-rendering:optimizeQuality; fill-rule:evenodd; clip-rule:evenodd" xmlns:xlink="http://www.w3.org/1999/xlink">
<g><path style="opacity:0.984" fill="#fe0200" d="M 108.5,103.5 C 85.5,104.833 62.5,104.833 39.5,103.5C 39.0451,82.1132 39.5451,60.7799 41,39.5C 49.3463,21.0763 63.513,13.9096 83.5,18C 94.988,21.1624 102.821,28.3291 107,39.5C 108.455,60.7799 108.955,82.1132 108.5,103.5 Z"/></g>
<g><path style="opacity:0.996" fill="#99947c" d="M 39.5,103.5 C 62.5,104.833 85.5,104.833 108.5,103.5C 110.167,103.5 111.833,103.5 113.5,103.5C 113.5,107.167 113.5,110.833 113.5,114.5C 106.5,114.5 99.5,114.5 92.5,114.5C 89.8333,113.167 87.1667,113.167 84.5,114.5C 77.8333,114.5 71.1667,114.5 64.5,114.5C 61.8333,113.167 59.1667,113.167 56.5,114.5C 49.1667,114.5 41.8333,114.5 34.5,114.5C 34.5,110.833 34.5,107.167 34.5,103.5C 36.1667,103.5 37.8333,103.5 39.5,103.5 Z"/></g>
<g><path style="opacity:0.939" fill="#9a9a99" d="M 64.5,114.5 C 64.5,120.167 64.5,125.833 64.5,131.5C 61.8333,131.5 59.1667,131.5 56.5,131.5C 56.5,125.833 56.5,120.167 56.5,114.5C 59.1667,113.167 61.8333,113.167 64.5,114.5 Z"/></g>
<g><path style="opacity:0.914" fill="#999999" d="M 92.5,114.5 C 92.6661,120.176 92.4994,125.843 92,131.5C 89.6667,132.833 87.3333,132.833 85,131.5C 84.5006,125.843 84.3339,120.176 84.5,114.5C 87.1667,113.167 89.8333,113.167 92.5,114.5 Z"/></g>
</svg>
