<?xml version="1.0" encoding="UTF-8"?>
<!DOCTYPE svg PUBLIC "-//W3C//DTD SVG 1.1//EN" "http://www.w3.org/Graphics/SVG/1.1/DTD/svg11.dtd">
<svg xmlns="http://www.w3.org/2000/svg" version="1.1" width="143px" height="144px" style="shape-rendering:geometricPrecision; text-rendering:geometricPrecision; image-rendering:optimizeQuality; fill-rule:evenodd; clip-rule:evenodd" xmlns:xlink="http://www.w3.org/1999/xlink">
<g><path style="opacity:0.894" fill="#000000" d="M 72.5,9.5 C 80.4948,13.3034 88.1615,17.8034 95.5,23C 81.1667,23.6667 66.8333,23.6667 52.5,23C 59.6173,19.0285 66.284,14.5285 72.5,9.5 Z"/></g>
<g><path style="opacity:0.814" fill="#121212" d="M 65.5,35.5 C 86.4182,32.6988 100.585,41.0321 108,60.5C 118.661,61.4959 121.828,66.8293 117.5,76.5C 114.714,77.9561 111.714,78.9561 108.5,79.5C 101.459,99.3614 87.4588,107.861 66.5,105C 52.7405,101.573 43.9072,93.0731 40,79.5C 30.3819,79.2251 27.0486,74.5585 30,65.5C 32.6973,62.1295 36.1973,60.7962 40.5,61.5C 44.0926,48.2413 52.426,39.5746 65.5,35.5 Z"/></g>
<g><path style="opacity:1" fill="#f7f7f7" d="M 88.5,61.5 C 84.5207,54.6793 78.5207,51.8459 70.5,53C 67.9746,53.4238 65.9746,54.5905 64.5,56.5C 62.1667,56.8333 60.8333,58.1667 60.5,60.5C 58.8958,61.287 58.2291,62.6203 58.5,64.5C 53.1667,64.1667 47.8333,63.8333 42.5,63.5C 46.8086,47.418 57.3086,38.7514 74,37.5C 90.2941,38.6357 100.794,46.969 105.5,62.5C 100.989,63.057 96.4889,63.7236 92,64.5C 90.4009,63.9293 89.2342,62.9293 88.5,61.5 Z"/></g>
<g><path style="opacity:1" fill="#131313" d="M 70.5,42.5 C 74.0543,42.1497 77.3876,42.8163 80.5,44.5C 81.4287,45.6888 81.762,47.0222 81.5,48.5C 76.8333,48.5 72.1667,48.5 67.5,48.5C 67.0283,45.6421 68.0283,43.6421 70.5,42.5 Z"/></g>
<g><path style="opacity:1" fill="#f8f8f8" d="M 88.5,61.5 C 88.5,62.8333 88.5,64.1667 88.5,65.5C 86.2655,65.3801 84.0989,65.7135 82,66.5C 79.8329,64.4896 77.3329,63.1563 74.5,62.5C 71.1004,63.0351 68.1004,64.3684 65.5,66.5C 63.5466,65.8444 61.5466,65.5111 59.5,65.5C 59.6287,63.7839 59.962,62.1172 60.5,60.5C 62.1667,59.5 63.5,58.1667 64.5,56.5C 73.7425,52.5756 81.7425,54.2422 88.5,61.5 Z"/></g>
<g><path style="opacity:1" fill="#4d4d4d" d="M 88.5,61.5 C 81.7425,54.2422 73.7425,52.5756 64.5,56.5C 65.9746,54.5905 67.9746,53.4238 70.5,53C 78.5207,51.8459 84.5207,54.6793 88.5,61.5 Z"/></g>
<g><path style="opacity:1" fill="#3b3b3b" d="M 64.5,56.5 C 63.5,58.1667 62.1667,59.5 60.5,60.5C 60.8333,58.1667 62.1667,56.8333 64.5,56.5 Z"/></g>
<g><path style="opacity:1" fill="#f7f7f7" d="M 66.5,70.5 C 55.1667,70.5 43.8333,70.5 32.5,70.5C 32.8086,66.2076 35.1419,64.5409 39.5,65.5C 48.484,66.4432 57.484,67.1098 66.5,67.5C 66.5,68.5 66.5,69.5 66.5,70.5 Z"/></g>
<g><path style="opacity:1" fill="#f0f0ef" d="M 71.5,65.5 C 78.8421,65.2066 80.8421,68.2066 77.5,74.5C 69.4148,75.8601 67.4148,72.8601 71.5,65.5 Z"/></g>
<g><path style="opacity:1" fill="#a7a7a7" d="M 116.5,70.5 C 104.833,70.5 93.1667,70.5 81.5,70.5C 81.8807,69.0689 82.8807,68.2355 84.5,68C 94.0942,66.0917 103.761,65.425 113.5,66C 115.376,66.9184 116.376,68.4184 116.5,70.5 Z"/></g>
<g><path style="opacity:1" fill="#c5c5c5" d="M 32.5,70.5 C 43.8333,70.5 55.1667,70.5 66.5,70.5C 65.6661,71.7479 64.3328,72.4146 62.5,72.5C 53.2205,74.2318 43.8872,75.0651 34.5,75C 32.9632,73.8904 32.2965,72.3904 32.5,70.5 Z"/></g>
<g><path style="opacity:1" fill="#eeeeee" d="M 81.5,70.5 C 93.1667,70.5 104.833,70.5 116.5,70.5C 116.141,72.371 115.141,73.871 113.5,75C 103.095,75.5931 92.7615,74.9265 82.5,73C 81.7476,72.3292 81.4142,71.4959 81.5,70.5 Z"/></g>
<g><path style="opacity:1" fill="#f7f7f7" d="M 88.5,75.5 C 88.1089,79.2207 86.4422,82.2207 83.5,84.5C 87.2079,83.1131 89.5412,80.4465 90.5,76.5C 95.482,77.0534 100.482,77.3867 105.5,77.5C 101.276,94.0559 90.6089,102.389 73.5,102.5C 56.9233,101.924 46.59,93.5912 42.5,77.5C 46.524,77.4971 50.524,77.1638 54.5,76.5C 56.4547,76.7245 58.1213,77.3911 59.5,78.5C 59.5,77.5 59.5,76.5 59.5,75.5C 61.5466,75.4889 63.5466,75.1556 65.5,74.5C 67.9879,76.4683 70.8213,77.8016 74,78.5C 77.1787,77.8016 80.0121,76.4683 82.5,74.5C 84.4534,75.1556 86.4534,75.4889 88.5,75.5 Z"/></g>
<g><path style="opacity:1" fill="#4e4e4e" d="M 88.5,75.5 C 89.1667,75.8333 89.8333,76.1667 90.5,76.5C 89.5412,80.4465 87.2079,83.1131 83.5,84.5C 86.4422,82.2207 88.1089,79.2207 88.5,75.5 Z"/></g>
<g><path style="opacity:1" fill="#373737" d="M 59.5,78.5 C 61.0847,79.0024 61.5847,80.0024 61,81.5C 59.9614,80.7562 59.4614,79.7562 59.5,78.5 Z"/></g>
<g><path style="opacity:1" fill="#3a3a3a" d="M 66.5,85.5 C 65.2438,85.5386 64.2438,85.0386 63.5,84C 64.9976,83.4153 65.9976,83.9153 66.5,85.5 Z"/></g>
<g><path style="opacity:1" fill="#424242" d="M 83.5,84.5 C 82.713,86.1042 81.3797,86.7709 79.5,86.5C 80.5137,85.3263 81.847,84.6596 83.5,84.5 Z"/></g>
<g><path style="opacity:1" fill="#3c3c3c" d="M 66.5,85.5 C 70.7853,86.2949 75.1186,86.6282 79.5,86.5C 77.866,87.1611 76.0326,87.4944 74,87.5C 71.1345,87.7001 68.6345,87.0334 66.5,85.5 Z"/></g>
<g><path style="opacity:1" fill="#111111" d="M 67.5,92.5 C 72.1667,92.5 76.8333,92.5 81.5,92.5C 81.762,93.9778 81.4287,95.3112 80.5,96.5C 76.5469,98.7745 72.5469,98.9412 68.5,97C 67.6198,95.6439 67.2865,94.1439 67.5,92.5 Z"/></g>
<g><path style="opacity:0.676" fill="#000000" d="M 103.5,96.5 C 105.5,96.5 107.5,96.5 109.5,96.5C 111.167,108.5 112.833,108.5 114.5,96.5C 116.5,96.5 118.5,96.5 120.5,96.5C 120.5,102.5 120.5,108.5 120.5,114.5C 118.833,114.5 117.167,114.5 115.5,114.5C 115.662,112.473 115.495,110.473 115,108.5C 113,112.5 111,112.5 109,108.5C 108.505,110.473 108.338,112.473 108.5,114.5C 106.833,114.5 105.167,114.5 103.5,114.5C 103.5,108.5 103.5,102.5 103.5,96.5 Z"/></g>
<g><path style="opacity:0.685" fill="#000000" d="M 123.5,96.5 C 125.167,96.5 126.833,96.5 128.5,96.5C 128.5,102.5 128.5,108.5 128.5,114.5C 126.833,114.5 125.167,114.5 123.5,114.5C 123.935,109.331 123.268,104.331 121.5,99.5C 121.942,98.2613 122.609,97.2613 123.5,96.5 Z"/></g>
</svg>
