<?xml version="1.0" encoding="UTF-8"?>
<!DOCTYPE svg PUBLIC "-//W3C//DTD SVG 1.1//EN" "http://www.w3.org/Graphics/SVG/1.1/DTD/svg11.dtd">
<svg xmlns="http://www.w3.org/2000/svg" version="1.1" width="149px" height="150px" style="shape-rendering:geometricPrecision; text-rendering:geometricPrecision; image-rendering:optimizeQuality; fill-rule:evenodd; clip-rule:evenodd" xmlns:xlink="http://www.w3.org/1999/xlink">
<g><path style="opacity:0.98" fill="#41606f" d="M 121.5,64.5 C 118.14,64.6159 114.807,64.9492 111.5,65.5C 112.263,64.7321 113.263,64.2321 114.5,64C 111.568,60.558 108.235,57.7246 104.5,55.5C 94.7164,42.6204 81.7164,37.4538 65.5,40C 52.7938,43.8727 44.1271,52.0393 39.5,64.5C 35.1818,65.5404 30.8485,65.5404 26.5,64.5C 33.2837,40.552 49.1171,27.8853 74,26.5C 98.8829,27.8853 114.716,40.552 121.5,64.5 Z"/></g>
<g><path style="opacity:0.996" fill="#73a0a1" d="M 104.5,55.5 C 106.093,58.3561 107.427,61.3561 108.5,64.5C 109.325,65.3857 110.325,65.719 111.5,65.5C 114.807,64.9492 118.14,64.6159 121.5,64.5C 130.818,66.1268 133.651,71.4602 130,80.5C 127.761,83.962 124.594,85.2954 120.5,84.5C 116.067,84.1815 111.734,84.1815 107.5,84.5C 99.4079,101.884 85.7413,109.384 66.5,107C 62.6032,105.981 58.9365,104.481 55.5,102.5C 48.3833,98.3733 43.3833,92.3733 40.5,84.5C 36.1939,83.5766 31.8606,83.5766 27.5,84.5C 17.4809,83.4818 14.3142,78.1484 18,68.5C 19.894,65.1558 22.7273,63.8224 26.5,64.5C 30.8485,65.5404 35.1818,65.5404 39.5,64.5C 44.1271,52.0393 52.7938,43.8727 65.5,40C 81.7164,37.4538 94.7164,42.6204 104.5,55.5 Z"/></g>
<g><path style="opacity:1" fill="#154358" d="M 82.5,69.5 C 78.8405,64.6077 74.1739,63.441 68.5,66C 67.2899,67.0391 66.2899,68.2058 65.5,69.5C 62.8344,69.067 60.1677,68.567 57.5,68C 59.9569,62.1132 64.2903,58.6132 70.5,57.5C 70.5,56.5 70.5,55.5 70.5,54.5C 72.8333,54.5 75.1667,54.5 77.5,54.5C 77.281,55.675 77.6143,56.675 78.5,57.5C 84.2071,59.0399 88.2071,62.5399 90.5,68C 87.8323,68.567 85.1656,69.067 82.5,69.5 Z"/></g>
<g><path style="opacity:1" fill="#23424c" d="M 104.5,55.5 C 108.235,57.7246 111.568,60.558 114.5,64C 113.263,64.2321 112.263,64.7321 111.5,65.5C 110.325,65.719 109.325,65.3857 108.5,64.5C 107.427,61.3561 106.093,58.3561 104.5,55.5 Z"/></g>
<g><path style="opacity:1" fill="#acc5cc" d="M 82.5,69.5 C 83.3007,71.0418 83.634,72.7085 83.5,74.5C 85.1667,74.5 86.8333,74.5 88.5,74.5C 88.5,75.5 88.5,76.5 88.5,77.5C 86.8561,77.7135 85.3561,77.3802 84,76.5C 82.9614,77.2438 82.4614,78.2438 82.5,79.5C 78.8405,84.3923 74.1739,85.559 68.5,83C 67.2899,81.9609 66.2899,80.7942 65.5,79.5C 65.5852,78.0047 64.9185,77.0047 63.5,76.5C 62.2638,77.2458 60.9305,77.5792 59.5,77.5C 59.5,75.5 59.5,73.5 59.5,71.5C 62.491,73.3865 64.491,72.7198 65.5,69.5C 66.2899,68.2058 67.2899,67.0391 68.5,66C 74.1739,63.441 78.8405,64.6077 82.5,69.5 Z"/></g>
<g><path style="opacity:1" fill="#d4ecef" d="M 58.5,71.5 C 58.5,72.5 58.5,73.5 58.5,74.5C 45.8333,74.5 33.1667,74.5 20.5,74.5C 20.393,72.0968 21.393,70.2635 23.5,69C 35.254,68.7202 46.9207,69.5535 58.5,71.5 Z"/></g>
<g><path style="opacity:1" fill="#f66d4d" d="M 70.5,68.5 C 76.0284,67.0693 79.3617,69.0693 80.5,74.5C 79.3493,80.0913 76.016,81.9246 70.5,80C 66.5808,76.1727 66.5808,72.3393 70.5,68.5 Z"/></g>
<g><path style="opacity:1" fill="#b4d1d8" d="M 127.5,74.5 C 114.833,74.5 102.167,74.5 89.5,74.5C 89.5,75.5 89.5,76.5 89.5,77.5C 89.1667,77.5 88.8333,77.5 88.5,77.5C 88.5,76.5 88.5,75.5 88.5,74.5C 88.3601,72.8762 89.0267,71.7096 90.5,71C 101.762,69.0112 113.095,68.3445 124.5,69C 126.607,70.2635 127.607,72.0968 127.5,74.5 Z"/></g>
<g><path style="opacity:1" fill="#b4d1d9" d="M 58.5,71.5 C 58.8333,71.5 59.1667,71.5 59.5,71.5C 59.5,73.5 59.5,75.5 59.5,77.5C 47.5705,79.3876 35.5705,80.2209 23.5,80C 21.393,78.7365 20.393,76.9032 20.5,74.5C 33.1667,74.5 45.8333,74.5 58.5,74.5C 58.5,73.5 58.5,72.5 58.5,71.5 Z"/></g>
<g><path style="opacity:1" fill="#d4ecee" d="M 127.5,74.5 C 127.607,76.9032 126.607,78.7365 124.5,80C 112.664,80.8617 100.997,80.0284 89.5,77.5C 89.5,76.5 89.5,75.5 89.5,74.5C 102.167,74.5 114.833,74.5 127.5,74.5 Z"/></g>
<g><path style="opacity:1" fill="#154358" d="M 65.5,79.5 C 66.2899,80.7942 67.2899,81.9609 68.5,83C 74.1739,85.559 78.8405,84.3923 82.5,79.5C 84.6957,79.5652 86.6957,80.2319 88.5,81.5C 86.1585,85.3439 82.8251,87.8439 78.5,89C 77.6634,90.0113 77.33,91.1779 77.5,92.5C 75.1667,92.5 72.8333,92.5 70.5,92.5C 69.7106,89.5657 67.7106,87.7324 64.5,87C 62.6487,85.3163 60.982,83.4829 59.5,81.5C 61.1727,79.9137 63.1727,79.2471 65.5,79.5 Z"/></g>
<g><path style="opacity:0.977" fill="#41606f" d="M 55.5,102.5 C 55.0618,102.435 54.7284,102.601 54.5,103C 60.6265,108.056 66.2932,113.556 71.5,119.5C 48.7696,117.819 34.103,106.153 27.5,84.5C 31.8606,83.5766 36.1939,83.5766 40.5,84.5C 43.3833,92.3733 48.3833,98.3733 55.5,102.5 Z"/></g>
<g><path style="opacity:1" fill="#1f3e49" d="M 120.5,84.5 C 112.874,108.099 96.5407,119.765 71.5,119.5C 66.2932,113.556 60.6265,108.056 54.5,103C 54.7284,102.601 55.0618,102.435 55.5,102.5C 58.9365,104.481 62.6032,105.981 66.5,107C 85.7413,109.384 99.4079,101.884 107.5,84.5C 111.734,84.1815 116.067,84.1815 120.5,84.5 Z"/></g>
</svg>
