<?xml version="1.0" encoding="UTF-8"?>
<!DOCTYPE svg PUBLIC "-//W3C//DTD SVG 1.1//EN" "http://www.w3.org/Graphics/SVG/1.1/DTD/svg11.dtd">
<svg xmlns="http://www.w3.org/2000/svg" version="1.1" width="149px" height="150px" style="shape-rendering:geometricPrecision; text-rendering:geometricPrecision; image-rendering:optimizeQuality; fill-rule:evenodd; clip-rule:evenodd" xmlns:xlink="http://www.w3.org/1999/xlink">
<g><path style="opacity:0.996" fill="#73a0a1" d="M 84.5,28.5 C 83.6778,31.6649 83.0111,34.9982 82.5,38.5C 82.8333,39.1667 83.1667,39.8333 83.5,40.5C 92.1566,43.3153 99.1566,48.3153 104.5,55.5C 112.788,72.2671 110.122,87.1005 96.5,100C 92.3202,102.84 87.8202,105.007 83,106.5C 82.7206,110.7 83.2206,114.7 84.5,118.5C 84.5208,129.654 79.1874,133.82 68.5,131C 64.2051,127.907 62.5384,123.74 63.5,118.5C 64.271,115.154 64.9376,111.654 65.5,108C 58.4542,104.385 51.9542,99.8852 46,94.5C 33.5067,73.6285 37.34,56.4619 57.5,43C 60.0964,41.8644 62.763,41.031 65.5,40.5C 65.0443,36.3357 64.3777,32.3357 63.5,28.5C 64.4608,18.376 69.7941,14.876 79.5,18C 83.1917,20.5497 84.8584,24.0497 84.5,28.5 Z"/></g>
<g><path style="opacity:1" fill="#d4ecef" d="M 76.5,21.5 C 79.5076,22.8482 80.841,25.1815 80.5,28.5C 79.3537,39.0048 78.0204,49.3382 76.5,59.5C 75.1702,53.537 74.5036,47.2037 74.5,40.5C 74.5036,33.7963 75.1702,27.463 76.5,21.5 Z"/></g>
<g><path style="opacity:0.981" fill="#405f6e" d="M 63.5,28.5 C 64.3777,32.3357 65.0443,36.3357 65.5,40.5C 62.763,41.031 60.0964,41.8644 57.5,43C 37.34,56.4619 33.5067,73.6285 46,94.5C 51.9542,99.8852 58.4542,104.385 65.5,108C 64.9376,111.654 64.271,115.154 63.5,118.5C 40.1589,112.35 27.4923,97.1834 25.5,73C 27.6459,49.0308 40.3126,34.1975 63.5,28.5 Z"/></g>
<g><path style="opacity:0.975" fill="#41606f" d="M 84.5,28.5 C 106.749,33.7494 119.082,47.7494 121.5,70.5C 116.11,65.1057 110.444,60.1057 104.5,55.5C 99.1566,48.3153 92.1566,43.3153 83.5,40.5C 83.1667,39.8333 82.8333,39.1667 82.5,38.5C 83.0111,34.9982 83.6778,31.6649 84.5,28.5 Z"/></g>
<g><path style="opacity:1" fill="#1f3f49" d="M 104.5,55.5 C 110.444,60.1057 116.11,65.1057 121.5,70.5C 122.584,88.8287 115.25,102.995 99.5,113C 94.81,115.729 89.81,117.563 84.5,118.5C 83.2206,114.7 82.7206,110.7 83,106.5C 87.8202,105.007 92.3202,102.84 96.5,100C 110.122,87.1005 112.788,72.2671 104.5,55.5 Z"/></g>
<g><path style="opacity:1" fill="#17445a" d="M 69.5,65.5 C 64.3729,69.4076 63.2062,74.4076 66,80.5C 67.1451,81.6364 68.3117,82.6364 69.5,83.5C 69.3139,87.6069 67.6472,88.7736 64.5,87C 56.6323,79.7881 55.4657,71.6214 61,62.5C 63.1851,60.4598 65.6851,59.1264 68.5,58.5C 68.298,60.9496 68.6314,63.283 69.5,65.5 Z"/></g>
<g><path style="opacity:1" fill="#18445a" d="M 78.5,83.5 C 83.6271,79.5924 84.7938,74.5924 82,68.5C 80.8549,67.3636 79.6883,66.3636 78.5,65.5C 79.3686,63.283 79.702,60.9496 79.5,58.5C 88.9742,61.7729 92.4742,68.4396 90,78.5C 88.0284,82.9715 84.8617,86.3049 80.5,88.5C 79.6781,86.8614 79.0114,85.1947 78.5,83.5 Z"/></g>
<g><path style="opacity:1" fill="#b1cdd4" d="M 76.5,21.5 C 75.1702,27.463 74.5036,33.7963 74.5,40.5C 74.5036,47.2037 75.1702,53.537 76.5,59.5C 76.0254,62.0821 76.6921,64.0821 78.5,65.5C 79.6883,66.3636 80.8549,67.3636 82,68.5C 84.7938,74.5924 83.6271,79.5924 78.5,83.5C 77.3065,83.9704 76.6399,84.9704 76.5,86.5C 78.4955,99.1223 79.6622,111.789 80,124.5C 77.7004,127.762 74.8671,128.762 71.5,127.5C 72.8298,121.537 73.4964,115.204 73.5,108.5C 73.4964,101.796 72.8298,95.463 71.5,89.5C 71.9746,86.9179 71.3079,84.9179 69.5,83.5C 68.3117,82.6364 67.1451,81.6364 66,80.5C 63.2062,74.4076 64.3729,69.4076 69.5,65.5C 72.6973,64.8876 74.0306,62.8876 73.5,59.5C 72.5,59.5 71.5,59.5 70.5,59.5C 68.9321,47.5428 68.4321,35.5428 69,23.5C 71.0696,20.5924 73.5696,19.9257 76.5,21.5 Z"/></g>
<g><path style="opacity:1" fill="#f76b4b" d="M 70.5,68.5 C 79.3023,67.7718 81.969,71.2718 78.5,79C 72.4894,82.1829 68.8227,80.5162 67.5,74C 67.8627,71.8077 68.8627,69.9744 70.5,68.5 Z"/></g>
<g><path style="opacity:1" fill="#d3ebee" d="M 71.5,89.5 C 72.8298,95.463 73.4964,101.796 73.5,108.5C 73.4964,115.204 72.8298,121.537 71.5,127.5C 68.0576,125.566 66.7243,122.566 67.5,118.5C 68.6033,108.659 69.9366,98.9923 71.5,89.5 Z"/></g>
</svg>
