<?xml version="1.0" encoding="UTF-8"?>
<!DOCTYPE svg PUBLIC "-//W3C//DTD SVG 1.1//EN" "http://www.w3.org/Graphics/SVG/1.1/DTD/svg11.dtd">
<svg xmlns="http://www.w3.org/2000/svg" version="1.1" width="149px" height="150px" style="shape-rendering:geometricPrecision; text-rendering:geometricPrecision; image-rendering:optimizeQuality; fill-rule:evenodd; clip-rule:evenodd" xmlns:xlink="http://www.w3.org/1999/xlink">
<g><path style="opacity:0.467" fill="#3c3c3c" d="M 70.5,44.5 C 72.8096,47.1019 74.6429,50.1019 76,53.5C 82.7638,69.5268 89.9305,85.3601 97.5,101C 87.5,101.333 77.5,101.667 67.5,102C 62.5,104.167 57.5,106.333 52.5,108.5C 46.8324,97.9968 41.8324,87.1634 37.5,76C 42.2817,73.1066 47.2817,70.4399 52.5,68C 58.3325,60.0057 64.3325,52.1723 70.5,44.5 Z"/></g>
<g><path style="opacity:1" fill="#6c6c6c" d="M 53.5,72.5 C 55.9569,75.7512 57.6236,79.4179 58.5,83.5C 56.0431,80.2488 54.3764,76.5821 53.5,72.5 Z"/></g>
<g><path style="opacity:1" fill="#fafafa" d="M 53.5,72.5 C 54.3764,76.5821 56.0431,80.2488 58.5,83.5C 59.3764,87.5821 61.0431,91.2488 63.5,94.5C 63.5861,96.677 64.2528,98.677 65.5,100.5C 61.7789,103.027 57.7789,105.027 53.5,106.5C 48.063,97.2903 43.3963,87.6236 39.5,77.5C 42.8036,74.1743 46.8036,71.841 51.5,70.5C 52.1818,71.2427 52.8485,71.9094 53.5,72.5 Z"/></g>
<g><path style="opacity:1" fill="#fbfbfb" d="M 63.5,94.5 C 62.6236,90.4179 60.9569,86.7512 58.5,83.5C 57.6236,79.4179 55.9569,75.7512 53.5,72.5C 53.2639,69.7743 54.0972,67.441 56,65.5C 60.6233,59.2079 65.6233,53.2079 71,47.5C 79.7077,64.7941 87.5411,82.4607 94.5,100.5C 85.1429,100.832 75.8096,100.498 66.5,99.5C 65.7255,97.6036 64.7255,95.937 63.5,94.5 Z"/></g>
<g><path style="opacity:1" fill="#6d6d6d" d="M 58.5,83.5 C 60.9569,86.7512 62.6236,90.4179 63.5,94.5C 61.0431,91.2488 59.3764,87.5821 58.5,83.5 Z"/></g>
</svg>
