<?xml version="1.0" encoding="UTF-8"?>
<!DOCTYPE svg PUBLIC "-//W3C//DTD SVG 1.1//EN" "http://www.w3.org/Graphics/SVG/1.1/DTD/svg11.dtd">
<svg xmlns="http://www.w3.org/2000/svg" version="1.1" width="149px" height="150px" style="shape-rendering:geometricPrecision; text-rendering:geometricPrecision; image-rendering:optimizeQuality; fill-rule:evenodd; clip-rule:evenodd" xmlns:xlink="http://www.w3.org/1999/xlink">
<g><path style="opacity:0.86" fill="#fdfdfd" d="M 117.5,7.5 C 119.042,8.30071 120.708,8.63404 122.5,8.5C 122.667,20.1714 122.5,31.8381 122,43.5C 118.465,49.6455 113.632,50.9788 107.5,47.5C 104.884,43.8031 105.217,40.3031 108.5,37C 111.536,34.9937 114.869,34.1604 118.5,34.5C 118.937,29.6386 118.437,24.9719 117,20.5C 111.138,22.4514 105.471,24.7848 100,27.5C 99.6667,34.8333 99.3333,42.1667 99,49.5C 98.6905,50.7659 98.1905,51.9326 97.5,53C 93.6251,54.5204 89.6251,54.8538 85.5,54C 81.6294,44.3558 84.9627,39.8558 95.5,40.5C 95.0619,32.0567 95.5619,23.7233 97,15.5C 103.73,12.317 110.563,9.65038 117.5,7.5 Z"/></g>
<g><path style="opacity:0.484" fill="#3d3d3d" d="M 70.5,44.5 C 72.8096,47.1019 74.6429,50.1019 76,53.5C 82.7638,69.5268 89.9305,85.3601 97.5,101C 87.5,101.333 77.5,101.667 67.5,102C 62.5,104.167 57.5,106.333 52.5,108.5C 46.8324,97.9968 41.8324,87.1634 37.5,76C 42.2817,73.1066 47.2817,70.4399 52.5,68C 58.3325,60.0057 64.3325,52.1723 70.5,44.5 Z"/></g>
<g><path style="opacity:1" fill="#fbfbfb" d="M 63.5,94.5 C 62.6236,90.4179 60.9569,86.7512 58.5,83.5C 57.6236,79.4179 55.9569,75.7512 53.5,72.5C 53.372,70.3453 53.872,68.3453 55,66.5C 60.0956,59.9814 65.429,53.648 71,47.5C 79.7077,64.7941 87.5411,82.4607 94.5,100.5C 85.1429,100.832 75.8096,100.498 66.5,99.5C 65.7255,97.6036 64.7255,95.937 63.5,94.5 Z"/></g>
<g><path style="opacity:1" fill="#fafafa" d="M 53.5,72.5 C 54.3764,76.5821 56.0431,80.2488 58.5,83.5C 59.3764,87.5821 61.0431,91.2488 63.5,94.5C 63.5861,96.677 64.2528,98.677 65.5,100.5C 61.7789,103.027 57.7789,105.027 53.5,106.5C 48.063,97.2903 43.3963,87.6236 39.5,77.5C 42.8036,74.1743 46.8036,71.841 51.5,70.5C 52.1818,71.2427 52.8485,71.9094 53.5,72.5 Z"/></g>
<g><path style="opacity:1" fill="#6c6c6c" d="M 53.5,72.5 C 55.9569,75.7512 57.6236,79.4179 58.5,83.5C 56.0431,80.2488 54.3764,76.5821 53.5,72.5 Z"/></g>
<g><path style="opacity:1" fill="#6d6d6d" d="M 58.5,83.5 C 60.9569,86.7512 62.6236,90.4179 63.5,94.5C 61.0431,91.2488 59.3764,87.5821 58.5,83.5 Z"/></g>
</svg>
