<?xml version="1.0" encoding="UTF-8"?>
<!DOCTYPE svg PUBLIC "-//W3C//DTD SVG 1.1//EN" "http://www.w3.org/Graphics/SVG/1.1/DTD/svg11.dtd">
<svg xmlns="http://www.w3.org/2000/svg" version="1.1" width="149px" height="150px" style="shape-rendering:geometricPrecision; text-rendering:geometricPrecision; image-rendering:optimizeQuality; fill-rule:evenodd; clip-rule:evenodd" xmlns:xlink="http://www.w3.org/1999/xlink">
<g><path style="opacity:0.939" fill="#3d3d3d" d="M 96.5,44.5 C 93.7531,44.8134 91.0865,44.48 88.5,43.5C 86.4509,40.4503 83.7843,38.117 80.5,36.5C 79.5078,32.2172 79.1744,27.8839 79.5,23.5C 81.4147,23.7845 83.0813,23.4511 84.5,22.5C 86.4411,20.9894 86.9411,18.9894 86,16.5C 83.9836,14.3918 81.8169,14.0584 79.5,15.5C 77.9847,10.503 74.6514,8.66963 69.5,10C 67.9512,11.214 66.7845,12.714 66,14.5C 65.8313,21.8559 65.3313,29.1892 64.5,36.5C 60.6921,38.4745 57.6921,41.3078 55.5,45C 52.1832,45.4983 48.8499,45.665 45.5,45.5C 45.3335,34.495 45.5002,23.495 46,12.5C 47.214,10.9512 48.714,9.78451 50.5,9C 64.1667,8.33333 77.8333,8.33333 91.5,9C 92.7659,9.30945 93.9326,9.80945 95,10.5C 96.4559,21.7312 96.9559,33.0645 96.5,44.5 Z"/></g>
<g><path style="opacity:0.977" fill="#a8a8a8" d="M 79.5,15.5 C 77.086,20.7952 78.7527,23.1285 84.5,22.5C 83.0813,23.4511 81.4147,23.7845 79.5,23.5C 79.1744,27.8839 79.5078,32.2172 80.5,36.5C 83.7843,38.117 86.4509,40.4503 88.5,43.5C 91.0865,44.48 93.7531,44.8134 96.5,44.5C 103.507,44.8339 110.507,45.3339 117.5,46C 121.629,48.6311 122.462,52.1311 120,56.5C 118.933,57.1905 117.766,57.6905 116.5,58C 109.816,58.3899 103.15,58.8899 96.5,59.5C 93.7531,59.1866 91.0865,59.52 88.5,60.5C 86.1457,63.688 83.3124,66.3547 80,68.5C 79.6667,74.8333 79.3333,81.1667 79,87.5C 76.9188,92.33 73.4188,93.6634 68.5,91.5C 67.8076,90.9747 67.3076,90.3081 67,89.5C 66.84,82.4371 66.1733,75.4371 65,68.5C 61.5,66.3333 58.6667,63.5 56.5,60C 52.8484,59.5014 49.1817,59.3347 45.5,59.5C 40.1674,59.0668 34.834,58.5668 29.5,58C 26.0193,54.6031 25.686,50.9364 28.5,47C 34.0716,45.6493 39.7383,45.1493 45.5,45.5C 48.8499,45.665 52.1832,45.4983 55.5,45C 57.6921,41.3078 60.6921,38.4745 64.5,36.5C 65.3313,29.1892 65.8313,21.8559 66,14.5C 66.7845,12.714 67.9512,11.214 69.5,10C 74.6514,8.66963 77.9847,10.503 79.5,15.5 Z"/></g>
<g><path style="opacity:1" fill="#eeeeee" d="M 70.5,14.5 C 74.1612,14.3501 75.1612,15.8501 73.5,19C 69.7071,19.4866 68.7071,17.9866 70.5,14.5 Z"/></g>
<g><path style="opacity:1" fill="#efefef" d="M 56.5,14.5 C 63.3576,15.1269 64.6909,17.9603 60.5,23C 53.4,22.752 52.0667,19.9186 56.5,14.5 Z"/></g>
<g><path style="opacity:1" fill="#f6f6f6" d="M 84.5,22.5 C 78.7527,23.1285 77.086,20.7952 79.5,15.5C 81.8169,14.0584 83.9836,14.3918 86,16.5C 86.9411,18.9894 86.4411,20.9894 84.5,22.5 Z"/></g>
<g><path style="opacity:1" fill="#eeeeee" d="M 70.5,21.5 C 74.1612,21.3501 75.1612,22.8501 73.5,26C 69.7071,26.4866 68.7071,24.9866 70.5,21.5 Z"/></g>
<g><path style="opacity:1" fill="#f8f8f8" d="M 32.5,49.5 C 35.9563,50.5362 36.2896,52.2029 33.5,54.5C 31.2957,53.218 30.9624,51.5514 32.5,49.5 Z"/></g>
<g><path style="opacity:1" fill="#f4f4f4" d="M 39.5,49.5 C 40.5,49.5 41.5,49.5 42.5,49.5C 42.5,51.1667 42.5,52.8333 42.5,54.5C 38.7162,54.4747 37.7162,52.8081 39.5,49.5 Z"/></g>
<g><path style="opacity:1" fill="#f9f9f9" d="M 103.5,49.5 C 106.956,50.5362 107.29,52.2029 104.5,54.5C 102.296,53.218 101.962,51.5514 103.5,49.5 Z"/></g>
<g><path style="opacity:1" fill="#efefef" d="M 109.5,49.5 C 113.161,49.3501 114.161,50.8501 112.5,54C 108.707,54.4866 107.707,52.9866 109.5,49.5 Z"/></g>
<g><path style="opacity:1" fill="#474747" d="M 69.5,46.5 C 76.1407,46.4758 78.3073,49.4758 76,55.5C 71.1139,58.4772 67.9472,57.1438 66.5,51.5C 67.0924,49.5775 68.0924,47.9108 69.5,46.5 Z"/></g>
<g><path style="opacity:1" fill="#7c7c7c" d="M 69.5,48.5 C 75.1484,48.311 76.4818,50.4777 73.5,55C 68.7915,55.082 67.4582,52.9154 69.5,48.5 Z"/></g>
<g><path style="opacity:0.962" fill="#3d3d3d" d="M 45.5,59.5 C 49.1817,59.3347 52.8484,59.5014 56.5,60C 58.6667,63.5 61.5,66.3333 65,68.5C 66.1733,75.4371 66.84,82.4371 67,89.5C 67.3076,90.3081 67.8076,90.9747 68.5,91.5C 73.4188,93.6634 76.9188,92.33 79,87.5C 79.3333,81.1667 79.6667,74.8333 80,68.5C 83.3124,66.3547 86.1457,63.688 88.5,60.5C 91.0865,59.52 93.7531,59.1866 96.5,59.5C 96.6666,85.1688 96.5,110.835 96,136.5C 94.992,138.259 93.492,139.426 91.5,140C 77.8333,140.667 64.1667,140.667 50.5,140C 48.714,139.215 47.214,138.049 46,136.5C 45.5,110.835 45.3334,85.1688 45.5,59.5 Z"/></g>
<g><path style="opacity:1" fill="#f2f2f2" d="M 69.5,77.5 C 71.1667,77.5 72.8333,77.5 74.5,77.5C 74.6499,81.1612 73.1499,82.1612 70,80.5C 69.5172,79.552 69.3505,78.552 69.5,77.5 Z"/></g>
<g><path style="opacity:1" fill="#f6f6f6" d="M 70.5,83.5 C 73.1662,83.0658 74.3329,84.0658 74,86.5C 70.4034,88.0661 69.2368,87.0661 70.5,83.5 Z"/></g>
<g><path style="opacity:1" fill="#1c1c1c" d="M 52.5,103.5 C 64.8378,103.333 77.1712,103.5 89.5,104C 90.6295,108.079 90.7961,112.245 90,116.5C 77.5756,117.655 65.0756,117.821 52.5,117C 51.1943,112.501 51.1943,108.001 52.5,103.5 Z"/></g>
<g><path style="opacity:1" fill="#5b5b5b" d="M 84.5,108.5 C 85.5,108.5 86.5,108.5 87.5,108.5C 87.5,110.5 87.5,112.5 87.5,114.5C 86.5,114.5 85.5,114.5 84.5,114.5C 84.5,112.5 84.5,110.5 84.5,108.5 Z"/></g>
<g><path style="opacity:1" fill="#5b5b5b" d="M 56.5,109.5 C 57.9187,108.549 59.5853,108.216 61.5,108.5C 61.6601,112.236 62.4934,112.236 64,108.5C 64.6667,110.5 64.6667,112.5 64,114.5C 63.5488,112.071 62.7155,111.904 61.5,114C 59.5,114.667 57.5,114.667 55.5,114C 56.5,113.667 57.5,113.333 58.5,113C 58.1667,112.667 57.8333,112.333 57.5,112C 60.0515,110.484 59.7181,109.651 56.5,109.5 Z"/></g>
<g><path style="opacity:1" fill="#565656" d="M 69.5,108.5 C 71.6133,109.256 73.6133,109.423 75.5,109C 76.0302,110.744 76.0302,112.244 75.5,113.5C 76.4255,112.359 77.2588,112.359 78,113.5C 78.1792,111.576 78.3459,109.909 78.5,108.5C 79.1872,110.555 80.3539,112.221 82,113.5C 81.5134,111.956 81.0134,110.29 80.5,108.5C 83.5983,108.413 83.9316,108.913 81.5,110C 83.1066,111.049 83.7733,112.549 83.5,114.5C 78.9906,114.363 74.3239,114.196 69.5,114C 70.1667,113.667 70.8333,113.333 71.5,113C 68.9849,112.061 68.3183,110.561 69.5,108.5 Z"/></g>
<g><path style="opacity:1" fill="#fafafa" d="M 55.5,126.5 C 62.004,126.138 63.6707,128.638 60.5,134C 53.745,134.756 52.0783,132.256 55.5,126.5 Z"/></g>
<g><path style="opacity:1" fill="#f7f7f7" d="M 68.5,126.5 C 74.487,125.977 76.487,128.477 74.5,134C 67.2545,135.274 65.2545,132.774 68.5,126.5 Z"/></g>
<g><path style="opacity:1" fill="#fafafa" d="M 81.5,126.5 C 88.004,126.138 89.6707,128.638 86.5,134C 79.745,134.756 78.0783,132.256 81.5,126.5 Z"/></g>
</svg>
