<?xml version="1.0" encoding="UTF-8"?>
<!DOCTYPE svg PUBLIC "-//W3C//DTD SVG 1.1//EN" "http://www.w3.org/Graphics/SVG/1.1/DTD/svg11.dtd">
<svg xmlns="http://www.w3.org/2000/svg" version="1.1" width="143px" height="144px" style="shape-rendering:geometricPrecision; text-rendering:geometricPrecision; image-rendering:optimizeQuality; fill-rule:evenodd; clip-rule:evenodd" xmlns:xlink="http://www.w3.org/1999/xlink">
<g><path style="opacity:0.981" fill="#3e3e3e" d="M 97.5,43.5 C 95.3718,44.6291 93.0385,44.7958 90.5,44C 88.3079,40.3078 85.3079,37.4745 81.5,35.5C 80.1889,31.0162 80.1889,26.6829 81.5,22.5C 87.6623,22.5504 89.329,20.0504 86.5,15C 84.0709,14.2967 81.7375,14.4634 79.5,15.5C 79.822,13.2776 79.1554,11.4443 77.5,10C 69.8091,7.69253 66.3091,10.5259 67,18.5C 66.6667,24.1667 66.3333,29.8333 66,35.5C 62.0311,36.9691 59.1978,39.6358 57.5,43.5C 53.8927,44.4892 50.226,44.8226 46.5,44.5C 46.0441,33.0645 46.5441,21.7312 48,10.5C 48.7504,9.87424 49.5838,9.37424 50.5,9C 65.1667,8.33333 79.8333,8.33333 94.5,9C 95.3333,9.83333 96.1667,10.6667 97,11.5C 97.4998,22.1615 97.6665,32.8281 97.5,43.5 Z"/></g>
<g><path style="opacity:0.978" fill="#a8a8a8" d="M 79.5,15.5 C 79.1658,18.188 79.8325,20.5214 81.5,22.5C 80.1889,26.6829 80.1889,31.0162 81.5,35.5C 85.3079,37.4745 88.3079,40.3078 90.5,44C 93.0385,44.7958 95.3718,44.6291 97.5,43.5C 104.452,44.2612 111.452,44.7612 118.5,45C 122.409,47.5662 123.409,51.0662 121.5,55.5C 120.975,56.1924 120.308,56.6924 119.5,57C 112.194,57.9422 104.86,58.4422 97.5,58.5C 95.1432,58.3367 92.8098,58.5034 90.5,59C 88.2785,62.8881 85.1118,65.7214 81,67.5C 80.6667,74.1667 80.3333,80.8333 80,87.5C 78.9817,90.6829 76.815,92.0162 73.5,91.5C 70.1307,92.1974 68.2973,90.864 68,87.5C 67.8309,80.8085 67.3309,74.1419 66.5,67.5C 62.8797,65.5472 59.8797,62.8805 57.5,59.5C 53.8927,58.5108 50.226,58.1774 46.5,58.5C 41.0698,58.839 35.7364,58.339 30.5,57C 26.5,53.3333 26.5,49.6667 30.5,46C 35.7926,45.023 41.1259,44.523 46.5,44.5C 50.226,44.8226 53.8927,44.4892 57.5,43.5C 59.1978,39.6358 62.0311,36.9691 66,35.5C 66.3333,29.8333 66.6667,24.1667 67,18.5C 66.3091,10.5259 69.8091,7.69253 77.5,10C 79.1554,11.4443 79.822,13.2776 79.5,15.5 Z"/></g>
<g><path style="opacity:1" fill="#f1f1f1" d="M 56.5,14.5 C 61.9933,13.178 64.4933,15.178 64,20.5C 59.7214,23.6393 56.5547,22.8059 54.5,18C 54.9783,16.6974 55.645,15.5307 56.5,14.5 Z"/></g>
<g><path style="opacity:1" fill="#f5f5f5" d="M 72.5,13.5 C 75.3892,13.999 76.0558,15.499 74.5,18C 73.552,18.4828 72.552,18.6495 71.5,18.5C 71.366,16.7085 71.6993,15.0418 72.5,13.5 Z"/></g>
<g><path style="opacity:1" fill="#f3f3f3" d="M 81.5,22.5 C 79.8325,20.5214 79.1658,18.188 79.5,15.5C 81.7375,14.4634 84.0709,14.2967 86.5,15C 89.329,20.0504 87.6623,22.5504 81.5,22.5 Z"/></g>
<g><path style="opacity:1" fill="#f9f9f9" d="M 71.5,21.5 C 72.8333,21.5 74.1667,21.5 75.5,21.5C 75.8333,24.5 74.5,25.8333 71.5,25.5C 71.5,24.1667 71.5,22.8333 71.5,21.5 Z"/></g>
<g><path style="opacity:1" fill="#f5f5f5" d="M 33.5,48.5 C 36.0838,49.0483 37.0838,50.715 36.5,53.5C 32.7162,53.4747 31.7162,51.8081 33.5,48.5 Z"/></g>
<g><path style="opacity:1" fill="#f4f4f4" d="M 39.5,49.5 C 40.8734,49.3433 42.2068,49.51 43.5,50C 44.6745,52.8288 43.6745,53.8288 40.5,53C 39.6634,51.9887 39.33,50.8221 39.5,49.5 Z"/></g>
<g><path style="opacity:1" fill="#f5f5f5" d="M 104.5,48.5 C 107.084,49.0483 108.084,50.715 107.5,53.5C 103.716,53.4747 102.716,51.8081 104.5,48.5 Z"/></g>
<g><path style="opacity:1" fill="#f5f5f5" d="M 111.5,48.5 C 114.389,48.999 115.056,50.499 113.5,53C 112.552,53.4828 111.552,53.6495 110.5,53.5C 110.366,51.7085 110.699,50.0418 111.5,48.5 Z"/></g>
<g><path style="opacity:1" fill="#414141" d="M 70.5,46.5 C 76.168,45.6712 78.668,48.0045 78,53.5C 75.2935,56.9779 72.2935,57.3112 69,54.5C 68.1093,51.5024 68.6093,48.8357 70.5,46.5 Z"/></g>
<g><path style="opacity:1" fill="#7b7b7b" d="M 71.5,47.5 C 75.9764,47.8003 77.3097,49.9669 75.5,54C 69.3389,54.878 68.0055,52.7113 71.5,47.5 Z"/></g>
<g><path style="opacity:0.967" fill="#3d3d3d" d="M 46.5,58.5 C 50.226,58.1774 53.8927,58.5108 57.5,59.5C 59.8797,62.8805 62.8797,65.5472 66.5,67.5C 67.3309,74.1419 67.8309,80.8085 68,87.5C 68.2973,90.864 70.1307,92.1974 73.5,91.5C 76.815,92.0162 78.9817,90.6829 80,87.5C 80.3333,80.8333 80.6667,74.1667 81,67.5C 85.1118,65.7214 88.2785,62.8881 90.5,59C 92.8098,58.5034 95.1432,58.3367 97.5,58.5C 97.6666,84.5021 97.5,110.502 97,136.5C 96.0975,137.701 94.9308,138.535 93.5,139C 79.5,139.667 65.5,139.667 51.5,139C 49.3333,138.167 47.8333,136.667 47,134.5C 46.5,109.169 46.3334,83.8355 46.5,58.5 Z"/></g>
<g><path style="opacity:1" fill="#fbfbfb" d="M 71.5,76.5 C 73.3464,76.2222 74.6798,76.8888 75.5,78.5C 74.6798,80.1112 73.3464,80.7778 71.5,80.5C 71.5,79.1667 71.5,77.8333 71.5,76.5 Z"/></g>
<g><path style="opacity:1" fill="#f4f4f4" d="M 71.5,82.5 C 75.1612,82.3501 76.1612,83.8501 74.5,87C 73.552,87.4828 72.552,87.6495 71.5,87.5C 71.5,85.8333 71.5,84.1667 71.5,82.5 Z"/></g>
<g><path style="opacity:1" fill="#1e1e1e" d="M 54.5,102.5 C 66.5046,102.333 78.5046,102.5 90.5,103C 91.6295,107.079 91.7961,111.245 91,115.5C 90.5,116 90,116.5 89.5,117C 77.8333,117.667 66.1667,117.667 54.5,117C 53.1922,112.167 53.1922,107.334 54.5,102.5 Z"/></g>
<g><path style="opacity:1" fill="#646464" d="M 57.5,107.5 C 59.6477,107.389 59.981,108.056 58.5,109.5C 59.8532,110.524 60.5198,111.857 60.5,113.5C 56.1074,113.543 55.7741,113.043 59.5,112C 56.715,111.274 56.0484,109.774 57.5,107.5 Z"/></g>
<g><path style="opacity:1" fill="#4b4b4b" d="M 75.5,107.5 C 78.1135,107.553 80.7802,107.553 83.5,107.5C 84.2508,108.376 84.7508,109.376 85,110.5C 85.5764,107.876 86.9098,107.209 89,108.5C 89.6667,109.833 89.6667,111.167 89,112.5C 84.3969,113.488 79.5636,113.488 74.5,112.5C 74.9767,111.522 75.6433,110.689 76.5,110C 74.3808,109.658 74.0474,108.825 75.5,107.5 Z"/></g>
<g><path style="opacity:1" fill="#6b6b6b" d="M 61.5,108.5 C 62.7409,110.931 63.9076,110.931 65,108.5C 65.6667,110.167 65.6667,111.833 65,113.5C 64,112.167 63,112.167 62,113.5C 61.5065,111.866 61.3398,110.199 61.5,108.5 Z"/></g>
<g><path style="opacity:1" fill="#6b6b6b" d="M 70.5,107.5 C 71.675,107.281 72.675,107.614 73.5,108.5C 72.8333,108.833 72.1667,109.167 71.5,109.5C 72.8532,110.524 73.5198,111.857 73.5,113.5C 70.4017,113.587 70.0684,113.087 72.5,112C 70.8934,110.951 70.2267,109.451 70.5,107.5 Z"/></g>
<g><path style="opacity:0.788" fill="#3c3c3c" d="M 104.5,115.5 C 106.167,115.5 107.833,115.5 109.5,115.5C 110.031,118.237 110.864,120.904 112,123.5C 113.356,121.102 114.523,118.602 115.5,116C 117.134,115.506 118.801,115.34 120.5,115.5C 120.5,121.5 120.5,127.5 120.5,133.5C 119.167,133.5 117.833,133.5 116.5,133.5C 116.664,130.813 116.497,128.146 116,125.5C 115.652,129.661 113.652,130.995 110,129.5C 109.667,128.5 109.333,127.5 109,126.5C 108.503,128.81 108.337,131.143 108.5,133.5C 107.167,133.5 105.833,133.5 104.5,133.5C 104.5,127.5 104.5,121.5 104.5,115.5 Z"/></g>
<g><path style="opacity:0.774" fill="#3c3c3c" d="M 125.5,115.5 C 131.989,114.632 134.489,117.299 133,123.5C 131.878,125.624 130.378,127.457 128.5,129C 130.134,129.494 131.801,129.66 133.5,129.5C 133.5,130.833 133.5,132.167 133.5,133.5C 129.833,133.5 126.167,133.5 122.5,133.5C 122.34,131.801 122.506,130.134 123,128.5C 126.033,126.088 127.7,123.088 128,119.5C 126.556,121.155 124.722,121.822 122.5,121.5C 122.028,118.642 123.028,116.642 125.5,115.5 Z"/></g>
<g><path style="opacity:1" fill="#f0f0f0" d="M 56.5,125.5 C 62.487,124.977 64.487,127.477 62.5,133C 58.3006,135.401 55.6339,134.234 54.5,129.5C 54.7517,127.927 55.4183,126.594 56.5,125.5 Z"/></g>
<g><path style="opacity:1" fill="#f2f2f2" d="M 70.5,125.5 C 73.3245,125.081 75.4912,126.081 77,128.5C 77.7112,130.367 77.2112,131.867 75.5,133C 70.0141,134.825 67.5141,132.992 68,127.5C 68.9947,126.934 69.828,126.267 70.5,125.5 Z"/></g>
<g><path style="opacity:1" fill="#f1f1f1" d="M 82.5,125.5 C 88.487,124.977 90.487,127.477 88.5,133C 85.4904,135.222 82.9904,134.722 81,131.5C 80.2516,129.16 80.7516,127.16 82.5,125.5 Z"/></g>
</svg>
