<?xml version="1.0" encoding="UTF-8"?>
<svg id="katman_2" data-name="katman 2" xmlns="http://www.w3.org/2000/svg" viewBox="0 0 1388.43 482.56">
  <defs>
    <style>
      .cls-1 {
        letter-spacing: .02em;
      }

      .cls-2 {
        letter-spacing: 0em;
      }

      .cls-3 {
        fill: #f8b233;
      }

      .cls-4 {
        fill: #ed7131;
      }

      .cls-5 {
        fill: #ef8231;
      }

      .cls-6, .cls-7 {
        fill: #fff;
      }

      .cls-8 {
        fill: #dc3545;
      }

      .cls-9 {
        letter-spacing: 0em;
      }

      .cls-10 {
        letter-spacing: 0em;
      }

      .cls-11 {
        letter-spacing: -.02em;
      }

      .cls-7 {
        font-family: Biko-Bold, Biko;
        font-size: 80.47px;
        font-weight: 700;
      }

      .cls-12 {
        letter-spacing: 0em;
      }

      .cls-13 {
        letter-spacing: -.02em;
      }

      .cls-14 {
        letter-spacing: 0em;
      }

      .cls-15 {
        letter-spacing: -.01em;
      }

      .cls-16 {
        letter-spacing: 0em;
      }

      .cls-17 {
        letter-spacing: 0em;
      }
    </style>
  </defs>
  <g>
    <rect class="cls-6" width="606.95" height="482.56" rx="20.35" ry="20.35"/>
    <g>
      <rect class="cls-8" x="24.79" y="33.91" width="23.49" height="416.17" rx="10.37" ry="10.37"/>
      <rect class="cls-8" x="289.3" y="32" width="23.49" height="416.17" rx="10.37" ry="10.37"/>
      <rect class="cls-8" x="558.66" y="33.91" width="23.49" height="416.17" rx="10.37" ry="10.37"/>
      <rect class="cls-8" x="24.79" y="427.07" width="557.36" height="23.49" rx="11.74" ry="11.74"/>
      <rect class="cls-8" x="67.68" y="36.09" width="201.19" height="168" rx="18.15" ry="18.15"/>
      <rect class="cls-4" x="67.68" y="222.47" width="201.19" height="85.79" rx="12.97" ry="12.97"/>
      <rect class="cls-5" x="67.68" y="324.34" width="201.19" height="85.79" rx="12.97" ry="12.97"/>
      <rect class="cls-4" x="333.7" y="148.94" width="201.19" height="150.13" rx="17.16" ry="17.16"/>
      <rect class="cls-3" x="333.7" y="36.09" width="201.19" height="85.79" rx="12.97" ry="12.97"/>
      <rect class="cls-3" x="333.7" y="324.34" width="201.19" height="85.79" rx="12.97" ry="12.97"/>
    </g>
  </g>
  <text class="cls-7" transform="translate(641.02 251.3)"><tspan x="0" y="0">P</tspan><tspan class="cls-15" x="44.1" y="0">i</tspan><tspan class="cls-11" x="66.15" y="0">c</tspan><tspan x="105.98" y="0">oB</tspan><tspan class="cls-12" x="202.22" y="0">r</tspan><tspan class="cls-15" x="231.67" y="0">i</tspan><tspan class="cls-2" x="253.72" y="0">c</tspan><tspan class="cls-16" x="295.33" y="0">ks S</tspan><tspan class="cls-17" x="442.83" y="0">i</tspan><tspan x="466.16" y="0">mu</tspan><tspan class="cls-14" x="579.22" y="0">l</tspan><tspan class="cls-1" x="598.7" y="0">a</tspan><tspan class="cls-13" x="645.53" y="0">t</tspan><tspan class="cls-9" x="675.39" y="0">o</tspan><tspan class="cls-10" x="718.76" y="0">r</tspan></text>
</svg>