<?xml version="1.0" encoding="UTF-8"?>
<svg id="katman_2" data-name="katman 2" xmlns="http://www.w3.org/2000/svg" viewBox="0 0 1613.8 482.56">
  <defs>
    <style>
      .cls-1 {
        fill: #f8b233;
      }

      .cls-2 {
        fill: #ed7131;
      }

      .cls-3 {
        fill: #ef8231;
      }

      .cls-4, .cls-5 {
        fill: #fff;
      }

      .cls-6 {
        fill: #dc3545;
      }

      .cls-5 {
        stroke: #fff;
        stroke-miterlimit: 10;
        stroke-width: 8px;
      }
    </style>
  </defs>
  <g>
    <rect class="cls-4" width="606.95" height="482.56" rx="20.35" ry="20.35"/>
    <g>
      <rect class="cls-6" x="24.79" y="33.91" width="23.49" height="416.17" rx="10.37" ry="10.37"/>
      <rect class="cls-6" x="289.3" y="32" width="23.49" height="416.17" rx="10.37" ry="10.37"/>
      <rect class="cls-6" x="558.66" y="33.91" width="23.49" height="416.17" rx="10.37" ry="10.37"/>
      <rect class="cls-6" x="24.79" y="427.07" width="557.36" height="23.49" rx="11.74" ry="11.74"/>
      <rect class="cls-6" x="67.68" y="36.09" width="201.19" height="168" rx="18.15" ry="18.15"/>
      <rect class="cls-2" x="67.68" y="222.47" width="201.19" height="85.79" rx="12.97" ry="12.97"/>
      <rect class="cls-3" x="67.68" y="324.34" width="201.19" height="85.79" rx="12.97" ry="12.97"/>
      <rect class="cls-2" x="333.7" y="148.94" width="201.19" height="150.13" rx="17.16" ry="17.16"/>
      <rect class="cls-1" x="333.7" y="36.09" width="201.19" height="85.79" rx="12.97" ry="12.97"/>
      <rect class="cls-1" x="333.7" y="324.34" width="201.19" height="85.79" rx="12.97" ry="12.97"/>
    </g>
  </g>
  <g>
    <path class="cls-5" d="m816.44,272.08c0,5.29-1.23,10.53-3.7,15.7-2.46,5.17-5.92,9.55-10.36,13.14-4.87,3.89-10.54,6.94-17.02,9.13-6.48,2.19-14.28,3.29-23.41,3.29-9.8,0-18.61-.91-26.42-2.74-7.82-1.83-15.78-4.53-23.87-8.12v-22.64h1.28c6.88,5.72,14.82,10.13,23.82,13.23,9.01,3.1,17.46,4.65,25.37,4.65,11.2,0,19.91-2.1,26.15-6.3,6.24-4.2,9.36-9.8,9.36-16.79,0-6.02-1.48-10.46-4.43-13.33-2.95-2.86-7.44-5.08-13.46-6.66-4.56-1.22-9.51-2.22-14.83-3.01-5.33-.79-10.97-1.79-16.93-3.01-12.05-2.56-20.98-6.92-26.79-13.1-5.81-6.17-8.72-14.22-8.72-24.14,0-11.38,4.81-20.7,14.42-27.98,9.61-7.27,21.81-10.91,36.6-10.91,9.55,0,18.31.91,26.29,2.74,7.97,1.83,15.03,4.08,21.18,6.75v21.36h-1.28c-5.17-4.38-11.97-8.02-20.4-10.91-8.43-2.89-17.05-4.34-25.88-4.34-9.67,0-17.45,2.01-23.32,6.02-5.87,4.02-8.81,9.19-8.81,15.52,0,5.66,1.46,10.1,4.38,13.33,2.92,3.23,8.06,5.69,15.43,7.39,3.89.85,9.43,1.89,16.61,3.1,7.18,1.22,13.26,2.46,18.25,3.74,10.1,2.68,17.71,6.72,22.82,12.14,5.11,5.42,7.67,12.99,7.67,22.73Z"/>
    <path class="cls-5" d="m862.54,191.86h-19.35v-17.8h19.35v17.8Zm-1.1,119.02h-17.16v-101.95h17.16v101.95Z"/>
    <path class="cls-5" d="m1044.17,310.88h-17.16v-58.05c0-4.38-.2-8.61-.59-12.69-.4-4.08-1.23-7.33-2.51-9.77-1.4-2.62-3.41-4.59-6.02-5.93-2.62-1.34-6.39-2.01-11.32-2.01s-9.62,1.2-14.42,3.61c-4.81,2.4-9.62,5.46-14.42,9.17.18,1.4.33,3.03.46,4.88.12,1.86.18,3.7.18,5.52v65.26h-17.16v-58.05c0-4.5-.2-8.78-.59-12.82-.4-4.05-1.23-7.29-2.51-9.72-1.4-2.62-3.41-4.58-6.02-5.89-2.62-1.31-6.39-1.96-11.32-1.96s-9.39,1.16-14.1,3.47c-4.72,2.31-9.42,5.26-14.1,8.85v76.12h-17.16v-101.95h17.16v11.32c5.35-4.44,10.69-7.91,16.02-10.41,5.32-2.49,11-3.74,17.02-3.74,6.94,0,12.82,1.46,17.66,4.38s8.44,6.97,10.82,12.14c6.94-5.84,13.26-10.06,18.99-12.64,5.72-2.59,11.83-3.88,18.35-3.88,11.2,0,19.46,3.39,24.78,10.18,5.32,6.79,7.99,16.26,7.99,28.43v66.17Z"/>
    <path class="cls-5" d="m1161.73,310.88h-17.16v-11.32c-5.78,4.56-11.32,8.06-16.61,10.5-5.29,2.43-11.14,3.65-17.52,3.65-10.71,0-19.05-3.27-25.01-9.81-5.96-6.54-8.94-16.14-8.94-28.8v-66.17h17.16v58.05c0,5.17.24,9.6.73,13.28.49,3.68,1.52,6.83,3.1,9.45,1.64,2.68,3.77,4.62,6.39,5.84,2.62,1.22,6.42,1.83,11.41,1.83,4.44,0,9.29-1.16,14.56-3.47,5.26-2.31,10.18-5.26,14.74-8.85v-76.12h17.16v101.95Z"/>
    <path class="cls-5" d="m1212.85,310.88h-17.16v-142.02h17.16v142.02Z"/>
    <path class="cls-5" d="m1326.03,310.88h-17.07v-10.86c-1.52,1.04-3.58,2.48-6.16,4.34-2.59,1.86-5.1,3.33-7.53,4.43-2.86,1.4-6.15,2.57-9.86,3.51-3.71.94-8.06,1.41-13.05,1.41-9.19,0-16.98-3.04-23.37-9.13-6.39-6.08-9.58-13.84-9.58-23.28,0-7.73,1.66-13.98,4.97-18.76,3.32-4.78,8.05-8.53,14.19-11.27,6.21-2.74,13.66-4.59,22.36-5.57,8.7-.97,18.04-1.7,28.02-2.19v-2.65c0-3.89-.68-7.12-2.05-9.68s-3.33-4.56-5.89-6.02c-2.43-1.4-5.36-2.34-8.76-2.83-3.41-.49-6.97-.73-10.68-.73-4.5,0-9.52.59-15.06,1.78-5.54,1.19-11.26,2.91-17.16,5.16h-.91v-17.43c3.35-.91,8.18-1.92,14.51-3.01,6.33-1.1,12.56-1.64,18.71-1.64,7.18,0,13.43.59,18.76,1.78,5.32,1.19,9.93,3.21,13.83,6.07,3.83,2.8,6.75,6.42,8.76,10.86,2.01,4.44,3.01,9.95,3.01,16.52v69.19Zm-17.07-25.1v-28.39c-5.23.31-11.4.76-18.48,1.37-7.09.61-12.7,1.49-16.84,2.65-4.93,1.4-8.91,3.58-11.96,6.53-3.04,2.95-4.56,7.01-4.56,12.19,0,5.84,1.76,10.24,5.29,13.19,3.53,2.95,8.91,4.43,16.16,4.43,6.02,0,11.53-1.17,16.52-3.51,4.99-2.34,9.61-5.16,13.87-8.44Z"/>
    <path class="cls-5" d="m1412.01,309.96c-3.23.85-6.74,1.55-10.54,2.1-3.8.55-7.2.82-10.18.82-10.4,0-18.32-2.8-23.73-8.4-5.42-5.6-8.12-14.57-8.12-26.93v-54.22h-11.59v-14.42h11.59v-29.3h17.16v29.3h35.41v14.42h-35.41v46.46c0,5.36.12,9.54.37,12.55.24,3.01,1.1,5.83,2.55,8.44,1.34,2.43,3.18,4.21,5.52,5.34,2.34,1.13,5.92,1.69,10.72,1.69,2.8,0,5.72-.41,8.76-1.23,3.04-.82,5.23-1.51,6.57-2.05h.91v15.43Z"/>
    <path class="cls-5" d="m1519.62,259.95c0,16.61-4.26,29.73-12.78,39.34-8.52,9.62-19.93,14.42-34.23,14.42s-25.88-4.81-34.37-14.42c-8.49-9.61-12.73-22.73-12.73-39.34s4.24-29.74,12.73-39.38c8.49-9.64,19.94-14.47,34.37-14.47s25.71,4.82,34.23,14.47c8.52,9.65,12.78,22.77,12.78,39.38Zm-17.71,0c0-13.2-2.59-23.02-7.76-29.44-5.17-6.42-12.35-9.63-21.54-9.63s-16.54,3.21-21.68,9.63c-5.14,6.42-7.71,16.23-7.71,29.44s2.59,22.47,7.76,29.07c5.17,6.6,12.38,9.9,21.63,9.9s16.29-3.27,21.49-9.81c5.2-6.54,7.8-16.26,7.8-29.16Z"/>
    <path class="cls-5" d="m1609.8,227.63h-.91c-2.56-.61-5.04-1.05-7.44-1.32-2.4-.27-5.25-.41-8.53-.41-5.29,0-10.4,1.17-15.33,3.51-4.93,2.34-9.67,5.37-14.24,9.08v72.38h-17.16v-101.95h17.16v15.06c6.81-5.48,12.82-9.36,18.03-11.64,5.2-2.28,10.51-3.42,15.93-3.42,2.98,0,5.14.08,6.48.23,1.34.15,3.35.44,6.02.87v17.62Z"/>
  </g>
</svg>