<?xml version="1.0" encoding="UTF-8"?>
<!DOCTYPE svg PUBLIC "-//W3C//DTD SVG 1.1//EN" "http://www.w3.org/Graphics/SVG/1.1/DTD/svg11.dtd">
<svg xmlns="http://www.w3.org/2000/svg" version="1.1" width="204px" height="205px" style="shape-rendering:geometricPrecision; text-rendering:geometricPrecision; image-rendering:optimizeQuality; fill-rule:evenodd; clip-rule:evenodd" xmlns:xlink="http://www.w3.org/1999/xlink">
<g><path style="opacity:0.005" fill="#201f1f" d="M 85.5,-0.5 C 85.8333,-0.5 86.1667,-0.5 86.5,-0.5C 87.5,0.833333 88.5,0.833333 89.5,-0.5C 90.1667,-0.5 90.8333,-0.5 91.5,-0.5C 91.8333,0.833333 92.1667,0.833333 92.5,-0.5C 92.8333,-0.5 93.1667,-0.5 93.5,-0.5C 93.8333,0.833333 94.1667,0.833333 94.5,-0.5C 95.1667,-0.5 95.8333,-0.5 96.5,-0.5C 96.8333,0.833333 97.1667,0.833333 97.5,-0.5C 98.5,-0.5 99.5,-0.5 100.5,-0.5C 100.833,0.833333 101.167,0.833333 101.5,-0.5C 104.167,-0.5 106.833,-0.5 109.5,-0.5C 109.833,0.833333 110.167,0.833333 110.5,-0.5C 110.833,-0.5 111.167,-0.5 111.5,-0.5C 111.833,0.833333 112.167,0.833333 112.5,-0.5C 112.833,-0.5 113.167,-0.5 113.5,-0.5C 113.833,0.833333 114.167,0.833333 114.5,-0.5C 114.833,-0.5 115.167,-0.5 115.5,-0.5C 117.729,1.14768 120.062,1.81434 122.5,1.5C 123.172,2.26739 124.005,2.93406 125,3.5C 126.751,2.8263 128.417,2.49296 130,2.5C 130.915,3.32791 131.581,4.32791 132,5.5C 132.626,3.00866 133.459,3.00866 134.5,5.5C 135.906,4.33184 137.072,4.66518 138,6.5C 138.977,5.22641 139.811,5.22641 140.5,6.5C 139.833,6.5 139.5,6.83333 139.5,7.5C 138.25,7.57735 137.417,8.24402 137,9.5C 136.683,7.69923 136.016,7.36589 135,8.5C 133.013,7.78201 131.179,6.78201 129.5,5.5C 128.614,6.32496 128.281,7.32496 128.5,8.5C 84.0286,-4.95414 48.1953,7.04586 21,44.5C 18.8201,48.8599 16.6534,53.1932 14.5,57.5C 12.9256,57.9371 11.7589,58.9371 11,60.5C 10.6174,59.944 10.1174,59.6107 9.5,59.5C 9.67158,58.5084 9.33825,57.8417 8.5,57.5C 9.09065,56.8485 9.75731,56.1818 10.5,55.5C 9.09773,54.1575 9.43107,53.3242 11.5,53C 10.8487,51.692 11.5154,50.8586 13.5,50.5C 13.8333,51.8333 14.1667,51.8333 14.5,50.5C 16.9754,49.3126 17.9754,47.3126 17.5,44.5C 17.3505,43.448 17.5172,42.448 18,41.5C 19.7198,40.6159 20.8865,39.2825 21.5,37.5C 22.9663,36.653 23.7996,35.3197 24,33.5C 24.3333,33.8333 24.6667,34.1667 25,34.5C 25.3333,33.1667 25.6667,31.8333 26,30.5C 26.3333,31.1667 26.6667,31.8333 27,32.5C 29.378,29.1606 31.7114,25.8273 34,22.5C 35.0074,24.7416 35.8407,24.4082 36.5,21.5C 37.2389,21.631 37.9056,21.4643 38.5,21C 37.6598,19.3335 38.1598,19.1669 40,20.5C 40.9234,19.2412 41.7568,17.9079 42.5,16.5C 43.5,17.8333 44.5,17.8333 45.5,16.5C 46.5836,15.3349 47.4169,14.0016 48,12.5C 49.0875,14.9316 49.5875,14.5983 49.5,11.5C 56.7442,9.21362 63.4108,6.88028 69.5,4.5C 72.15,3.5325 74.8167,2.5325 77.5,1.5C 78.8425,2.90227 79.6758,2.56893 80,0.5C 80.6667,3.16667 81.3333,3.16667 82,0.5C 83.313,1.28711 84.4797,0.953781 85.5,-0.5 Z"/></g>
<g><path style="opacity:0.004" fill="#000000" d="M 122.5,0.5 C 123.833,1.16667 123.833,1.16667 122.5,0.5 Z"/></g>
<g><path style="opacity:0.004" fill="#000000" d="M 69.5,4.5 C 68.8333,3.16667 68.8333,3.16667 69.5,4.5 Z"/></g>
<g><path style="opacity:0.999" fill="#fc5d0a" d="M 128.5,8.5 C 165.27,24.3011 184.937,52.3011 187.5,92.5C 183.506,143.324 156.506,173.491 106.5,183C 57.574,184.299 25.4073,161.799 10,115.5C 5.5642,95.6422 7.0642,76.3089 14.5,57.5C 16.6534,53.1932 18.8201,48.8599 21,44.5C 48.1953,7.04586 84.0286,-4.95414 128.5,8.5 Z"/></g>
<g><path style="opacity:0.005" fill="#0a0a0a" d="M 140.5,6.5 C 141.167,6.83333 141.833,7.16667 142.5,7.5C 146.066,8.88417 149.399,10.3842 152.5,12C 153.252,12.6708 153.586,13.5041 153.5,14.5C 151.801,14.6602 150.134,14.4935 148.5,14C 149.094,13.5357 149.761,13.369 150.5,13.5C 151.833,13.1667 151.833,12.8333 150.5,12.5C 146.261,12.2176 142.261,11.0509 138.5,9C 139.056,8.61742 139.389,8.11742 139.5,7.5C 140.167,7.5 140.5,7.16667 140.5,6.5 Z"/></g>
<g><path style="opacity:0.004" fill="#000000" d="M 142.5,6.5 C 143.833,7.16667 143.833,7.16667 142.5,6.5 Z"/></g>
<g><path style="opacity:0.005" fill="#000000" d="M 160.5,17.5 C 161.883,18.4427 163.216,19.4427 164.5,20.5C 164.833,21.5 165.5,22.1667 166.5,22.5C 166.833,23.1667 167.167,23.8333 167.5,24.5C 165.876,24.6399 164.71,23.9733 164,22.5C 163.667,23.1667 163.333,23.8333 163,24.5C 162.667,23.1667 162.333,21.8333 162,20.5C 161.026,22.8776 160.359,22.5443 160,19.5C 159.667,19.8333 159.333,20.1667 159,20.5C 157.34,17.7299 155.173,16.5632 152.5,17C 153.252,16.3292 153.586,15.4959 153.5,14.5C 154.222,14.0825 154.722,13.4158 155,12.5C 155.667,13.8333 156.333,15.1667 157,16.5C 157.333,15.8333 157.667,15.1667 158,14.5C 158.236,16.1193 159.069,17.1193 160.5,17.5 Z"/></g>
<g><path style="opacity:0.004" fill="#000000" d="M 44.5,14.5 C 45.8333,15.1667 45.8333,15.1667 44.5,14.5 Z"/></g>
<g><path style="opacity:0.004" fill="#000000" d="M 160.5,16.5 C 159.833,15.1667 159.833,15.1667 160.5,16.5 Z"/></g>
<g><path style="opacity:0.004" fill="#000000" d="M 160.5,16.5 C 161.833,17.1667 161.833,17.1667 160.5,16.5 Z"/></g>
<g><path style="opacity:0.004" fill="#000000" d="M 164.5,19.5 C 165.833,20.1667 165.833,20.1667 164.5,19.5 Z"/></g>
<g><path style="opacity:0.004" fill="#000000" d="M 36.5,21.5 C 35.8333,20.1667 35.8333,20.1667 36.5,21.5 Z"/></g>
<g><path style="opacity:0.004" fill="#000000" d="M 166.5,22.5 C 166.369,21.7611 166.536,21.0944 167,20.5C 167.692,21.4368 167.525,22.1034 166.5,22.5 Z"/></g>
<g><path style="opacity:0.006" fill="#030303" d="M 167.5,24.5 C 168.397,25.5981 169.23,25.5981 170,24.5C 171.145,25.6364 172.312,26.6364 173.5,27.5C 172.167,27.8333 172.167,28.1667 173.5,28.5C 174.833,30.5 176.5,32.1667 178.5,33.5C 178.5,34.1667 178.5,34.8333 178.5,35.5C 177.719,37.6281 176.719,37.7947 175.5,36C 175.833,35.6667 176.167,35.3333 176.5,35C 175.167,34.6667 173.833,34.3333 172.5,34C 174.932,32.9125 174.598,32.4125 171.5,32.5C 171.649,31.448 171.483,30.448 171,29.5C 169.927,30.2797 168.76,30.113 167.5,29C 168.956,28.5774 169.456,27.7441 169,26.5C 167.927,27.2797 166.76,27.113 165.5,26C 166.416,25.7216 167.082,25.2216 167.5,24.5 Z"/></g>
<g><path style="opacity:0.004" fill="#000000" d="M 173.5,27.5 C 174.833,28.1667 174.833,28.1667 173.5,27.5 Z"/></g>
<g><path style="opacity:0.004" fill="#000000" d="M 178.5,32.5 C 179.833,33.1667 179.833,33.1667 178.5,32.5 Z"/></g>
<g><path style="opacity:0.004" fill="#000000" d="M 21.5,34.5 C 22.8333,35.1667 22.8333,35.1667 21.5,34.5 Z"/></g>
<g><path style="opacity:0.004" fill="#000000" d="M 21.5,37.5 C 20.8333,36.1667 20.8333,36.1667 21.5,37.5 Z"/></g>
<g><path style="opacity:0.004" fill="#000000" d="M 18.5,38.5 C 19.8333,39.1667 19.8333,39.1667 18.5,38.5 Z"/></g>
<g><path style="opacity:0.004" fill="#000000" d="M 17.5,44.5 C 17.9754,47.3126 16.9754,49.3126 14.5,50.5C 14.1667,50.5 13.8333,50.5 13.5,50.5C 13.1105,48.6103 14.1105,47.1103 16.5,46C 15.4829,44.9505 15.3162,43.7839 16,42.5C 16.2784,43.4158 16.7784,44.0825 17.5,44.5 Z"/></g>
<g><path style="opacity:0.004" fill="#000000" d="M 188.5,46.5 C 189.833,47.1667 189.833,47.1667 188.5,46.5 Z"/></g>
<g><path style="opacity:0.004" fill="#000000" d="M 192.5,54.5 C 193.833,55.1667 193.833,55.1667 192.5,54.5 Z"/></g>
<g><path style="opacity:0.004" fill="#000000" d="M 8.5,57.5 C 7.83333,58.1667 7.83333,58.1667 8.5,57.5 Z"/></g>
<g><path style="opacity:0.006" fill="#111111" d="M 8.5,61.5 C 11.0392,62.9068 10.7058,64.0735 7.5,65C 9.87759,65.9745 9.54426,66.6411 6.5,67C 7.5,67.3333 8.5,67.6667 9.5,68C 7.96317,69.1096 7.2965,70.6096 7.5,72.5C 6.5,72.5 5.5,72.5 4.5,72.5C 2.93966,70.8706 3.27299,69.704 5.5,69C 5.16667,68.6667 4.83333,68.3333 4.5,68C 5.71432,65.6494 6.54766,63.1494 7,60.5C 7.38258,61.056 7.88258,61.3893 8.5,61.5 Z"/></g>
<g><path style="opacity:0.004" fill="#000000" d="M 196.5,62.5 C 197.833,63.1667 197.833,63.1667 196.5,62.5 Z"/></g>
<g><path style="opacity:0.268" fill="#323231" d="M 139.5,7.5 C 139.389,8.11742 139.056,8.61742 138.5,9C 142.261,11.0509 146.261,12.2176 150.5,12.5C 150.5,12.8333 150.5,13.1667 150.5,13.5C 149.761,13.369 149.094,13.5357 148.5,14C 150.134,14.4935 151.801,14.6602 153.5,14.5C 153.586,15.4959 153.252,16.3292 152.5,17C 155.173,16.5632 157.34,17.7299 159,20.5C 159.333,20.1667 159.667,19.8333 160,19.5C 160.359,22.5443 161.026,22.8776 162,20.5C 162.333,21.8333 162.667,23.1667 163,24.5C 163.333,23.8333 163.667,23.1667 164,22.5C 164.71,23.9733 165.876,24.6399 167.5,24.5C 167.082,25.2216 166.416,25.7216 165.5,26C 166.76,27.113 167.927,27.2797 169,26.5C 169.456,27.7441 168.956,28.5774 167.5,29C 168.76,30.113 169.927,30.2797 171,29.5C 171.483,30.448 171.649,31.448 171.5,32.5C 174.598,32.4125 174.932,32.9125 172.5,34C 173.833,34.3333 175.167,34.6667 176.5,35C 176.167,35.3333 175.833,35.6667 175.5,36C 176.719,37.7947 177.719,37.6281 178.5,35.5C 179.397,34.4019 180.23,34.4019 181,35.5C 183.652,40.0777 186.152,44.0777 188.5,47.5C 191.068,49.081 192.401,51.4143 192.5,54.5C 191.167,54.8333 191.167,55.1667 192.5,55.5C 193.058,56.7899 194.058,57.6232 195.5,58C 194.833,58.3333 194.167,58.6667 193.5,59C 194.794,61.7558 196.46,64.2558 198.5,66.5C 197.098,67.8425 197.431,68.6758 199.5,69C 198.978,69.5613 198.645,70.228 198.5,71C 198.892,72.0105 199.559,72.5105 200.5,72.5C 200.888,74.3591 200.888,76.3591 200.5,78.5C 201.167,79.1667 201.833,79.8333 202.5,80.5C 201.357,83.33 201.69,85.9967 203.5,88.5C 203.5,89.5 203.5,90.5 203.5,91.5C 202.167,91.8333 202.167,92.1667 203.5,92.5C 203.5,92.8333 203.5,93.1667 203.5,93.5C 202.167,94.1667 202.167,94.8333 203.5,95.5C 203.5,98.8333 203.5,102.167 203.5,105.5C 202.167,105.833 202.167,106.167 203.5,106.5C 203.5,106.833 203.5,107.167 203.5,107.5C 202.167,107.833 202.167,108.167 203.5,108.5C 203.5,108.833 203.5,109.167 203.5,109.5C 202.167,109.833 202.167,110.167 203.5,110.5C 203.5,110.833 203.5,111.167 203.5,111.5C 202.167,112.833 202.167,114.167 203.5,115.5C 203.5,116.167 203.5,116.833 203.5,117.5C 202.624,117.369 201.957,117.702 201.5,118.5C 202.815,120.199 202.815,121.865 201.5,123.5C 200.167,123.833 200.167,124.167 201.5,124.5C 199.833,129.833 198.167,135.167 196.5,140.5C 195.167,140.833 195.167,141.167 196.5,141.5C 195.833,142.5 195.167,143.5 194.5,144.5C 193.801,146.556 192.801,148.556 191.5,150.5C 191.709,151.086 192.043,151.586 192.5,152C 191.263,152.232 190.263,152.732 189.5,153.5C 188.167,153.833 188.167,154.167 189.5,154.5C 189.737,155.791 189.404,156.791 188.5,157.5C 188.167,156.167 187.833,156.167 187.5,157.5C 186.167,157.833 186.167,158.167 187.5,158.5C 186.833,159.167 186.167,159.833 185.5,160.5C 184.167,160.833 184.167,161.167 185.5,161.5C 184.942,162.79 183.942,163.623 182.5,164C 183.167,164.333 183.833,164.667 184.5,165C 182.956,165.29 181.623,165.956 180.5,167C 181.167,167.333 181.833,167.667 182.5,168C 181.263,168.232 180.263,168.732 179.5,169.5C 178.833,169.5 178.167,169.5 177.5,169.5C 174.5,169.167 173.167,170.5 173.5,173.5C 169.82,173.238 168.487,174.572 169.5,177.5C 168.878,179.335 167.544,180.502 165.5,181C 169.333,181.604 169.333,182.437 165.5,183.5C 165.167,182.167 164.833,182.167 164.5,183.5C 163.732,184.263 163.232,185.263 163,186.5C 162.667,185.833 162.333,185.167 162,184.5C 159.254,186.638 156.254,189.305 153,192.5C 152.586,192.043 152.086,191.709 151.5,191.5C 149.505,193.11 147.339,194.443 145,195.5C 144.617,194.944 144.117,194.611 143.5,194.5C 143.265,193.903 142.765,193.57 142,193.5C 138.19,194.744 134.356,195.911 130.5,197C 132.595,197.556 132.762,198.056 131,198.5C 128.391,197.131 126.391,197.797 125,200.5C 124.333,197.833 123.667,197.833 123,200.5C 122.586,200.043 122.086,199.709 121.5,199.5C 120.818,200.243 120.151,200.909 119.5,201.5C 118.833,202.167 118.167,202.833 117.5,203.5C 117.167,202.167 116.833,202.167 116.5,203.5C 115.833,203.5 115.5,203.833 115.5,204.5C 115.167,204.5 114.833,204.5 114.5,204.5C 114.043,202.443 113.043,202.443 111.5,204.5C 110.833,204.5 110.167,204.5 109.5,204.5C 108.833,203.167 108.167,203.167 107.5,204.5C 103.5,204.5 99.5,204.5 95.5,204.5C 95.1667,203.167 94.8333,203.167 94.5,204.5C 94.1667,204.5 93.8333,204.5 93.5,204.5C 92.8333,203.167 92.1667,203.167 91.5,204.5C 91.1667,204.5 90.8333,204.5 90.5,204.5C 89.8333,203.167 89.1667,203.167 88.5,204.5C 87.5,204.5 86.5,204.5 85.5,204.5C 85.631,203.761 85.4643,203.094 85,202.5C 83.8831,202.665 82.7164,202.998 81.5,203.5C 80.8076,202.975 80.3076,202.308 80,201.5C 77.3333,200.167 74.6667,200.167 72,201.5C 71.5831,200.244 70.7498,199.577 69.5,199.5C 69.5,199.167 69.5,198.833 69.5,198.5C 69.5299,197.503 69.0299,196.836 68,196.5C 64.9338,195.287 61.7671,194.453 58.5,194C 57.8742,193.25 57.3742,192.416 57,191.5C 56.6667,191.833 56.3333,192.167 56,192.5C 54.3976,189.626 52.231,188.626 49.5,189.5C 49.1077,187.821 48.6077,186.154 48,184.5C 46.2028,187.096 44.8695,186.763 44,183.5C 43.6667,183.833 43.3333,184.167 43,184.5C 42.0975,183.299 40.9308,182.465 39.5,182C 40.8627,179.871 40.5294,179.371 38.5,180.5C 37.0603,179.048 35.3936,178.048 33.5,177.5C 36.2583,176.033 35.925,175.367 32.5,175.5C 32.5875,172.402 32.0875,172.068 31,174.5C 30.0735,172.416 28.7402,170.083 27,167.5C 26.7216,168.416 26.2216,169.082 25.5,169.5C 24.609,168.89 23.609,168.557 22.5,168.5C 22.6068,166.621 22.1068,166.288 21,167.5C 20.2828,166.956 19.7828,166.289 19.5,165.5C 20.625,164.652 20.625,163.652 19.5,162.5C 20.0906,161.849 20.7573,161.182 21.5,160.5C 21.1543,159.304 20.6543,159.304 20,160.5C 19.8871,158.026 18.8871,156.026 17,154.5C 15.3335,155.34 15.1669,154.84 16.5,153C 14.2993,151.316 13.6327,149.316 14.5,147C 13.552,146.517 12.552,146.351 11.5,146.5C 9.34031,142.298 7.84031,137.965 7,133.5C 6.61742,134.056 6.11742,134.389 5.5,134.5C 4.83333,134.5 4.5,134.833 4.5,135.5C 3.95691,135.44 3.62358,135.107 3.5,134.5C 4.24269,133.818 4.90935,133.151 5.5,132.5C 6.23891,132.631 6.90558,132.464 7.5,132C 6.16667,131.333 5.16667,130.333 4.5,129C 4.61581,127.732 4.94915,126.398 5.5,125C 3.8757,123.883 2.8757,122.383 2.5,120.5C 2.89456,118.534 3.2279,116.534 3.5,114.5C 3.10843,112.129 2.10843,111.462 0.5,112.5C 0.767809,110.901 0.434475,109.568 -0.5,108.5C -0.5,106.833 -0.5,105.167 -0.5,103.5C 0.833333,103.167 0.833333,102.833 -0.5,102.5C -0.5,100.833 -0.5,99.1667 -0.5,97.5C 0.833333,97.1667 0.833333,96.8333 -0.5,96.5C -0.5,95.8333 -0.5,95.1667 -0.5,94.5C 0.833333,94.1667 0.833333,93.8333 -0.5,93.5C -0.5,93.1667 -0.5,92.8333 -0.5,92.5C -0.166667,92.5 0.166667,92.5 0.5,92.5C 3.51748,91.354 3.85082,89.854 1.5,88C 4.09723,87.2208 4.09723,86.7208 1.5,86.5C 0.538078,84.547 0.204745,82.7137 0.5,81C 1.03524,78.0799 2.36858,75.2465 4.5,72.5C 5.5,72.5 6.5,72.5 7.5,72.5C 7.2965,70.6096 7.96317,69.1096 9.5,68C 8.5,67.6667 7.5,67.3333 6.5,67C 9.54426,66.6411 9.87759,65.9745 7.5,65C 10.7058,64.0735 11.0392,62.9068 8.5,61.5C 8.83333,60.8333 9.16667,60.1667 9.5,59.5C 10.1174,59.6107 10.6174,59.944 11,60.5C 11.7589,58.9371 12.9256,57.9371 14.5,57.5C 7.0642,76.3089 5.5642,95.6422 10,115.5C 25.4073,161.799 57.574,184.299 106.5,183C 156.506,173.491 183.506,143.324 187.5,92.5C 184.937,52.3011 165.27,24.3011 128.5,8.5C 128.281,7.32496 128.614,6.32496 129.5,5.5C 131.179,6.78201 133.013,7.78201 135,8.5C 136.016,7.36589 136.683,7.69923 137,9.5C 137.417,8.24402 138.25,7.57735 139.5,7.5 Z"/></g>
<g><path style="opacity:1" fill="#fffdfc" d="M 82.5,57.5 C 86.8441,57.3385 90.5107,58.8385 93.5,62C 104.667,71.1667 115.833,80.3333 127,89.5C 129.154,93.0584 128.654,96.2251 125.5,99C 113.879,107.619 102.545,116.619 91.5,126C 86.729,129.674 82.5623,129.174 79,124.5C 78.3333,103.5 78.3333,82.5 79,61.5C 80.3756,60.2949 81.5423,58.9616 82.5,57.5 Z"/></g>
<g><path style="opacity:0.006" fill="#0b0b0b" d="M 1.5,86.5 C 4.09723,86.7208 4.09723,87.2208 1.5,88C 3.85082,89.854 3.51748,91.354 0.5,92.5C 0.5,91.8333 0.166667,91.5 -0.5,91.5C -0.5,91.1667 -0.5,90.8333 -0.5,90.5C 0.833333,89.8333 0.833333,89.1667 -0.5,88.5C -0.5,88.1667 -0.5,87.8333 -0.5,87.5C 0.166667,87.1667 0.833333,86.8333 1.5,86.5 Z"/></g>
<g><path style="opacity:0.005" fill="#0b0b0b" d="M 5.5,132.5 C 4.44802,132.649 3.44802,132.483 2.5,132C 2.3267,129.74 2.3267,127.407 2.5,125C 0.398497,123.267 0.0651634,121.267 1.5,119C 0.955796,118.283 0.28913,117.783 -0.5,117.5C -0.5,117.167 -0.5,116.833 -0.5,116.5C 0.833333,116.167 0.833333,115.833 -0.5,115.5C -0.5,114.833 -0.5,114.167 -0.5,113.5C 0.166667,113.5 0.5,113.167 0.5,112.5C 2.10843,111.462 3.10843,112.129 3.5,114.5C 3.2279,116.534 2.89456,118.534 2.5,120.5C 2.8757,122.383 3.8757,123.883 5.5,125C 4.94915,126.398 4.61581,127.732 4.5,129C 5.16667,130.333 6.16667,131.333 7.5,132C 6.90558,132.464 6.23891,132.631 5.5,132.5 Z"/></g>
<g><path style="opacity:0.004" fill="#000000" d="M 201.5,123.5 C 202.833,124.167 202.833,124.167 201.5,123.5 Z"/></g>
<g><path style="opacity:0.004" fill="#000000" d="M 196.5,140.5 C 197.833,141.167 197.833,141.167 196.5,140.5 Z"/></g>
<g><path style="opacity:0.006" fill="#141414" d="M 19.5,162.5 C 19.1667,162.5 18.8333,162.5 18.5,162.5C 18.0825,161.778 17.4158,161.278 16.5,161C 17.7736,160.023 17.7736,159.189 16.5,158.5C 15.653,157.034 14.3197,156.2 12.5,156C 13.4839,153.268 12.4839,151.268 9.5,150C 9.30618,148.57 9.30618,147.07 9.5,145.5C 8.90999,144.201 7.90999,143.368 6.5,143C 6.5,141.333 6.5,139.667 6.5,138C 5.24402,137.583 4.57735,136.75 4.5,135.5C 5.16667,135.5 5.5,135.167 5.5,134.5C 6.11742,134.389 6.61742,134.056 7,133.5C 7.84031,137.965 9.34031,142.298 11.5,146.5C 12.552,146.351 13.552,146.517 14.5,147C 13.6327,149.316 14.2993,151.316 16.5,153C 15.1669,154.84 15.3335,155.34 17,154.5C 18.8871,156.026 19.8871,158.026 20,160.5C 20.6543,159.304 21.1543,159.304 21.5,160.5C 20.7573,161.182 20.0906,161.849 19.5,162.5 Z"/></g>
<g><path style="opacity:0.004" fill="#000000" d="M 194.5,144.5 C 195.525,144.897 195.692,145.563 195,146.5C 194.536,145.906 194.369,145.239 194.5,144.5 Z"/></g>
<g><path style="opacity:0.004" fill="#000000" d="M 11.5,153.5 C 12.8333,154.167 12.8333,154.167 11.5,153.5 Z"/></g>
<g><path style="opacity:0.004" fill="#000000" d="M 189.5,154.5 C 189.5,154.167 189.5,153.833 189.5,153.5C 192.167,153.833 192.167,154.167 189.5,154.5 Z"/></g>
<g><path style="opacity:0.004" fill="#000000" d="M 187.5,157.5 C 187.833,157.5 188.167,157.5 188.5,157.5C 188.315,158.17 187.981,158.17 187.5,157.5 Z"/></g>
<g><path style="opacity:0.004" fill="#000000" d="M 16.5,158.5 C 16.1034,159.525 15.4368,159.692 14.5,159C 15.0944,158.536 15.7611,158.369 16.5,158.5 Z"/></g>
<g><path style="opacity:0.004" fill="#000000" d="M 185.5,160.5 C 186.833,161.167 186.833,161.167 185.5,160.5 Z"/></g>
<g><path style="opacity:0.004" fill="#000000" d="M 18.5,162.5 C 17.8333,163.167 17.8333,163.167 18.5,162.5 Z"/></g>
<g><path style="opacity:0.004" fill="#000000" d="M 19.5,165.5 C 18.8333,164.167 18.8333,164.167 19.5,165.5 Z"/></g>
<g><path style="opacity:0.004" fill="#000000" d="M 22.5,168.5 C 21.8333,169.167 21.8333,169.167 22.5,168.5 Z"/></g>
<g><path style="opacity:0.005" fill="#040404" d="M 33.5,177.5 C 31.9382,177.267 30.6049,176.6 29.5,175.5C 28.444,174.123 27.1107,173.29 25.5,173C 26.1712,172.014 26.1712,170.847 25.5,169.5C 26.2216,169.082 26.7216,168.416 27,167.5C 28.7402,170.083 30.0735,172.416 31,174.5C 32.0875,172.068 32.5875,172.402 32.5,175.5C 35.925,175.367 36.2583,176.033 33.5,177.5 Z"/></g>
<g><path style="opacity:0.005" fill="#050505" d="M 177.5,169.5 C 177.842,170.338 178.508,170.672 179.5,170.5C 177.924,171.143 176.59,172.143 175.5,173.5C 174.167,173.833 174.167,174.167 175.5,174.5C 174.4,175.558 173.066,176.392 171.5,177C 172.654,177.914 172.487,178.747 171,179.5C 170.722,178.584 170.222,177.918 169.5,177.5C 168.487,174.572 169.82,173.238 173.5,173.5C 173.167,170.5 174.5,169.167 177.5,169.5 Z"/></g>
<g><path style="opacity:0.004" fill="#000000" d="M 179.5,169.5 C 180.833,170.167 180.833,170.167 179.5,169.5 Z"/></g>
<g><path style="opacity:0.004" fill="#000000" d="M 175.5,173.5 C 176.833,174.167 176.833,174.167 175.5,173.5 Z"/></g>
<g><path style="opacity:0.004" fill="#000000" d="M 29.5,175.5 C 28.8333,176.167 28.8333,176.167 29.5,175.5 Z"/></g>
<g><path style="opacity:0.004" fill="#030303" d="M 33.5,177.5 C 35.3936,178.048 37.0603,179.048 38.5,180.5C 40.5294,179.371 40.8627,179.871 39.5,182C 40.9308,182.465 42.0975,183.299 43,184.5C 43.3333,184.167 43.6667,183.833 44,183.5C 44.8695,186.763 46.2028,187.096 48,184.5C 48.6077,186.154 49.1077,187.821 49.5,189.5C 47.7,190.605 46.5334,189.939 46,187.5C 45.043,189.709 43.8764,189.543 42.5,187C 43.3402,185.334 42.8402,185.167 41,186.5C 40.6827,184.699 40.016,184.366 39,185.5C 38.3918,183.934 37.5585,182.6 36.5,181.5C 35.7375,180.732 34.7375,180.232 33.5,180C 34.5981,179.23 34.5981,178.397 33.5,177.5 Z"/></g>
<g><path style="opacity:0.004" fill="#000000" d="M 36.5,181.5 C 36.1034,182.525 35.4368,182.692 34.5,182C 35.0944,181.536 35.7611,181.369 36.5,181.5 Z"/></g>
<g><path style="opacity:0.004" fill="#000000" d="M 164.5,183.5 C 164.833,183.5 165.167,183.5 165.5,183.5C 165.315,184.17 164.981,184.17 164.5,183.5 Z"/></g>
<g><path style="opacity:0.005" fill="#040404" d="M 69.5,198.5 C 68.8333,198.5 68.5,198.833 68.5,199.5C 66.9505,198.559 65.2838,197.893 63.5,197.5C 60.5721,196.183 57.5721,194.85 54.5,193.5C 53.8106,192.226 52.9772,192.226 52,193.5C 51.7216,192.584 51.2216,191.918 50.5,191.5C 50.1667,190.833 49.8333,190.167 49.5,189.5C 52.231,188.626 54.3976,189.626 56,192.5C 56.3333,192.167 56.6667,191.833 57,191.5C 57.3742,192.416 57.8742,193.25 58.5,194C 61.7671,194.453 64.9338,195.287 68,196.5C 69.0299,196.836 69.5299,197.503 69.5,198.5 Z"/></g>
<g><path style="opacity:0.004" fill="#000000" d="M 156.5,189.5 C 157.833,190.167 157.833,190.167 156.5,189.5 Z"/></g>
<g><path style="opacity:0.004" fill="#000000" d="M 50.5,191.5 C 49.8333,192.167 49.8333,192.167 50.5,191.5 Z"/></g>
<g><path style="opacity:0.004" fill="#000000" d="M 54.5,193.5 C 53.8333,194.167 53.8333,194.167 54.5,193.5 Z"/></g>
<g><path style="opacity:0.006" fill="#161616" d="M 143.5,194.5 C 143.53,195.497 143.03,196.164 142,196.5C 140.527,196.903 139.194,197.57 138,198.5C 137.667,198.167 137.333,197.833 137,197.5C 135.863,198.364 134.53,199.364 133,200.5C 131.853,199.542 130.853,199.875 130,201.5C 129.586,201.043 129.086,200.709 128.5,200.5C 125.667,202.374 122.833,203.374 120,203.5C 119.536,202.906 119.369,202.239 119.5,201.5C 120.151,200.909 120.818,200.243 121.5,199.5C 122.086,199.709 122.586,200.043 123,200.5C 123.667,197.833 124.333,197.833 125,200.5C 126.391,197.797 128.391,197.131 131,198.5C 132.762,198.056 132.595,197.556 130.5,197C 134.356,195.911 138.19,194.744 142,193.5C 142.765,193.57 143.265,193.903 143.5,194.5 Z"/></g>
<g><path style="opacity:0.004" fill="#000000" d="M 63.5,197.5 C 62.8333,198.167 62.8333,198.167 63.5,197.5 Z"/></g>
<g><path style="opacity:0.004" fill="#000000" d="M 68.5,199.5 C 68.8333,199.5 69.1667,199.5 69.5,199.5C 69.3147,200.17 68.9813,200.17 68.5,199.5 Z"/></g>
<g><path style="opacity:0.004" fill="#000000" d="M 116.5,203.5 C 116.833,203.5 117.167,203.5 117.5,203.5C 117.5,203.833 117.5,204.167 117.5,204.5C 117.167,204.167 116.833,203.833 116.5,203.5 Z"/></g>
</svg>
