<?xml version="1.0" encoding="UTF-8"?>
<svg id="Layer_1" xmlns="http://www.w3.org/2000/svg" viewBox="0 0 142.36 142.36">
  <defs>
    <style>
      .cls-1 {
        fill: #5a2e73;
      }

      .cls-2, .cls-3 {
        fill: #fff;
      }

      .cls-3 {
        stroke: #b790c2;
        stroke-miterlimit: 10;
        stroke-width: 5.69px;
      }
    </style>
  </defs>
  <circle class="cls-3" cx="71.18" cy="71.18" r="68.34"/>
  <rect class="cls-1" x="41.04" y="75.57" width="32.1" height="5.9"/>
  <rect class="cls-1" x="36.4" y="65.46" width="39.55" height="5.9"/>
  <rect class="cls-1" x="24.06" y="55.44" width="15.47" height="10.48" transform="translate(-28.89 92.47) rotate(-90)"/>
  <rect class="cls-1" x="74" y="55.73" width="16.05" height="10.48" transform="translate(21.05 143) rotate(-90)"/>
  <rect class="cls-1" x="24.81" y="51.8" width="64.35" height="5.93" rx="1.58" ry="1.58" transform="translate(113.97 109.52) rotate(-180)"/>
  <path class="cls-1" d="M97,27.39h1.56c1.24,0,2.25,1.01,2.25,2.25v40.56c0,1.24-1.01,2.25-2.25,2.25h-2.4c-.77,0-1.4-.63-1.4-1.4V29.64c0-1.24,1.01-2.25,2.25-2.25Z" transform="translate(147.7 -47.85) rotate(90)"/>
  <rect class="cls-1" x="106.18" y="50.97" width="11.38" height="3.24" rx=".98" ry=".98" transform="translate(164.45 -59.28) rotate(90)"/>
  <rect class="cls-1" x="110.46" y="50.97" width="11.38" height="3.24" rx=".98" ry=".98" transform="translate(168.74 -63.57) rotate(90)"/>
  <rect class="cls-1" x="81.08" y="90.42" width="45.15" height="3.27"/>
  <g>
    <path class="cls-1" d="M120.05,63.41c.16-.16.25-.37.25-.6s-.09-.44-.25-.6c-.33-.33-.86-.33-1.18,0-1.26,1.26-2.96,1.96-4.74,1.96-1.78,0-3.48-.71-4.74-1.96-.33-.33-.86-.33-1.19,0-.33.33-.33.86,0,1.19,1.57,1.57,3.71,2.46,5.93,2.46,2.23,0,4.36-.88,5.93-2.46h0Z"/>
    <path class="cls-1" d="M105.81,64.95c-.22,0-.44.09-.6.24-.16.16-.25.37-.25.6s.09.44.25.6c1.56,1.56,3.51,2.69,5.65,3.26,2.14.57,4.38.57,6.52,0,2.14-.57,4.08-1.7,5.65-3.26.33-.33.33-.86,0-1.19-.33-.33-.86-.33-1.19,0-2.05,2.05-4.82,3.19-7.71,3.19-2.89,0-5.67-1.15-7.71-3.19-.16-.16-.37-.24-.6-.24h0Z"/>
    <path class="cls-1" d="M124.8,68.15c-2.83,2.83-6.67,4.42-10.68,4.42-4,0-7.84-1.59-10.68-4.42-.16-.16-.37-.25-.6-.25-.22,0-.44.09-.6.25-.16.16-.25.37-.25.6s.09.44.25.6c3.15,3.15,7.42,4.92,11.87,4.92,4.45,0,8.72-1.77,11.87-4.92.33-.33.33-.86,0-1.19-.33-.33-.86-.33-1.19,0h0Z"/>
  </g>
  <g>
    <path class="cls-2" d="M31.19,90.42c-7.13,0-12.93-5.8-12.93-12.93s5.8-12.93,12.93-12.93,12.93,5.8,12.93,12.93-5.8,12.93-12.93,12.93Z"/>
    <path class="cls-1" d="M31.19,67.82c5.33,0,9.66,4.34,9.66,9.66s-4.34,9.66-9.66,9.66-9.66-4.34-9.66-9.66,4.34-9.66,9.66-9.66M31.19,61.28c-8.95,0-16.2,7.25-16.2,16.2s7.25,16.2,16.2,16.2,16.2-7.25,16.2-16.2-7.25-16.2-16.2-16.2h0Z"/>
  </g>
  <g>
    <path class="cls-2" d="M82.03,90.42c-7.13,0-12.93-5.8-12.93-12.93s5.8-12.93,12.93-12.93,12.93,5.8,12.93,12.93-5.8,12.93-12.93,12.93Z"/>
    <path class="cls-1" d="M82.03,67.82c5.33,0,9.66,4.34,9.66,9.66s-4.34,9.66-9.66,9.66-9.66-4.34-9.66-9.66,4.34-9.66,9.66-9.66M82.03,61.28c-8.95,0-16.2,7.25-16.2,16.2s7.25,16.2,16.2,16.2,16.2-7.25,16.2-16.2-7.25-16.2-16.2-16.2h0Z"/>
  </g>
</svg>