<?xml version="1.0" encoding="UTF-8"?>
<svg id="Layer_1" xmlns="http://www.w3.org/2000/svg" viewBox="0 0 142.36 142.36">
  <defs>
    <style>
      .cls-1 {
        fill: #5a2e73;
      }

      .cls-2 {
        fill: #fff;
        stroke: #b790c2;
        stroke-miterlimit: 10;
        stroke-width: 5.69px;
      }
    </style>
  </defs>
  <circle class="cls-2" cx="71.18" cy="71.18" r="68.34"/>
  <path class="cls-1" d="M101.58,117.34h-59.83V24.34h59.83v93ZM47.26,29.79v82.06h48.83V29.79c-1.71,0-3.37.06-5.02-.02-.88-.04-1.23.25-1.5,1.09-1.03,3.28-2.16,6.53-3.24,9.79-.17.02-.29.04-.41.04-9.43,0-18.85,0-28.28.02-.56,0-.7-.26-.85-.7-1.05-3.19-2.1-6.37-3.2-9.54-.1-.28-.49-.64-.75-.65-1.84-.06-3.68-.03-5.58-.03ZM59.15,29.83c.51,1.56,1.04,3.07,1.5,4.6.19.63.47.84,1.14.83,3.29-.04,6.59-.02,9.88-.02,3.32,0,6.65,0,9.97-.02.3,0,.79-.16.87-.37.6-1.64,1.13-3.31,1.7-5.03h-25.04Z"/>
  <path class="cls-1" d="M52.67,95.48v-5.33h37.99v5.33h-37.99Z"/>
  <path class="cls-1" d="M90.64,106.41h-37.96v-5.34h37.96v5.34Z"/>
  <path class="cls-1" d="M63.51,65.53c.02-4.51,3.73-8.16,8.25-8.13,4.46.04,8.09,3.73,8.07,8.21-.02,4.51-3.73,8.17-8.24,8.13-4.45-.04-8.09-3.74-8.07-8.22ZM71.69,62.85c-1.47-.01-2.71,1.21-2.74,2.68-.02,1.47,1.18,2.73,2.65,2.77,1.5.04,2.78-1.22,2.78-2.72,0-1.47-1.23-2.71-2.69-2.72Z"/>
  <path class="cls-1" d="M86.8,77.23c-1.13,1.13-2.36,2.37-3.51,3.52-1.19-1.2-2.44-2.44-3.6-3.61,1.11-1.11,2.36-2.36,3.53-3.53,1.1,1.11,2.34,2.36,3.59,3.62Z"/>
  <path class="cls-1" d="M60.12,57.64c-1.18-1.18-2.42-2.43-3.63-3.64,1.17-1.18,2.42-2.43,3.61-3.62,1.2,1.2,2.45,2.45,3.65,3.64-1.19,1.18-2.43,2.43-3.63,3.63Z"/>
  <path class="cls-1" d="M86.8,54.08c-1.16,1.16-2.39,2.4-3.58,3.59-1.21-1.21-2.46-2.46-3.66-3.67,1.19-1.19,2.42-2.43,3.59-3.59,1.18,1.18,2.43,2.43,3.66,3.67Z"/>
  <path class="cls-1" d="M63.76,77.13c-1.2,1.2-2.45,2.45-3.66,3.65-1.19-1.2-2.44-2.45-3.62-3.63,1.2-1.21,2.45-2.46,3.65-3.66,1.2,1.2,2.44,2.45,3.63,3.64Z"/>
  <path class="cls-1" d="M74.31,51.93h-5.29v-5.37h5.29v5.37Z"/>
  <path class="cls-1" d="M58.03,62.9v5.33h-5.33v-5.33h5.33Z"/>
  <path class="cls-1" d="M85.33,62.89h5.32v5.34h-5.32v-5.34Z"/>
  <path class="cls-1" d="M68.99,84.58v-5.33h5.36v5.33h-5.36Z"/>
</svg>