<?xml version="1.0" encoding="UTF-8"?>
<svg id="Layer_1" xmlns="http://www.w3.org/2000/svg" viewBox="0 0 142.36 142.36">
  <defs>
    <style>
      .cls-1 {
        fill: #5a2e73;
      }

      .cls-2 {
        fill: #fff;
        stroke: #b790c2;
        stroke-miterlimit: 10;
        stroke-width: 5.69px;
      }
    </style>
  </defs>
  <circle class="cls-2" cx="71.18" cy="71.18" r="68.34"/>
  <g>
    <rect class="cls-1" x="42.08" y="45.32" width="34.63" height="6.02" rx="2.03" ry="2.03"/>
    <g>
      <rect class="cls-1" x="50.2" y="76.19" width="18.97" height="6.48"/>
      <rect class="cls-1" x="47.75" y="65.09" width="23.29" height="6.48" rx="1.81" ry="1.81"/>
      <rect class="cls-1" x="23.54" y="54.09" width="16.98" height="11.51" transform="translate(-27.81 91.87) rotate(-90)"/>
      <rect class="cls-1" x="78.37" y="54.41" width="17.62" height="11.51" transform="translate(27.02 147.34) rotate(-90)"/>
      <rect class="cls-1" x="24.36" y="50.09" width="70.65" height="6.51" rx="2" ry="2" transform="translate(119.38 106.68) rotate(-180)"/>
      <g>
        <path class="cls-1" d="M44.06,79.59l-.62-5.69c-.05-.43.26-.81.69-.86l1.74-.19c-.25-.76-.55-1.5-.91-2.21l-1.17,1.17c-.3.3-.8.3-1.1,0l-4.05-4.05c-.3-.3-.3-.8,0-1.1l1.63-1.63c-.91-.68-1.89-1.26-2.93-1.73l-.41,2.05c-.08.42-.5.7-.92.61l-5.61-1.12c-.42-.08-.7-.5-.61-.92l.41-2.05c-1.03.04-2.03.17-2.99.39l.81,1.91c.17.4-.02.86-.42,1.02l-5.27,2.22c-.4.17-.86-.02-1.02-.42l-.64-1.53c-.62.51-1.2,1.07-1.74,1.67l1.88,1.1c.37.22.5.7.28,1.07l-2.89,4.94c-.22.37-.7.5-1.07.28l-1.7-.99c-.28,1.01-.46,2.05-.53,3.13l2.3-.17c.43-.03.8.29.84.72l.42,5.71c.03.43-.29.8-.72.84l-1.65.12c.31.74.67,1.45,1.08,2.13l1.58-1.37c.33-.28.82-.25,1.1.08l3.75,4.32c.28.33.25.82-.08,1.1l-1.23,1.07c.63.4,1.29.75,1.98,1.06l.24-1.31c.08-.42.48-.71.91-.63l5.63,1.02c.42.08.71.48.63.91l-.25,1.38c.96-.04,1.89-.16,2.79-.37l-.39-.91c-.17-.4,0-.86.41-1.03l5.25-2.28c.4-.17.86,0,1.03.41l.27.63c.51-.41.99-.86,1.45-1.34l-1.19-.7c-.37-.22-.49-.7-.28-1.07l2.91-4.93c.22-.37.7-.49,1.07-.28l1.2.71c.24-.77.42-1.57.54-2.38l-1.55.17c-.43.05-.81-.26-.86-.69Z"/>
        <path class="cls-1" d="M37.34,63.29l.16-.78c.08-.42-.19-.83-.61-.92l-5.61-1.12c-.42-.08-.83.19-.92.61l-.16.78c.18,0,.37-.01.55-.01,2.35,0,4.58.51,6.59,1.43Z"/>
        <path class="cls-1" d="M44.96,70.63l.87-.87c.3-.3.3-.8,0-1.1l-4.05-4.05c-.3-.3-.8-.3-1.1,0l-.41.41c1.97,1.47,3.58,3.39,4.69,5.61Z"/>
        <path class="cls-1" d="M47.86,73.41c-.05-.43-.43-.74-.86-.69l-1.13.12c.5,1.55.78,3.2.78,4.91,0,.8-.06,1.58-.17,2.35l1.32-.14c.43-.05.74-.43.69-.86l-.62-5.69Z"/>
        <path class="cls-1" d="M43.52,89.52c.37.22.85.1,1.07-.28l2.91-4.93c.22-.37.1-.85-.28-1.07l-1.29-.76c-.74,2.38-2.03,4.51-3.71,6.27l1.3.77Z"/>
        <path class="cls-1" d="M34.97,95.01c.17.4.63.58,1.03.41l5.25-2.28c.4-.17.58-.63.41-1.03l-.88-2.02c-1.88,1.53-4.11,2.63-6.56,3.18l.76,1.74Z"/>
        <path class="cls-1" d="M24.27,92.27l-.28,1.53c-.08.42.2.83.63.91l5.63,1.02c.42.08.83-.2.91-.63l.27-1.46c-.22,0-.45.02-.67.02-2.31,0-4.5-.5-6.48-1.38Z"/>
        <path class="cls-1" d="M17.17,86.02l-.6.52c-.33.28-.36.78-.08,1.1l3.75,4.32c.28.33.78.36,1.1.08l.95-.82c-2.08-1.31-3.84-3.09-5.12-5.2Z"/>
        <path class="cls-1" d="M14.9,76.67l-.58.04c-.43.03-.75.41-.72.84l.42,5.71c.03.43.41.75.84.72l1.23-.09c-.79-1.89-1.23-3.96-1.23-6.13,0-.37.02-.73.04-1.09Z"/>
        <path class="cls-1" d="M18.31,66.79c-.37-.22-.85-.09-1.07.28l-2.89,4.94c-.22.37-.09.85.28,1.07l.8.47c.66-2.41,1.87-4.59,3.49-6.4l-.61-.36Z"/>
        <path class="cls-1" d="M26.89,61.51c-.17-.4-.63-.58-1.02-.42l-5.27,2.22c-.4.17-.58.63-.42,1.02l.48,1.13c1.87-1.54,4.1-2.66,6.55-3.22l-.32-.75Z"/>
      </g>
      <g>
        <path class="cls-1" d="M101.5,79.59l-.62-5.69c-.05-.43.26-.81.69-.86l1.74-.19c-.25-.76-.55-1.5-.91-2.21l-1.17,1.17c-.3.3-.8.3-1.1,0l-4.05-4.05c-.3-.3-.3-.8,0-1.1l1.63-1.63c-.91-.68-1.89-1.26-2.93-1.73l-.41,2.05c-.08.42-.5.7-.92.61l-5.61-1.12c-.42-.08-.7-.5-.61-.92l.41-2.05c-1.03.04-2.03.17-2.99.39l.81,1.91c.17.4-.02.86-.42,1.02l-5.27,2.22c-.4.17-.86-.02-1.02-.42l-.64-1.53c-.62.51-1.2,1.07-1.74,1.67l1.88,1.1c.37.22.5.7.28,1.07l-2.89,4.94c-.22.37-.7.5-1.07.28l-1.7-.99c-.28,1.01-.46,2.05-.53,3.13l2.3-.17c.43-.03.8.29.84.72l.42,5.71c.03.43-.29.8-.72.84l-1.65.12c.31.74.67,1.45,1.08,2.13l1.58-1.37c.33-.28.82-.25,1.1.08l3.75,4.32c.28.33.25.82-.08,1.1l-1.23,1.07c.63.4,1.29.75,1.98,1.06l.24-1.31c.08-.42.48-.71.91-.63l5.63,1.02c.42.08.71.48.63.91l-.25,1.38c.96-.04,1.89-.16,2.79-.37l-.39-.91c-.17-.4,0-.86.41-1.03l5.25-2.28c.4-.17.86,0,1.03.41l.27.63c.51-.41.99-.86,1.45-1.34l-1.19-.7c-.37-.22-.49-.7-.28-1.07l2.91-4.93c.22-.37.7-.49,1.07-.28l1.2.71c.24-.77.42-1.57.54-2.38l-1.55.17c-.43.05-.81-.26-.86-.69Z"/>
        <path class="cls-1" d="M94.78,63.29l.16-.78c.08-.42-.19-.83-.61-.92l-5.61-1.12c-.42-.08-.83.19-.92.61l-.16.78c.18,0,.37-.01.55-.01,2.35,0,4.58.51,6.59,1.43Z"/>
        <path class="cls-1" d="M102.4,70.63l.87-.87c.3-.3.3-.8,0-1.1l-4.05-4.05c-.3-.3-.8-.3-1.1,0l-.41.41c1.97,1.47,3.58,3.39,4.69,5.61Z"/>
        <path class="cls-1" d="M105.3,73.41c-.05-.43-.43-.74-.86-.69l-1.13.12c.5,1.55.78,3.2.78,4.91,0,.8-.06,1.58-.17,2.35l1.32-.14c.43-.05.74-.43.69-.86l-.62-5.69Z"/>
        <path class="cls-1" d="M100.96,89.52c.37.22.85.1,1.07-.28l2.91-4.93c.22-.37.1-.85-.28-1.07l-1.29-.76c-.74,2.38-2.03,4.51-3.71,6.27l1.3.77Z"/>
        <path class="cls-1" d="M92.41,95.01c.17.4.63.58,1.03.41l5.25-2.28c.4-.17.58-.63.41-1.03l-.88-2.02c-1.88,1.53-4.11,2.63-6.56,3.18l.76,1.74Z"/>
        <path class="cls-1" d="M81.71,92.27l-.28,1.53c-.08.42.2.83.63.91l5.63,1.02c.42.08.83-.2.91-.63l.27-1.46c-.22,0-.45.02-.67.02-2.31,0-4.5-.5-6.48-1.38Z"/>
        <path class="cls-1" d="M74.61,86.02l-.6.52c-.33.28-.36.78-.08,1.1l3.75,4.32c.28.33.78.36,1.1.08l.95-.82c-2.08-1.31-3.84-3.09-5.12-5.2Z"/>
        <path class="cls-1" d="M72.34,76.67l-.58.04c-.43.03-.75.41-.72.84l.42,5.71c.03.43.41.75.84.72l1.23-.09c-.79-1.89-1.23-3.96-1.23-6.13,0-.37.02-.73.04-1.09Z"/>
        <path class="cls-1" d="M75.75,66.79c-.37-.22-.85-.09-1.07.28l-2.89,4.94c-.22.37-.09.85.28,1.07l.8.47c.66-2.41,1.87-4.59,3.49-6.4l-.61-.36Z"/>
        <path class="cls-1" d="M84.33,61.51c-.17-.4-.63-.58-1.02-.42l-5.27,2.22c-.4.17-.58.63-.42,1.02l.48,1.13c1.87-1.54,4.1-2.66,6.55-3.22l-.32-.75Z"/>
      </g>
    </g>
  </g>
  <rect class="cls-1" x="112.83" y="44.98" width="4.88" height="46.56" rx="1.48" ry="1.48" transform="translate(-18.14 56.02) rotate(-25.39)"/>
  <rect class="cls-1" x="102.19" y="60.85" width="3.62" height="31.04" rx="1.02" ry="1.02" transform="translate(27.63 180.37) rotate(-90)"/>
  <rect class="cls-1" x="96.36" y="44.63" width="3.62" height="27.32" rx=".96" ry=".96" transform="translate(39.89 156.46) rotate(-90)"/>
</svg>