<?xml version="1.0" encoding="UTF-8"?>
<svg id="Layer_1" xmlns="http://www.w3.org/2000/svg" viewBox="0 0 142.36 142.36">
  <defs>
    <style>
      .cls-1 {
        fill: #582d72;
      }

      .cls-2 {
        fill: #fff;
        stroke: #b790c2;
        stroke-miterlimit: 10;
        stroke-width: 5.69px;
      }
    </style>
  </defs>
  <circle class="cls-2" cx="71.18" cy="71.18" r="68.34"/>
  <g>
    <path class="cls-1" d="M73.5,21.48c2.04.37,4.11.62,6.1,1.14,6.58,1.72,11.95,5.37,16.2,10.65,3.05,3.79,5.11,8.08,6.07,12.85,1.73,8.62.24,16.67-4.72,23.95-1.61,2.36-3.63,4.43-5.34,6.73-3.46,4.65-5.04,9.95-5.06,15.72-.01,3.88,0,7.75,0,11.63,0,3.53-1.06,5.12-4.37,6.48,0,.51.01,1.07,0,1.63-.11,3.43-2.58,5.96-6.01,6.02-3.31.06-6.62.06-9.93,0-3.5-.07-5.99-2.65-5.97-6.22,0-1.03-.21-1.55-1.23-2.01-2.18-1-3.14-2.9-3.14-5.28,0-3.97-.03-7.94,0-11.91.07-7.08-2.16-13.29-6.99-18.51-3.41-3.68-6.01-7.82-7.45-12.66-1.91-6.41-1.85-12.81.33-19.13,2.64-7.65,7.62-13.4,14.68-17.32,3.73-2.07,7.76-3.27,12.02-3.62.28-.02.55-.1.83-.15,1.32,0,2.65,0,3.97,0ZM83,90.48c.05-.33.11-.61.13-.88.46-5.5,2.31-10.49,5.58-14.93,1.73-2.36,3.83-4.46,5.44-6.89,4.87-7.36,5.93-15.34,3.23-23.74-2.21-6.88-6.64-12.04-12.96-15.47-5.98-3.25-12.38-4.14-19.03-2.56-7.65,1.81-13.52,6.18-17.51,12.92-4.01,6.77-4.77,14.02-2.61,21.58,1.3,4.56,3.9,8.34,7.07,11.79,3.73,4.07,6.06,8.86,7.02,14.3.23,1.29.38,2.59.57,3.87h4.7v-23.85c-.61,0-1.17.02-1.73,0-3.33-.11-5.48-2.11-5.73-5.32-.24-3.09,2.02-5.68,5.19-5.93,3.16-.25,5.84,1.96,6.05,5.03.05.77,0,1.55,0,2.36h6c0-.82-.05-1.58,0-2.32.21-2.9,2.59-5.11,5.45-5.09,2.97.02,5.27,2.32,5.44,5.43.16,2.88-1.95,5.43-4.76,5.74-.77.09-1.55.12-2.34.17v23.79h4.78ZM82.97,94.38h-23.07c0,3.41,0,6.75,0,10.09,0,1.84.67,2.49,2.53,2.49,4.03,0,8.07,0,12.1,0,2.08,0,4.16.01,6.24,0,1.34-.01,2.17-.67,2.18-1.85.04-3.56.01-7.12.01-10.73ZM68.52,66.67v23.79h5.8v-23.79h-5.8ZM64.3,110.77c-.25,2.94.49,3.76,3.31,3.76,2.64,0,5.29-.07,7.93.02,1.99.07,3.55-.8,2.95-3.78h-14.18ZM64.67,62.81c0-.7.03-1.32,0-1.93-.07-1.13-.8-1.78-1.91-1.75-1.03.03-1.72.66-1.8,1.68-.09,1.11.52,1.88,1.65,2,.65.07,1.31.01,2.07.01ZM78.18,62.86c.77-.05,1.47-.02,2.12-.16.89-.19,1.34-1.05,1.19-2.06-.13-.88-.83-1.51-1.66-1.5-.87.01-1.56.66-1.64,1.63-.05.65,0,1.3,0,2.1Z"/>
    <path class="cls-1" d="M72.25,30.73c8.24.17,16.27,5.74,19.34,13.41.48,1.2.13,2.26-.9,2.71-1.04.46-2.05-.01-2.61-1.31-1.96-4.48-5.16-7.71-9.64-9.64-2.01-.87-4.13-1.32-6.33-1.39-.41-.01-.82-.03-1.22-.12-.99-.21-1.62-1.05-1.52-1.97.1-.95.83-1.63,1.85-1.69.35-.02.69,0,1.04,0Z"/>
    <path class="cls-1" d="M91.44,50.77c1.02.02,1.86.87,1.84,1.88-.02,1-.9,1.86-1.9,1.85-1-.02-1.84-.89-1.83-1.91.01-1.03.85-1.84,1.89-1.82Z"/>
  </g>
</svg>