<?xml version="1.0" encoding="UTF-8"?>
<svg id="Layer_1" xmlns="http://www.w3.org/2000/svg" viewBox="0 0 142.36 142.36">
  <defs>
    <style>
      .cls-1 {
        fill: #5a2e73;
      }

      .cls-2 {
        fill: #fff;
        stroke: #b790c2;
        stroke-miterlimit: 10;
        stroke-width: 5.69px;
      }
    </style>
  </defs>
  <circle class="cls-2" cx="71.18" cy="71.18" r="68.34"/>
  <path class="cls-1" d="M29.1,58.12c.46-1.86,1.33-3.48,3.17-4.25.94-.4,2.04-.61,3.07-.63,3.96-.07,7.92-.01,11.88-.05.51,0,1.11-.2,1.5-.51,8.9-7.09,17.79-14.2,26.67-21.32.9-.72,1.83-1.27,3.06-.9,1.2.37,1.98,1.3,2.07,2.55.02.28.02.56.02.84,0,24.33,0,48.66,0,72.99,0,1.07-.13,2.06-.99,2.81-1.15,1-2.59.93-4.03-.22-3.42-2.73-6.84-5.47-10.26-8.21-5.53-4.43-11.06-8.86-16.61-13.26-.35-.28-.9-.45-1.35-.46-4.02-.04-8.04,0-12.05-.02-3.18-.01-5.1-1.48-6-4.53-.04-.13-.09-.26-.14-.38,0-8.15,0-16.3,0-24.45ZM74.77,101.49v-62.26c-.21.15-.35.24-.47.34-7.3,5.84-14.6,11.67-21.88,17.53-.26.21-.43.7-.43,1.07-.02,8.12-.01,16.24-.03,24.36,0,.52.15.86.57,1.2,5.78,4.6,11.55,9.23,17.33,13.85,1.6,1.28,3.21,2.56,4.91,3.92ZM46.18,81.72v-22.75h-11.31v22.75h11.31Z"/>
  <path class="cls-1" d="M114.87,69.72c-.19,11.49-3.96,20.84-11.53,28.62-1.32,1.36-3.01,1.47-4.23.3-1.21-1.15-1.19-2.91.1-4.24,3.7-3.82,6.49-8.21,8.15-13.28,1.67-5.12,2.19-10.33,1.39-15.68-1.1-7.42-4.32-13.76-9.53-19.12-.87-.9-1.24-1.91-.84-3.13.37-1.11,1.18-1.74,2.33-1.9,1.09-.15,1.93.34,2.67,1.1,4.88,4.99,8.28,10.83,10.08,17.57.42,1.58.76,3.2.98,4.83.25,1.85.33,3.72.43,4.93Z"/>
  <path class="cls-1" d="M103.41,69.36c-.1,8.77-2.83,15.5-8.3,21.08-1.17,1.19-2.89,1.24-4.05.15-1.13-1.06-1.24-2.79-.13-3.98,1.93-2.08,3.68-4.28,4.76-6.92,3.28-7.94,2.6-15.51-2.29-22.63-.69-1.01-1.56-1.89-2.36-2.82-1.17-1.37-1.15-3.08.07-4.18,1.23-1.11,2.92-.95,4.17.35,3.8,3.92,6.35,8.53,7.46,13.87.41,1.98.54,4.03.67,5.08Z"/>
</svg>