<?xml version="1.0" encoding="UTF-8"?>
<!DOCTYPE svg PUBLIC "-//W3C//DTD SVG 1.1//EN" "http://www.w3.org/Graphics/SVG/1.1/DTD/svg11.dtd">
<svg xmlns="http://www.w3.org/2000/svg" version="1.1" width="187px" height="195px" style="shape-rendering:geometricPrecision; text-rendering:geometricPrecision; image-rendering:optimizeQuality; fill-rule:evenodd; clip-rule:evenodd" xmlns:xlink="http://www.w3.org/1999/xlink">
<g><path style="opacity:1" fill="#5a2e72" d="M -0.5,-0.5 C 61.8333,-0.5 124.167,-0.5 186.5,-0.5C 186.5,64.5 186.5,129.5 186.5,194.5C 124.167,194.5 61.8333,194.5 -0.5,194.5C -0.5,129.5 -0.5,64.5 -0.5,-0.5 Z"/></g>
<g><path style="opacity:1" fill="#f9f7fa" d="M 4.5,3.5 C 11.175,3.33375 17.8417,3.50042 24.5,4C 25.3081,4.30762 25.9747,4.80762 26.5,5.5C 27.626,11.7818 27.7927,18.1151 27,24.5C 26.5348,25.9308 25.7014,27.0975 24.5,28C 18.1667,28.6667 11.8333,28.6667 5.5,28C 4.58377,27.6258 3.75044,27.1258 3,26.5C 1.41372,19.9427 1.08039,13.276 2,6.5C 2.69794,5.30943 3.53128,4.30943 4.5,3.5 Z"/></g>
<g><path style="opacity:1" fill="#f9f7fa" d="M 43.5,3.5 C 50.175,3.33375 56.8417,3.50042 63.5,4C 64.3081,4.30762 64.9747,4.80762 65.5,5.5C 66.626,11.7818 66.7927,18.1151 66,24.5C 65.5348,25.9308 64.7014,27.0975 63.5,28C 57.1667,28.6667 50.8333,28.6667 44.5,28C 43.5838,27.6258 42.7504,27.1258 42,26.5C 40.4137,19.9427 40.0804,13.276 41,6.5C 42.045,5.62656 42.8783,4.62656 43.5,3.5 Z"/></g>
<g><path style="opacity:1" fill="#f9f7fa" d="M 121.5,3.5 C 128.175,3.33375 134.842,3.50042 141.5,4C 142.308,4.30762 142.975,4.80762 143.5,5.5C 144.626,11.7818 144.793,18.1151 144,24.5C 143.535,25.9308 142.701,27.0975 141.5,28C 135.167,28.6667 128.833,28.6667 122.5,28C 121.584,27.6258 120.75,27.1258 120,26.5C 118.414,19.9427 118.08,13.276 119,6.5C 120.045,5.62656 120.878,4.62656 121.5,3.5 Z"/></g>
<g><path style="opacity:1" fill="#f9f7fa" d="M 160.5,3.5 C 167.755,3.18678 174.921,3.52011 182,4.5C 183.586,11.0573 183.92,17.724 183,24.5C 182.535,25.9308 181.701,27.0975 180.5,28C 174.167,28.6667 167.833,28.6667 161.5,28C 160.584,27.6258 159.75,27.1258 159,26.5C 157.414,19.9427 157.08,13.276 158,6.5C 159.045,5.62656 159.878,4.62656 160.5,3.5 Z"/></g>
<g><path style="opacity:1" fill="#e30206" d="M 82.5,3.5 C 89.175,3.33375 95.8417,3.50042 102.5,4C 103.308,4.30762 103.975,4.80762 104.5,5.5C 105.626,11.7818 105.793,18.1151 105,24.5C 104.535,25.9308 103.701,27.0975 102.5,28C 96.1667,28.6667 89.8333,28.6667 83.5,28C 82.5838,27.6258 81.7504,27.1258 81,26.5C 79.4137,19.9427 79.0804,13.276 80,6.5C 81.045,5.62656 81.8783,4.62656 82.5,3.5 Z"/></g>
<g><path style="opacity:1" fill="#faf9fb" d="M 3.5,44.5 C 11.0871,44.1858 18.5871,44.5192 26,45.5C 27.5863,52.0573 27.9196,58.724 27,65.5C 26.6258,66.4162 26.1258,67.2496 25.5,68C 17.9201,68.8132 10.4201,68.6466 3,67.5C 1.91099,63.9516 1.41099,60.285 1.5,56.5C 1.2822,52.2784 1.94886,48.2784 3.5,44.5 Z"/></g>
<g><path style="opacity:1" fill="#faf9fb" d="M 42.5,44.5 C 50.0871,44.1858 57.5871,44.5192 65,45.5C 66.5863,52.0573 66.9196,58.724 66,65.5C 65.6258,66.4162 65.1258,67.2496 64.5,68C 56.9201,68.8132 49.4201,68.6466 42,67.5C 40.911,63.9516 40.411,60.285 40.5,56.5C 40.2822,52.2784 40.9489,48.2784 42.5,44.5 Z"/></g>
<g><path style="opacity:1" fill="#e40104" d="M 81.5,44.5 C 89.0871,44.1858 96.5871,44.5192 104,45.5C 105.586,52.0573 105.92,58.724 105,65.5C 104.626,66.4162 104.126,67.2496 103.5,68C 96.5,68.6667 89.5,68.6667 82.5,68C 81.6919,67.6924 81.0253,67.1924 80.5,66.5C 78.9164,59.0148 79.2498,51.6814 81.5,44.5 Z"/></g>
<g><path style="opacity:1" fill="#fbfafb" d="M 120.5,44.5 C 128.087,44.1858 135.587,44.5192 143,45.5C 144.586,52.0573 144.92,58.724 144,65.5C 143.626,66.4162 143.126,67.2496 142.5,68C 135.5,68.6667 128.5,68.6667 121.5,68C 120.692,67.6924 120.025,67.1924 119.5,66.5C 117.916,59.0148 118.25,51.6814 120.5,44.5 Z"/></g>
<g><path style="opacity:1" fill="#fbfafb" d="M 159.5,44.5 C 167.087,44.1858 174.587,44.5192 182,45.5C 183.586,52.0573 183.92,58.724 183,65.5C 182.626,66.4162 182.126,67.2496 181.5,68C 174.5,68.6667 167.5,68.6667 160.5,68C 159.692,67.6924 159.025,67.1924 158.5,66.5C 156.916,59.0148 157.25,51.6814 159.5,44.5 Z"/></g>
<g><path style="opacity:1" fill="#e30105" d="M 5.5,84.5 C 11.5092,84.3338 17.5092,84.5005 23.5,85C 24.4162,85.3742 25.2496,85.8742 26,86.5C 27.5863,93.0573 27.9196,99.724 27,106.5C 26.1667,107.333 25.3333,108.167 24.5,109C 17.8333,109.667 11.1667,109.667 4.5,109C 3.66667,108.167 2.83333,107.333 2,106.5C 1.33333,100.5 1.33333,94.5 2,88.5C 2.68972,86.6498 3.85639,85.3164 5.5,84.5 Z"/></g>
<g><path style="opacity:1" fill="#f9f8fa" d="M 44.5,84.5 C 50.5092,84.3338 56.5092,84.5005 62.5,85C 63.9308,85.4652 65.0975,86.2986 66,87.5C 66.6667,93.8333 66.6667,100.167 66,106.5C 65.1667,107.333 64.3333,108.167 63.5,109C 56.8333,109.667 50.1667,109.667 43.5,109C 42.6667,108.167 41.8333,107.333 41,106.5C 40.3333,100.167 40.3333,93.8333 41,87.5C 42.1451,86.3636 43.3117,85.3636 44.5,84.5 Z"/></g>
<g><path style="opacity:1" fill="#e30105" d="M 83.5,84.5 C 89.5092,84.3338 95.5092,84.5005 101.5,85C 102.931,85.4652 104.097,86.2986 105,87.5C 105.667,93.8333 105.667,100.167 105,106.5C 104.167,107.333 103.333,108.167 102.5,109C 95.8333,109.667 89.1667,109.667 82.5,109C 81.6667,108.167 80.8333,107.333 80,106.5C 79.3333,100.167 79.3333,93.8333 80,87.5C 81.1451,86.3636 82.3117,85.3636 83.5,84.5 Z"/></g>
<g><path style="opacity:1" fill="#f9f8fa" d="M 122.5,84.5 C 128.509,84.3338 134.509,84.5005 140.5,85C 141.931,85.4652 143.097,86.2986 144,87.5C 144.667,93.8333 144.667,100.167 144,106.5C 143.692,107.308 143.192,107.975 142.5,108.5C 135.55,109.63 128.55,109.797 121.5,109C 120.667,108.167 119.833,107.333 119,106.5C 118.333,100.167 118.333,93.8333 119,87.5C 120.145,86.3636 121.312,85.3636 122.5,84.5 Z"/></g>
<g><path style="opacity:1" fill="#e30205" d="M 161.5,84.5 C 167.509,84.3338 173.509,84.5005 179.5,85C 180.931,85.4652 182.097,86.2986 183,87.5C 183.667,93.8333 183.667,100.167 183,106.5C 182.692,107.308 182.192,107.975 181.5,108.5C 174.55,109.63 167.55,109.797 160.5,109C 159.667,108.167 158.833,107.333 158,106.5C 157.333,100.5 157.333,94.5 158,88.5C 158.69,86.6498 159.856,85.3164 161.5,84.5 Z"/></g>
<g><path style="opacity:1" fill="#f9f8fa" d="M 4.5,125.5 C 11.175,125.334 17.8417,125.5 24.5,126C 25.3333,126.833 26.1667,127.667 27,128.5C 27.6667,134.5 27.6667,140.5 27,146.5C 26.5348,147.931 25.7014,149.097 24.5,150C 17.8333,150.667 11.1667,150.667 4.5,150C 3.66667,149.167 2.83333,148.333 2,147.5C 1.33333,141.167 1.33333,134.833 2,128.5C 3.04499,127.627 3.87833,126.627 4.5,125.5 Z"/></g>
<g><path style="opacity:1" fill="#e30105" d="M 43.5,125.5 C 50.175,125.334 56.8417,125.5 63.5,126C 64.3333,126.833 65.1667,127.667 66,128.5C 66.6667,134.5 66.6667,140.5 66,146.5C 65.5348,147.931 64.7014,149.097 63.5,150C 57.1667,150.667 50.8333,150.667 44.5,150C 43.0692,149.535 41.9025,148.701 41,147.5C 40.3333,141.167 40.3333,134.833 41,128.5C 42.045,127.627 42.8783,126.627 43.5,125.5 Z"/></g>
<g><path style="opacity:1" fill="#e30105" d="M 82.5,125.5 C 89.175,125.334 95.8417,125.5 102.5,126C 103.333,126.833 104.167,127.667 105,128.5C 105.667,134.5 105.667,140.5 105,146.5C 104.535,147.931 103.701,149.097 102.5,150C 96.1667,150.667 89.8333,150.667 83.5,150C 82.0692,149.535 80.9025,148.701 80,147.5C 79.3333,141.167 79.3333,134.833 80,128.5C 81.045,127.627 81.8783,126.627 82.5,125.5 Z"/></g>
<g><path style="opacity:1" fill="#e30105" d="M 121.5,125.5 C 128.175,125.334 134.842,125.5 141.5,126C 142.333,126.833 143.167,127.667 144,128.5C 144.667,134.5 144.667,140.5 144,146.5C 143.535,147.931 142.701,149.097 141.5,150C 135.167,150.667 128.833,150.667 122.5,150C 121.069,149.535 119.903,148.701 119,147.5C 118.333,141.167 118.333,134.833 119,128.5C 120.045,127.627 120.878,126.627 121.5,125.5 Z"/></g>
<g><path style="opacity:1" fill="#f9f8fa" d="M 160.5,125.5 C 167.175,125.334 173.842,125.5 180.5,126C 181.333,126.833 182.167,127.667 183,128.5C 183.667,134.833 183.667,141.167 183,147.5C 182.167,148.333 181.333,149.167 180.5,150C 174.167,150.667 167.833,150.667 161.5,150C 160.069,149.535 158.903,148.701 158,147.5C 157.333,141.167 157.333,134.833 158,128.5C 159.045,127.627 159.878,126.627 160.5,125.5 Z"/></g>
<g><path style="opacity:1" fill="#f8f6f9" d="M 4.5,166.5 C 11.7546,166.187 18.9213,166.52 26,167.5C 27.5863,174.057 27.9196,180.724 27,187.5C 26.5348,188.931 25.7014,190.097 24.5,191C 18.1667,191.667 11.8333,191.667 5.5,191C 4.58377,190.626 3.75044,190.126 3,189.5C 1.41372,182.943 1.08039,176.276 2,169.5C 2.69794,168.309 3.53128,167.309 4.5,166.5 Z"/></g>
<g><path style="opacity:1" fill="#f8f6f9" d="M 43.5,166.5 C 50.7546,166.187 57.9213,166.52 65,167.5C 66.5863,174.057 66.9196,180.724 66,187.5C 65.5348,188.931 64.7014,190.097 63.5,191C 57.1667,191.667 50.8333,191.667 44.5,191C 43.5838,190.626 42.7504,190.126 42,189.5C 40.4137,182.943 40.0804,176.276 41,169.5C 41.6979,168.309 42.5313,167.309 43.5,166.5 Z"/></g>
<g><path style="opacity:1" fill="#e20207" d="M 82.5,166.5 C 89.7546,166.187 96.9213,166.52 104,167.5C 105.586,174.057 105.92,180.724 105,187.5C 104.535,188.931 103.701,190.097 102.5,191C 96.1667,191.667 89.8333,191.667 83.5,191C 82.5838,190.626 81.7504,190.126 81,189.5C 79.4137,182.943 79.0804,176.276 80,169.5C 80.6979,168.309 81.5313,167.309 82.5,166.5 Z"/></g>
<g><path style="opacity:1" fill="#f8f7f9" d="M 121.5,166.5 C 128.755,166.187 135.921,166.52 143,167.5C 144.586,174.057 144.92,180.724 144,187.5C 143.535,188.931 142.701,190.097 141.5,191C 135.167,191.667 128.833,191.667 122.5,191C 121.584,190.626 120.75,190.126 120,189.5C 118.414,182.943 118.08,176.276 119,169.5C 120.045,168.627 120.878,167.627 121.5,166.5 Z"/></g>
<g><path style="opacity:1" fill="#f8f7f9" d="M 160.5,166.5 C 167.755,166.187 174.921,166.52 182,167.5C 183.586,174.057 183.92,180.724 183,187.5C 182.535,188.931 181.701,190.097 180.5,191C 174.167,191.667 167.833,191.667 161.5,191C 160.584,190.626 159.75,190.126 159,189.5C 157.414,182.943 157.08,176.276 158,169.5C 159.045,168.627 159.878,167.627 160.5,166.5 Z"/></g>
</svg>
