<?xml version="1.0" encoding="UTF-8"?>
<!DOCTYPE svg PUBLIC "-//W3C//DTD SVG 1.1//EN" "http://www.w3.org/Graphics/SVG/1.1/DTD/svg11.dtd">
<svg xmlns="http://www.w3.org/2000/svg" version="1.1" width="187px" height="197px" style="shape-rendering:geometricPrecision; text-rendering:geometricPrecision; image-rendering:optimizeQuality; fill-rule:evenodd; clip-rule:evenodd" xmlns:xlink="http://www.w3.org/1999/xlink">
<g><path style="opacity:1" fill="#592d72" d="M -0.5,-0.5 C 61.8333,-0.5 124.167,-0.5 186.5,-0.5C 186.5,65.1667 186.5,130.833 186.5,196.5C 124.167,196.5 61.8333,196.5 -0.5,196.5C -0.5,130.833 -0.5,65.1667 -0.5,-0.5 Z"/></g>
<g><path style="opacity:1" fill="#e30206" d="M 7.5,4.5 C 13.5092,4.33385 19.5092,4.50051 25.5,5C 26.4162,5.37424 27.2496,5.87424 28,6.5C 29.5863,13.0573 29.9196,19.724 29,26.5C 28.1667,27.3333 27.3333,28.1667 26.5,29C 19.2529,29.8123 12.0862,29.6456 5,28.5C 3.40942,21.608 3.07608,14.608 4,7.5C 5.14508,6.36362 6.31174,5.36362 7.5,4.5 Z"/></g>
<g><path style="opacity:1" fill="#e30206" d="M 46.5,4.5 C 52.5092,4.33385 58.5092,4.50051 64.5,5C 65.4162,5.37424 66.2496,5.87424 67,6.5C 68.5863,13.0573 68.9196,19.724 68,26.5C 67.1667,27.3333 66.3333,28.1667 65.5,29C 58.2529,29.8123 51.0862,29.6456 44,28.5C 42.4094,21.608 42.0761,14.608 43,7.5C 44.1451,6.36362 45.3117,5.36362 46.5,4.5 Z"/></g>
<g><path style="opacity:1" fill="#e30206" d="M 85.5,4.5 C 91.5092,4.33385 97.5092,4.50051 103.5,5C 104.416,5.37424 105.25,5.87424 106,6.5C 107.586,13.0573 107.92,19.724 107,26.5C 106.167,27.3333 105.333,28.1667 104.5,29C 97.2529,29.8123 90.0862,29.6456 83,28.5C 81.4094,21.608 81.0761,14.608 82,7.5C 83.1451,6.36362 84.3117,5.36362 85.5,4.5 Z"/></g>
<g><path style="opacity:1" fill="#e30206" d="M 124.5,4.5 C 130.509,4.33385 136.509,4.50051 142.5,5C 143.416,5.37424 144.25,5.87424 145,6.5C 146.586,13.0573 146.92,19.724 146,26.5C 145.167,27.3333 144.333,28.1667 143.5,29C 136.253,29.8123 129.086,29.6456 122,28.5C 120.409,21.608 120.076,14.608 121,7.5C 122.145,6.36362 123.312,5.36362 124.5,4.5 Z"/></g>
<g><path style="opacity:1" fill="#e30205" d="M 163.5,4.5 C 169.509,4.33385 175.509,4.50051 181.5,5C 182.416,5.37424 183.25,5.87424 184,6.5C 185.586,13.0573 185.92,19.724 185,26.5C 184.167,27.3333 183.333,28.1667 182.5,29C 175.833,29.6667 169.167,29.6667 162.5,29C 161.692,28.6924 161.025,28.1924 160.5,27.5C 159.374,21.2182 159.207,14.8849 160,8.5C 160.69,6.64977 161.856,5.31643 163.5,4.5 Z"/></g>
<g><path style="opacity:1" fill="#faf8fa" d="M 6.5,45.5 C 13.175,45.3337 19.8417,45.5004 26.5,46C 27.3333,46.8333 28.1667,47.6667 29,48.5C 29.6667,54.5 29.6667,60.5 29,66.5C 28.6258,67.4162 28.1258,68.2496 27.5,69C 20.608,70.5906 13.608,70.9239 6.5,70C 5.66667,69.1667 4.83333,68.3333 4,67.5C 3.33333,61.1667 3.33333,54.8333 4,48.5C 5.04499,47.6266 5.87833,46.6266 6.5,45.5 Z"/></g>
<g><path style="opacity:1" fill="#faf8fa" d="M 45.5,45.5 C 52.175,45.3337 58.8417,45.5004 65.5,46C 66.3333,46.8333 67.1667,47.6667 68,48.5C 68.6667,54.5 68.6667,60.5 68,66.5C 67.6258,67.4162 67.1258,68.2496 66.5,69C 59.608,70.5906 52.608,70.9239 45.5,70C 44.6667,69.1667 43.8333,68.3333 43,67.5C 42.3333,61.1667 42.3333,54.8333 43,48.5C 44.045,47.6266 44.8783,46.6266 45.5,45.5 Z"/></g>
<g><path style="opacity:1" fill="#faf8fa" d="M 84.5,45.5 C 91.175,45.3337 97.8417,45.5004 104.5,46C 105.333,46.8333 106.167,47.6667 107,48.5C 107.667,54.5 107.667,60.5 107,66.5C 106.626,67.4162 106.126,68.2496 105.5,69C 98.608,70.5906 91.608,70.9239 84.5,70C 83.6667,69.1667 82.8333,68.3333 82,67.5C 81.3333,61.1667 81.3333,54.8333 82,48.5C 83.045,47.6266 83.8783,46.6266 84.5,45.5 Z"/></g>
<g><path style="opacity:1" fill="#faf8fa" d="M 123.5,45.5 C 130.175,45.3337 136.842,45.5004 143.5,46C 144.333,46.8333 145.167,47.6667 146,48.5C 146.667,54.5 146.667,60.5 146,66.5C 145.626,67.4162 145.126,68.2496 144.5,69C 137.608,70.5906 130.608,70.9239 123.5,70C 122.667,69.1667 121.833,68.3333 121,67.5C 120.333,61.1667 120.333,54.8333 121,48.5C 122.045,47.6266 122.878,46.6266 123.5,45.5 Z"/></g>
<g><path style="opacity:1" fill="#faf8fa" d="M 162.5,45.5 C 169.175,45.3337 175.842,45.5004 182.5,46C 183.333,46.8333 184.167,47.6667 185,48.5C 185.667,54.5 185.667,60.5 185,66.5C 184.626,67.4162 184.126,68.2496 183.5,69C 176.608,70.5906 169.608,70.9239 162.5,70C 161.667,69.1667 160.833,68.3333 160,67.5C 159.333,61.1667 159.333,54.8333 160,48.5C 161.045,47.6266 161.878,46.6266 162.5,45.5 Z"/></g>
<g><path style="opacity:1" fill="#f9f7fa" d="M 5.5,86.5 C 12.5079,86.3337 19.5079,86.5004 26.5,87C 27.3333,87.8333 28.1667,88.6667 29,89.5C 29.6667,95.5 29.6667,101.5 29,107.5C 28.6258,108.416 28.1258,109.25 27.5,110C 20.608,111.591 13.608,111.924 6.5,111C 5.66667,110.167 4.83333,109.333 4,108.5C 3.33333,102.167 3.33333,95.8333 4,89.5C 4.51328,88.4734 5.01328,87.4734 5.5,86.5 Z"/></g>
<g><path style="opacity:1" fill="#e30206" d="M 44.5,86.5 C 51.5079,86.3337 58.5079,86.5004 65.5,87C 66.3333,87.8333 67.1667,88.6667 68,89.5C 68.6667,95.5 68.6667,101.5 68,107.5C 67.6258,108.416 67.1258,109.25 66.5,110C 59.608,111.591 52.608,111.924 45.5,111C 45,110.5 44.5,110 44,109.5C 42.911,105.952 42.411,102.285 42.5,98.5C 42.2822,94.2784 42.9489,90.2784 44.5,86.5 Z"/></g>
<g><path style="opacity:1" fill="#e30206" d="M 83.5,86.5 C 90.5079,86.3337 97.5079,86.5004 104.5,87C 105.333,87.8333 106.167,88.6667 107,89.5C 107.667,95.5 107.667,101.5 107,107.5C 106.626,108.416 106.126,109.25 105.5,110C 98.608,111.591 91.608,111.924 84.5,111C 84,110.5 83.5,110 83,109.5C 81.911,105.952 81.411,102.285 81.5,98.5C 81.2822,94.2784 81.9489,90.2784 83.5,86.5 Z"/></g>
<g><path style="opacity:1" fill="#e30206" d="M 122.5,86.5 C 129.508,86.3337 136.508,86.5004 143.5,87C 144.333,87.8333 145.167,88.6667 146,89.5C 146.667,95.5 146.667,101.5 146,107.5C 145.626,108.416 145.126,109.25 144.5,110C 137.608,111.591 130.608,111.924 123.5,111C 123,110.5 122.5,110 122,109.5C 120.911,105.952 120.411,102.285 120.5,98.5C 120.282,94.2784 120.949,90.2784 122.5,86.5 Z"/></g>
<g><path style="opacity:1" fill="#f9f7f9" d="M 161.5,86.5 C 168.508,86.3337 175.508,86.5004 182.5,87C 183.308,87.3076 183.975,87.8076 184.5,88.5C 185.626,94.7818 185.793,101.115 185,107.5C 184.626,108.416 184.126,109.25 183.5,110C 176.608,111.591 169.608,111.924 162.5,111C 162,110.5 161.5,110 161,109.5C 159.911,105.952 159.411,102.285 159.5,98.5C 159.282,94.2784 159.949,90.2784 161.5,86.5 Z"/></g>
<g><path style="opacity:1" fill="#f8f7f9" d="M 6.5,126.5 C 12.8421,126.334 19.1754,126.5 25.5,127C 26.4162,127.374 27.2496,127.874 28,128.5C 29.5863,135.057 29.9196,141.724 29,148.5C 28.1667,149.333 27.3333,150.167 26.5,151C 19.2529,151.812 12.0862,151.646 5,150.5C 3.40942,143.608 3.07608,136.608 4,129.5C 5.04499,128.627 5.87833,127.627 6.5,126.5 Z"/></g>
<g><path style="opacity:1" fill="#f8f7f9" d="M 45.5,126.5 C 51.8421,126.334 58.1754,126.5 64.5,127C 65.4162,127.374 66.2496,127.874 67,128.5C 68.5863,135.057 68.9196,141.724 68,148.5C 67.1667,149.333 66.3333,150.167 65.5,151C 58.2529,151.812 51.0862,151.646 44,150.5C 42.4094,143.608 42.0761,136.608 43,129.5C 44.045,128.627 44.8783,127.627 45.5,126.5 Z"/></g>
<g><path style="opacity:1" fill="#f9f7f9" d="M 85.5,126.5 C 91.5092,126.334 97.5092,126.501 103.5,127C 104.416,127.374 105.25,127.874 106,128.5C 107.586,135.057 107.92,141.724 107,148.5C 106.167,149.333 105.333,150.167 104.5,151C 97.2529,151.812 90.0862,151.646 83,150.5C 81.4137,143.943 81.0804,137.276 82,130.5C 82.6897,128.65 83.8564,127.316 85.5,126.5 Z"/></g>
<g><path style="opacity:1" fill="#f8f7f9" d="M 124.5,126.5 C 130.509,126.334 136.509,126.501 142.5,127C 143.416,127.374 144.25,127.874 145,128.5C 146.586,135.057 146.92,141.724 146,148.5C 145.692,149.308 145.192,149.975 144.5,150.5C 136.97,151.82 129.47,151.82 122,150.5C 120.414,143.943 120.08,137.276 121,130.5C 121.69,128.65 122.856,127.316 124.5,126.5 Z"/></g>
<g><path style="opacity:1" fill="#f8f7f9" d="M 163.5,126.5 C 169.509,126.334 175.509,126.501 181.5,127C 182.416,127.374 183.25,127.874 184,128.5C 185.586,135.057 185.92,141.724 185,148.5C 184.692,149.308 184.192,149.975 183.5,150.5C 175.97,151.82 168.47,151.82 161,150.5C 159.414,143.943 159.08,137.276 160,130.5C 160.69,128.65 161.856,127.316 163.5,126.5 Z"/></g>
<g><path style="opacity:1" fill="#faf8fa" d="M 6.5,167.5 C 12.8421,167.334 19.1754,167.5 25.5,168C 26.4162,168.374 27.2496,168.874 28,169.5C 29.5863,176.057 29.9196,182.724 29,189.5C 28.1667,190.333 27.3333,191.167 26.5,192C 19.8333,192.667 13.1667,192.667 6.5,192C 5.69194,191.692 5.02527,191.192 4.5,190.5C 3.37184,183.884 3.20517,177.218 4,170.5C 5.04499,169.627 5.87833,168.627 6.5,167.5 Z"/></g>
<g><path style="opacity:1" fill="#faf8fa" d="M 45.5,167.5 C 51.8421,167.334 58.1754,167.5 64.5,168C 65.4162,168.374 66.2496,168.874 67,169.5C 68.5863,176.057 68.9196,182.724 68,189.5C 67.1667,190.333 66.3333,191.167 65.5,192C 58.8333,192.667 52.1667,192.667 45.5,192C 44.6919,191.692 44.0253,191.192 43.5,190.5C 42.3718,183.884 42.2052,177.218 43,170.5C 44.045,169.627 44.8783,168.627 45.5,167.5 Z"/></g>
<g><path style="opacity:1" fill="#e30105" d="M 84.5,167.5 C 90.8421,167.334 97.1754,167.5 103.5,168C 104.416,168.374 105.25,168.874 106,169.5C 107.586,176.057 107.92,182.724 107,189.5C 106.167,190.333 105.333,191.167 104.5,192C 97.8333,192.667 91.1667,192.667 84.5,192C 83.6919,191.692 83.0253,191.192 82.5,190.5C 81.3718,183.884 81.2052,177.218 82,170.5C 83.045,169.627 83.8783,168.627 84.5,167.5 Z"/></g>
<g><path style="opacity:1" fill="#faf8fa" d="M 123.5,167.5 C 129.842,167.334 136.175,167.5 142.5,168C 143.416,168.374 144.25,168.874 145,169.5C 146.586,176.057 146.92,182.724 146,189.5C 145.167,190.333 144.333,191.167 143.5,192C 136.833,192.667 130.167,192.667 123.5,192C 122.667,191.167 121.833,190.333 121,189.5C 120.333,183.167 120.333,176.833 121,170.5C 122.045,169.627 122.878,168.627 123.5,167.5 Z"/></g>
<g><path style="opacity:1" fill="#faf8fa" d="M 162.5,167.5 C 168.842,167.334 175.175,167.5 181.5,168C 182.416,168.374 183.25,168.874 184,169.5C 185.586,176.057 185.92,182.724 185,189.5C 184.167,190.333 183.333,191.167 182.5,192C 175.833,192.667 169.167,192.667 162.5,192C 161.667,191.167 160.833,190.333 160,189.5C 159.333,183.167 159.333,176.833 160,170.5C 161.045,169.627 161.878,168.627 162.5,167.5 Z"/></g>
</svg>
