<?xml version="1.0" encoding="UTF-8"?>
<!DOCTYPE svg PUBLIC "-//W3C//DTD SVG 1.1//EN" "http://www.w3.org/Graphics/SVG/1.1/DTD/svg11.dtd">
<svg xmlns="http://www.w3.org/2000/svg" version="1.1" width="187px" height="195px" style="shape-rendering:geometricPrecision; text-rendering:geometricPrecision; image-rendering:optimizeQuality; fill-rule:evenodd; clip-rule:evenodd" xmlns:xlink="http://www.w3.org/1999/xlink">
<g><path style="opacity:1" fill="#592d72" d="M -0.5,-0.5 C 61.8333,-0.5 124.167,-0.5 186.5,-0.5C 186.5,64.5 186.5,129.5 186.5,194.5C 124.167,194.5 61.8333,194.5 -0.5,194.5C -0.5,129.5 -0.5,64.5 -0.5,-0.5 Z"/></g>
<g><path style="opacity:1" fill="#f9f7fa" d="M 5.5,2.5 C 11.8421,2.33379 18.1754,2.50046 24.5,3C 25.4162,3.37424 26.2496,3.87424 27,4.5C 28.5863,11.0573 28.9196,17.724 28,24.5C 27.1667,25.3333 26.3333,26.1667 25.5,27C 18.2529,27.8123 11.0862,27.6456 4,26.5C 2.40942,19.608 2.07608,12.608 3,5.5C 4.04499,4.62656 4.87833,3.62656 5.5,2.5 Z"/></g>
<g><path style="opacity:1" fill="#f9f7fa" d="M 44.5,2.5 C 50.8421,2.33379 57.1754,2.50046 63.5,3C 64.4162,3.37424 65.2496,3.87424 66,4.5C 67.5863,11.0573 67.9196,17.724 67,24.5C 66.1667,25.3333 65.3333,26.1667 64.5,27C 57.2529,27.8123 50.0862,27.6456 43,26.5C 41.4094,19.608 41.0761,12.608 42,5.5C 43.045,4.62656 43.8783,3.62656 44.5,2.5 Z"/></g>
<g><path style="opacity:1" fill="#e30206" d="M 84.5,2.5 C 90.5092,2.33385 96.5092,2.50051 102.5,3C 103.416,3.37424 104.25,3.87424 105,4.5C 106.586,11.0573 106.92,17.724 106,24.5C 105.167,25.3333 104.333,26.1667 103.5,27C 96.2529,27.8123 89.0862,27.6456 82,26.5C 80.4094,19.608 80.0761,12.608 81,5.5C 82.1451,4.36362 83.3117,3.36362 84.5,2.5 Z"/></g>
<g><path style="opacity:1" fill="#f9f7fa" d="M 123.5,2.5 C 129.509,2.33385 135.509,2.50051 141.5,3C 142.416,3.37424 143.25,3.87424 144,4.5C 145.586,11.0573 145.92,17.724 145,24.5C 144.167,25.3333 143.333,26.1667 142.5,27C 135.253,27.8123 128.086,27.6456 121,26.5C 119.409,19.608 119.076,12.608 120,5.5C 121.145,4.36362 122.312,3.36362 123.5,2.5 Z"/></g>
<g><path style="opacity:1" fill="#f9f7fa" d="M 162.5,2.5 C 168.509,2.33385 174.509,2.50051 180.5,3C 181.416,3.37424 182.25,3.87424 183,4.5C 184.586,11.0573 184.92,17.724 184,24.5C 183.167,25.3333 182.333,26.1667 181.5,27C 174.253,27.8123 167.086,27.6456 160,26.5C 158.409,19.608 158.076,12.608 159,5.5C 160.145,4.36362 161.312,3.36362 162.5,2.5 Z"/></g>
<g><path style="opacity:1" fill="#faf8fa" d="M 5.5,43.5 C 12.175,43.3337 18.8417,43.5004 25.5,44C 26.3333,44.8333 27.1667,45.6667 28,46.5C 28.6667,52.5 28.6667,58.5 28,64.5C 27.6258,65.4162 27.1258,66.2496 26.5,67C 19.608,68.5906 12.608,68.9239 5.5,68C 4.66667,67.1667 3.83333,66.3333 3,65.5C 2.33333,59.1667 2.33333,52.8333 3,46.5C 4.04499,45.6266 4.87833,44.6266 5.5,43.5 Z"/></g>
<g><path style="opacity:1" fill="#e30104" d="M 44.5,43.5 C 51.175,43.3337 57.8417,43.5004 64.5,44C 65.3333,44.8333 66.1667,45.6667 67,46.5C 67.6667,52.5 67.6667,58.5 67,64.5C 66.6258,65.4162 66.1258,66.2496 65.5,67C 58.608,68.5906 51.608,68.9239 44.5,68C 43.6667,67.1667 42.8333,66.3333 42,65.5C 41.3333,59.1667 41.3333,52.8333 42,46.5C 43.045,45.6266 43.8783,44.6266 44.5,43.5 Z"/></g>
<g><path style="opacity:1" fill="#faf8fa" d="M 83.5,43.5 C 90.175,43.3337 96.8417,43.5004 103.5,44C 104.333,44.8333 105.167,45.6667 106,46.5C 106.667,52.5 106.667,58.5 106,64.5C 105.626,65.4162 105.126,66.2496 104.5,67C 97.608,68.5906 90.608,68.9239 83.5,68C 82.6667,67.1667 81.8333,66.3333 81,65.5C 80.3333,59.1667 80.3333,52.8333 81,46.5C 82.045,45.6266 82.8783,44.6266 83.5,43.5 Z"/></g>
<g><path style="opacity:1" fill="#e30104" d="M 122.5,43.5 C 129.175,43.3337 135.842,43.5004 142.5,44C 143.333,44.8333 144.167,45.6667 145,46.5C 145.667,52.5 145.667,58.5 145,64.5C 144.626,65.4162 144.126,66.2496 143.5,67C 136.608,68.5906 129.608,68.9239 122.5,68C 121.667,67.1667 120.833,66.3333 120,65.5C 119.333,59.1667 119.333,52.8333 120,46.5C 121.045,45.6266 121.878,44.6266 122.5,43.5 Z"/></g>
<g><path style="opacity:1" fill="#faf8fa" d="M 161.5,43.5 C 168.175,43.3337 174.842,43.5004 181.5,44C 182.333,44.8333 183.167,45.6667 184,46.5C 184.667,52.5 184.667,58.5 184,64.5C 183.626,65.4162 183.126,66.2496 182.5,67C 175.608,68.5906 168.608,68.9239 161.5,68C 160.667,67.1667 159.833,66.3333 159,65.5C 158.333,59.1667 158.333,52.8333 159,46.5C 160.045,45.6266 160.878,44.6266 161.5,43.5 Z"/></g>
<g><path style="opacity:1" fill="#e30206" d="M 4.5,84.5 C 11.5079,84.3337 18.5079,84.5004 25.5,85C 26.3333,85.8333 27.1667,86.6667 28,87.5C 28.6667,93.5 28.6667,99.5 28,105.5C 27.6258,106.416 27.1258,107.25 26.5,108C 19.608,109.591 12.608,109.924 5.5,109C 5,108.5 4.5,108 4,107.5C 2.91099,103.952 2.41099,100.285 2.5,96.5C 2.2822,92.2784 2.94886,88.2784 4.5,84.5 Z"/></g>
<g><path style="opacity:1" fill="#f9f7fa" d="M 43.5,84.5 C 50.5079,84.3337 57.5079,84.5004 64.5,85C 65.3333,85.8333 66.1667,86.6667 67,87.5C 67.6667,93.5 67.6667,99.5 67,105.5C 66.6258,106.416 66.1258,107.25 65.5,108C 58.608,109.591 51.608,109.924 44.5,109C 44,108.5 43.5,108 43,107.5C 41.911,103.952 41.411,100.285 41.5,96.5C 41.2822,92.2784 41.9489,88.2784 43.5,84.5 Z"/></g>
<g><path style="opacity:1" fill="#f9f7fa" d="M 82.5,84.5 C 89.5079,84.3337 96.5079,84.5004 103.5,85C 104.333,85.8333 105.167,86.6667 106,87.5C 106.667,93.5 106.667,99.5 106,105.5C 105.626,106.416 105.126,107.25 104.5,108C 97.608,109.591 90.608,109.924 83.5,109C 83,108.5 82.5,108 82,107.5C 80.911,103.952 80.411,100.285 80.5,96.5C 80.2822,92.2784 80.9489,88.2784 82.5,84.5 Z"/></g>
<g><path style="opacity:1" fill="#f9f7fa" d="M 121.5,84.5 C 128.508,84.3337 135.508,84.5004 142.5,85C 143.333,85.8333 144.167,86.6667 145,87.5C 145.667,93.5 145.667,99.5 145,105.5C 144.626,106.416 144.126,107.25 143.5,108C 136.608,109.591 129.608,109.924 122.5,109C 122,108.5 121.5,108 121,107.5C 119.911,103.952 119.411,100.285 119.5,96.5C 119.282,92.2784 119.949,88.2784 121.5,84.5 Z"/></g>
<g><path style="opacity:1" fill="#e30206" d="M 160.5,84.5 C 167.508,84.3337 174.508,84.5004 181.5,85C 182.333,85.8333 183.167,86.6667 184,87.5C 184.667,93.5 184.667,99.5 184,105.5C 183.626,106.416 183.126,107.25 182.5,108C 175.608,109.591 168.608,109.924 161.5,109C 161,108.5 160.5,108 160,107.5C 158.911,103.952 158.411,100.285 158.5,96.5C 158.282,92.2784 158.949,88.2784 160.5,84.5 Z"/></g>
<g><path style="opacity:1" fill="#f8f7f9" d="M 5.5,124.5 C 11.8421,124.334 18.1754,124.5 24.5,125C 25.4162,125.374 26.2496,125.874 27,126.5C 28.5863,133.057 28.9196,139.724 28,146.5C 27.1667,147.333 26.3333,148.167 25.5,149C 18.2529,149.812 11.0862,149.646 4,148.5C 2.40942,141.608 2.07608,134.608 3,127.5C 4.04499,126.627 4.87833,125.627 5.5,124.5 Z"/></g>
<g><path style="opacity:1" fill="#e20206" d="M 45.5,124.5 C 51.5092,124.334 57.5092,124.501 63.5,125C 64.4162,125.374 65.2496,125.874 66,126.5C 67.5863,133.057 67.9196,139.724 67,146.5C 66.1667,147.333 65.3333,148.167 64.5,149C 57.2529,149.812 50.0862,149.646 43,148.5C 41.4137,141.943 41.0804,135.276 42,128.5C 42.6897,126.65 43.8564,125.316 45.5,124.5 Z"/></g>
<g><path style="opacity:1" fill="#f9f7f9" d="M 84.5,124.5 C 90.5092,124.334 96.5092,124.501 102.5,125C 103.416,125.374 104.25,125.874 105,126.5C 106.586,133.057 106.92,139.724 106,146.5C 105.167,147.333 104.333,148.167 103.5,149C 96.2529,149.812 89.0862,149.646 82,148.5C 80.4137,141.943 80.0804,135.276 81,128.5C 81.6897,126.65 82.8564,125.316 84.5,124.5 Z"/></g>
<g><path style="opacity:1" fill="#e20206" d="M 123.5,124.5 C 129.509,124.334 135.509,124.501 141.5,125C 142.416,125.374 143.25,125.874 144,126.5C 145.586,133.057 145.92,139.724 145,146.5C 144.167,147.333 143.333,148.167 142.5,149C 135.253,149.812 128.086,149.646 121,148.5C 119.414,141.943 119.08,135.276 120,128.5C 120.69,126.65 121.856,125.316 123.5,124.5 Z"/></g>
<g><path style="opacity:1" fill="#f8f7f9" d="M 162.5,124.5 C 168.509,124.334 174.509,124.501 180.5,125C 181.416,125.374 182.25,125.874 183,126.5C 184.586,133.057 184.92,139.724 184,146.5C 183.692,147.308 183.192,147.975 182.5,148.5C 174.97,149.82 167.47,149.82 160,148.5C 158.414,141.943 158.08,135.276 159,128.5C 159.69,126.65 160.856,125.316 162.5,124.5 Z"/></g>
<g><path style="opacity:1" fill="#faf8fa" d="M 5.5,165.5 C 11.8421,165.334 18.1754,165.5 24.5,166C 25.4162,166.374 26.2496,166.874 27,167.5C 28.5863,174.057 28.9196,180.724 28,187.5C 27.1667,188.333 26.3333,189.167 25.5,190C 18.8333,190.667 12.1667,190.667 5.5,190C 4.69194,189.692 4.02527,189.192 3.5,188.5C 2.37184,181.884 2.20517,175.218 3,168.5C 4.04499,167.627 4.87833,166.627 5.5,165.5 Z"/></g>
<g><path style="opacity:1" fill="#faf8fa" d="M 44.5,165.5 C 50.8421,165.334 57.1754,165.5 63.5,166C 64.4162,166.374 65.2496,166.874 66,167.5C 67.5863,174.057 67.9196,180.724 67,187.5C 66.1667,188.333 65.3333,189.167 64.5,190C 57.8333,190.667 51.1667,190.667 44.5,190C 43.6919,189.692 43.0253,189.192 42.5,188.5C 41.3718,181.884 41.2052,175.218 42,168.5C 43.045,167.627 43.8783,166.627 44.5,165.5 Z"/></g>
<g><path style="opacity:1" fill="#e30105" d="M 83.5,165.5 C 89.8421,165.334 96.1754,165.5 102.5,166C 103.416,166.374 104.25,166.874 105,167.5C 106.586,174.057 106.92,180.724 106,187.5C 105.167,188.333 104.333,189.167 103.5,190C 96.8333,190.667 90.1667,190.667 83.5,190C 82.6919,189.692 82.0253,189.192 81.5,188.5C 80.3718,181.884 80.2052,175.218 81,168.5C 82.045,167.627 82.8783,166.627 83.5,165.5 Z"/></g>
<g><path style="opacity:1" fill="#faf8fa" d="M 122.5,165.5 C 128.842,165.334 135.175,165.5 141.5,166C 142.416,166.374 143.25,166.874 144,167.5C 145.586,174.057 145.92,180.724 145,187.5C 144.167,188.333 143.333,189.167 142.5,190C 135.833,190.667 129.167,190.667 122.5,190C 121.667,189.167 120.833,188.333 120,187.5C 119.333,181.167 119.333,174.833 120,168.5C 121.045,167.627 121.878,166.627 122.5,165.5 Z"/></g>
<g><path style="opacity:1" fill="#faf8fa" d="M 161.5,165.5 C 167.842,165.334 174.175,165.5 180.5,166C 181.416,166.374 182.25,166.874 183,167.5C 184.586,174.057 184.92,180.724 184,187.5C 183.167,188.333 182.333,189.167 181.5,190C 174.833,190.667 168.167,190.667 161.5,190C 160.667,189.167 159.833,188.333 159,187.5C 158.333,181.167 158.333,174.833 159,168.5C 160.045,167.627 160.878,166.627 161.5,165.5 Z"/></g>
</svg>
