<?xml version="1.0" encoding="UTF-8"?>
<!DOCTYPE svg PUBLIC "-//W3C//DTD SVG 1.1//EN" "http://www.w3.org/Graphics/SVG/1.1/DTD/svg11.dtd">
<svg xmlns="http://www.w3.org/2000/svg" version="1.1" width="186px" height="197px" style="shape-rendering:geometricPrecision; text-rendering:geometricPrecision; image-rendering:optimizeQuality; fill-rule:evenodd; clip-rule:evenodd" xmlns:xlink="http://www.w3.org/1999/xlink">
<g><path style="opacity:1" fill="#5a2e73" d="M -0.5,-0.5 C 61.5,-0.5 123.5,-0.5 185.5,-0.5C 185.5,65.1667 185.5,130.833 185.5,196.5C 123.5,196.5 61.5,196.5 -0.5,196.5C -0.5,130.833 -0.5,65.1667 -0.5,-0.5 Z"/></g>
<g><path style="opacity:1" fill="#f9f7fa" d="M 3.5,4.5 C 10.175,4.33375 16.8417,4.50042 23.5,5C 24.3081,5.30762 24.9747,5.80762 25.5,6.5C 26.626,12.7818 26.7927,19.1151 26,25.5C 25.5348,26.9308 24.7014,28.0975 23.5,29C 17.1667,29.6667 10.8333,29.6667 4.5,29C 3.58377,28.6258 2.75044,28.1258 2,27.5C 0.413721,20.9427 0.0803873,14.276 1,7.5C 1.69794,6.30943 2.53128,5.30943 3.5,4.5 Z"/></g>
<g><path style="opacity:1" fill="#f9f7fa" d="M 42.5,4.5 C 49.175,4.33375 55.8417,4.50042 62.5,5C 63.3081,5.30762 63.9747,5.80762 64.5,6.5C 65.626,12.7818 65.7927,19.1151 65,25.5C 64.5348,26.9308 63.7014,28.0975 62.5,29C 56.1667,29.6667 49.8333,29.6667 43.5,29C 42.5838,28.6258 41.7504,28.1258 41,27.5C 39.4137,20.9427 39.0804,14.276 40,7.5C 41.045,6.62656 41.8783,5.62656 42.5,4.5 Z"/></g>
<g><path style="opacity:1" fill="#f9f7fa" d="M 81.5,4.5 C 88.175,4.33375 94.8417,4.50042 101.5,5C 102.308,5.30762 102.975,5.80762 103.5,6.5C 104.626,12.7818 104.793,19.1151 104,25.5C 103.535,26.9308 102.701,28.0975 101.5,29C 95.1667,29.6667 88.8333,29.6667 82.5,29C 81.5838,28.6258 80.7504,28.1258 80,27.5C 78.4137,20.9427 78.0804,14.276 79,7.5C 80.045,6.62656 80.8783,5.62656 81.5,4.5 Z"/></g>
<g><path style="opacity:1" fill="#f9f7fa" d="M 120.5,4.5 C 127.175,4.33375 133.842,4.50042 140.5,5C 141.308,5.30762 141.975,5.80762 142.5,6.5C 143.626,12.7818 143.793,19.1151 143,25.5C 142.535,26.9308 141.701,28.0975 140.5,29C 134.167,29.6667 127.833,29.6667 121.5,29C 120.584,28.6258 119.75,28.1258 119,27.5C 117.414,20.9427 117.08,14.276 118,7.5C 119.045,6.62656 119.878,5.62656 120.5,4.5 Z"/></g>
<g><path style="opacity:1" fill="#f9f7fa" d="M 159.5,4.5 C 166.755,4.18678 173.921,4.52011 181,5.5C 182.586,12.0573 182.92,18.724 182,25.5C 181.535,26.9308 180.701,28.0975 179.5,29C 173.167,29.6667 166.833,29.6667 160.5,29C 159.584,28.6258 158.75,28.1258 158,27.5C 156.414,20.9427 156.08,14.276 157,7.5C 158.045,6.62656 158.878,5.62656 159.5,4.5 Z"/></g>
<g><path style="opacity:1" fill="#faf9fb" d="M 2.5,45.5 C 10.0871,45.1858 17.5871,45.5192 25,46.5C 26.5863,53.0573 26.9196,59.724 26,66.5C 25.6258,67.4162 25.1258,68.2496 24.5,69C 16.9201,69.8132 9.42006,69.6466 2,68.5C 0.910991,64.9516 0.410991,61.285 0.5,57.5C 0.282197,53.2784 0.948864,49.2784 2.5,45.5 Z"/></g>
<g><path style="opacity:1" fill="#faf9fb" d="M 41.5,45.5 C 49.0871,45.1858 56.5871,45.5192 64,46.5C 65.5863,53.0573 65.9196,59.724 65,66.5C 64.6258,67.4162 64.1258,68.2496 63.5,69C 55.9201,69.8132 48.4201,69.6466 41,68.5C 39.911,64.9516 39.411,61.285 39.5,57.5C 39.2822,53.2784 39.9489,49.2784 41.5,45.5 Z"/></g>
<g><path style="opacity:1" fill="#fbfafb" d="M 80.5,45.5 C 88.0871,45.1858 95.5871,45.5192 103,46.5C 104.586,53.0573 104.92,59.724 104,66.5C 103.626,67.4162 103.126,68.2496 102.5,69C 95.5,69.6667 88.5,69.6667 81.5,69C 80.6919,68.6924 80.0253,68.1924 79.5,67.5C 77.9164,60.0148 78.2498,52.6814 80.5,45.5 Z"/></g>
<g><path style="opacity:1" fill="#fbfafb" d="M 119.5,45.5 C 127.087,45.1858 134.587,45.5192 142,46.5C 143.586,53.0573 143.92,59.724 143,66.5C 142.626,67.4162 142.126,68.2496 141.5,69C 134.5,69.6667 127.5,69.6667 120.5,69C 119.692,68.6924 119.025,68.1924 118.5,67.5C 116.916,60.0148 117.25,52.6814 119.5,45.5 Z"/></g>
<g><path style="opacity:1" fill="#fbfafb" d="M 158.5,45.5 C 166.087,45.1858 173.587,45.5192 181,46.5C 182.586,53.0573 182.92,59.724 182,66.5C 181.626,67.4162 181.126,68.2496 180.5,69C 173.5,69.6667 166.5,69.6667 159.5,69C 158.692,68.6924 158.025,68.1924 157.5,67.5C 155.916,60.0148 156.25,52.6814 158.5,45.5 Z"/></g>
<g><path style="opacity:1" fill="#f9f8fa" d="M 4.5,85.5 C 10.5092,85.3338 16.5092,85.5005 22.5,86C 23.9308,86.4652 25.0975,87.2986 26,88.5C 26.6667,94.8333 26.6667,101.167 26,107.5C 25.1667,108.333 24.3333,109.167 23.5,110C 16.8333,110.667 10.1667,110.667 3.5,110C 2.66667,109.167 1.83333,108.333 1,107.5C 0.333333,101.167 0.333333,94.8333 1,88.5C 2.14508,87.3636 3.31174,86.3636 4.5,85.5 Z"/></g>
<g><path style="opacity:1" fill="#f9f8fa" d="M 43.5,85.5 C 49.5092,85.3338 55.5092,85.5005 61.5,86C 62.9308,86.4652 64.0975,87.2986 65,88.5C 65.6667,94.8333 65.6667,101.167 65,107.5C 64.1667,108.333 63.3333,109.167 62.5,110C 55.8333,110.667 49.1667,110.667 42.5,110C 41.6667,109.167 40.8333,108.333 40,107.5C 39.3333,101.167 39.3333,94.8333 40,88.5C 41.1451,87.3636 42.3117,86.3636 43.5,85.5 Z"/></g>
<g><path style="opacity:1" fill="#f9f8fa" d="M 82.5,85.5 C 88.5092,85.3338 94.5092,85.5005 100.5,86C 101.931,86.4652 103.097,87.2986 104,88.5C 104.667,94.8333 104.667,101.167 104,107.5C 103.692,108.308 103.192,108.975 102.5,109.5C 95.5505,110.63 88.5505,110.797 81.5,110C 80.6667,109.167 79.8333,108.333 79,107.5C 78.3333,101.167 78.3333,94.8333 79,88.5C 80.1451,87.3636 81.3117,86.3636 82.5,85.5 Z"/></g>
<g><path style="opacity:1" fill="#f9f8fa" d="M 121.5,85.5 C 127.509,85.3338 133.509,85.5005 139.5,86C 140.931,86.4652 142.097,87.2986 143,88.5C 143.667,94.8333 143.667,101.167 143,107.5C 142.692,108.308 142.192,108.975 141.5,109.5C 134.55,110.63 127.55,110.797 120.5,110C 119.667,109.167 118.833,108.333 118,107.5C 117.333,101.167 117.333,94.8333 118,88.5C 119.145,87.3636 120.312,86.3636 121.5,85.5 Z"/></g>
<g><path style="opacity:1" fill="#f9f8fa" d="M 160.5,85.5 C 166.509,85.3338 172.509,85.5005 178.5,86C 179.931,86.4652 181.097,87.2986 182,88.5C 182.667,94.8333 182.667,101.167 182,107.5C 181.692,108.308 181.192,108.975 180.5,109.5C 173.55,110.63 166.55,110.797 159.5,110C 158.667,109.167 157.833,108.333 157,107.5C 156.333,101.167 156.333,94.8333 157,88.5C 158.145,87.3636 159.312,86.3636 160.5,85.5 Z"/></g>
<g><path style="opacity:1" fill="#f9f8fa" d="M 3.5,126.5 C 10.175,126.334 16.8417,126.5 23.5,127C 24.3333,127.833 25.1667,128.667 26,129.5C 26.6667,135.5 26.6667,141.5 26,147.5C 25.5348,148.931 24.7014,150.097 23.5,151C 16.8333,151.667 10.1667,151.667 3.5,151C 2.66667,150.167 1.83333,149.333 1,148.5C 0.333333,142.167 0.333333,135.833 1,129.5C 2.04499,128.627 2.87833,127.627 3.5,126.5 Z"/></g>
<g><path style="opacity:1" fill="#f9f8fa" d="M 42.5,126.5 C 49.175,126.334 55.8417,126.5 62.5,127C 63.3333,127.833 64.1667,128.667 65,129.5C 65.6667,135.5 65.6667,141.5 65,147.5C 64.5348,148.931 63.7014,150.097 62.5,151C 56.1667,151.667 49.8333,151.667 43.5,151C 42.0692,150.535 40.9025,149.701 40,148.5C 39.3333,142.167 39.3333,135.833 40,129.5C 41.045,128.627 41.8783,127.627 42.5,126.5 Z"/></g>
<g><path style="opacity:1" fill="#f9f8fa" d="M 81.5,126.5 C 88.175,126.334 94.8417,126.5 101.5,127C 102.333,127.833 103.167,128.667 104,129.5C 104.667,135.833 104.667,142.167 104,148.5C 103.167,149.333 102.333,150.167 101.5,151C 95.1667,151.667 88.8333,151.667 82.5,151C 81.0692,150.535 79.9025,149.701 79,148.5C 78.3333,142.167 78.3333,135.833 79,129.5C 80.045,128.627 80.8783,127.627 81.5,126.5 Z"/></g>
<g><path style="opacity:1" fill="#f9f8fa" d="M 120.5,126.5 C 127.175,126.334 133.842,126.5 140.5,127C 141.333,127.833 142.167,128.667 143,129.5C 143.667,135.833 143.667,142.167 143,148.5C 142.167,149.333 141.333,150.167 140.5,151C 134.167,151.667 127.833,151.667 121.5,151C 120.069,150.535 118.903,149.701 118,148.5C 117.333,142.167 117.333,135.833 118,129.5C 119.045,128.627 119.878,127.627 120.5,126.5 Z"/></g>
<g><path style="opacity:1" fill="#f9f8fa" d="M 159.5,126.5 C 166.175,126.334 172.842,126.5 179.5,127C 180.333,127.833 181.167,128.667 182,129.5C 182.667,135.833 182.667,142.167 182,148.5C 181.167,149.333 180.333,150.167 179.5,151C 173.167,151.667 166.833,151.667 160.5,151C 159.069,150.535 157.903,149.701 157,148.5C 156.333,142.167 156.333,135.833 157,129.5C 158.045,128.627 158.878,127.627 159.5,126.5 Z"/></g>
<g><path style="opacity:1" fill="#f8f6f9" d="M 3.5,167.5 C 10.7546,167.187 17.9213,167.52 25,168.5C 26.5863,175.057 26.9196,181.724 26,188.5C 25.5348,189.931 24.7014,191.097 23.5,192C 17.1667,192.667 10.8333,192.667 4.5,192C 3.58377,191.626 2.75044,191.126 2,190.5C 0.413721,183.943 0.0803873,177.276 1,170.5C 1.69794,169.309 2.53128,168.309 3.5,167.5 Z"/></g>
<g><path style="opacity:1" fill="#f8f6f9" d="M 42.5,167.5 C 49.7546,167.187 56.9213,167.52 64,168.5C 65.5863,175.057 65.9196,181.724 65,188.5C 64.5348,189.931 63.7014,191.097 62.5,192C 56.1667,192.667 49.8333,192.667 43.5,192C 42.5838,191.626 41.7504,191.126 41,190.5C 39.4137,183.943 39.0804,177.276 40,170.5C 40.6979,169.309 41.5313,168.309 42.5,167.5 Z"/></g>
<g><path style="opacity:1" fill="#f8f6f9" d="M 81.5,167.5 C 88.7546,167.187 95.9213,167.52 103,168.5C 104.586,175.057 104.92,181.724 104,188.5C 103.535,189.931 102.701,191.097 101.5,192C 95.1667,192.667 88.8333,192.667 82.5,192C 81.5838,191.626 80.7504,191.126 80,190.5C 78.4137,183.943 78.0804,177.276 79,170.5C 79.6979,169.309 80.5313,168.309 81.5,167.5 Z"/></g>
<g><path style="opacity:1" fill="#f8f7f9" d="M 120.5,167.5 C 127.755,167.187 134.921,167.52 142,168.5C 143.586,175.057 143.92,181.724 143,188.5C 142.535,189.931 141.701,191.097 140.5,192C 134.167,192.667 127.833,192.667 121.5,192C 120.584,191.626 119.75,191.126 119,190.5C 117.414,183.943 117.08,177.276 118,170.5C 119.045,169.627 119.878,168.627 120.5,167.5 Z"/></g>
<g><path style="opacity:1" fill="#f8f7f9" d="M 159.5,167.5 C 166.755,167.187 173.921,167.52 181,168.5C 182.586,175.057 182.92,181.724 182,188.5C 181.535,189.931 180.701,191.097 179.5,192C 173.167,192.667 166.833,192.667 160.5,192C 159.584,191.626 158.75,191.126 158,190.5C 156.414,183.943 156.08,177.276 157,170.5C 158.045,169.627 158.878,168.627 159.5,167.5 Z"/></g>
</svg>
