<?xml version="1.0" encoding="UTF-8"?>
<!DOCTYPE svg PUBLIC "-//W3C//DTD SVG 1.1//EN" "http://www.w3.org/Graphics/SVG/1.1/DTD/svg11.dtd">
<svg xmlns="http://www.w3.org/2000/svg" version="1.1" width="186px" height="193px" style="shape-rendering:geometricPrecision; text-rendering:geometricPrecision; image-rendering:optimizeQuality; fill-rule:evenodd; clip-rule:evenodd" xmlns:xlink="http://www.w3.org/1999/xlink">
<g><path style="opacity:1" fill="#5a2e72" d="M -0.5,-0.5 C 61.5,-0.5 123.5,-0.5 185.5,-0.5C 185.5,63.8333 185.5,128.167 185.5,192.5C 123.5,192.5 61.5,192.5 -0.5,192.5C -0.5,128.167 -0.5,63.8333 -0.5,-0.5 Z"/></g>
<g><path style="opacity:1" fill="#f9f7fa" d="M 3.5,2.5 C 10.175,2.33375 16.8417,2.50042 23.5,3C 24.3081,3.30762 24.9747,3.80762 25.5,4.5C 26.626,10.7818 26.7927,17.1151 26,23.5C 25.5348,24.9308 24.7014,26.0975 23.5,27C 17.1667,27.6667 10.8333,27.6667 4.5,27C 3.58377,26.6258 2.75044,26.1258 2,25.5C 0.413721,18.9427 0.0803873,12.276 1,5.5C 1.69794,4.30943 2.53128,3.30943 3.5,2.5 Z"/></g>
<g><path style="opacity:1" fill="#f9f7fa" d="M 42.5,2.5 C 49.175,2.33375 55.8417,2.50042 62.5,3C 63.3081,3.30762 63.9747,3.80762 64.5,4.5C 65.626,10.7818 65.7927,17.1151 65,23.5C 64.5348,24.9308 63.7014,26.0975 62.5,27C 56.1667,27.6667 49.8333,27.6667 43.5,27C 42.5838,26.6258 41.7504,26.1258 41,25.5C 39.4137,18.9427 39.0804,12.276 40,5.5C 41.045,4.62656 41.8783,3.62656 42.5,2.5 Z"/></g>
<g><path style="opacity:1" fill="#f9f7fa" d="M 120.5,2.5 C 127.175,2.33375 133.842,2.50042 140.5,3C 141.308,3.30762 141.975,3.80762 142.5,4.5C 143.626,10.7818 143.793,17.1151 143,23.5C 142.535,24.9308 141.701,26.0975 140.5,27C 134.167,27.6667 127.833,27.6667 121.5,27C 120.584,26.6258 119.75,26.1258 119,25.5C 117.414,18.9427 117.08,12.276 118,5.5C 119.045,4.62656 119.878,3.62656 120.5,2.5 Z"/></g>
<g><path style="opacity:1" fill="#f9f7fa" d="M 159.5,2.5 C 166.755,2.18678 173.921,2.52011 181,3.5C 182.586,10.0573 182.92,16.724 182,23.5C 181.535,24.9308 180.701,26.0975 179.5,27C 173.167,27.6667 166.833,27.6667 160.5,27C 159.584,26.6258 158.75,26.1258 158,25.5C 156.414,18.9427 156.08,12.276 157,5.5C 158.045,4.62656 158.878,3.62656 159.5,2.5 Z"/></g>
<g><path style="opacity:1" fill="#e30206" d="M 81.5,2.5 C 88.175,2.33375 94.8417,2.50042 101.5,3C 102.308,3.30762 102.975,3.80762 103.5,4.5C 104.626,10.7818 104.793,17.1151 104,23.5C 103.535,24.9308 102.701,26.0975 101.5,27C 95.1667,27.6667 88.8333,27.6667 82.5,27C 81.5838,26.6258 80.7504,26.1258 80,25.5C 78.4137,18.9427 78.0804,12.276 79,5.5C 80.045,4.62656 80.8783,3.62656 81.5,2.5 Z"/></g>
<g><path style="opacity:1" fill="#faf9fb" d="M 2.5,43.5 C 10.0871,43.1858 17.5871,43.5192 25,44.5C 26.5863,51.0573 26.9196,57.724 26,64.5C 25.6258,65.4162 25.1258,66.2496 24.5,67C 16.9201,67.8132 9.42006,67.6466 2,66.5C 0.910991,62.9516 0.410991,59.285 0.5,55.5C 0.282197,51.2784 0.948864,47.2784 2.5,43.5 Z"/></g>
<g><path style="opacity:1" fill="#e40104" d="M 41.5,43.5 C 49.0871,43.1858 56.5871,43.5192 64,44.5C 65.5863,51.0573 65.9196,57.724 65,64.5C 64.6258,65.4162 64.1258,66.2496 63.5,67C 56.5,67.6667 49.5,67.6667 42.5,67C 41.6919,66.6924 41.0253,66.1924 40.5,65.5C 38.9164,58.0148 39.2498,50.6814 41.5,43.5 Z"/></g>
<g><path style="opacity:1" fill="#e40104" d="M 80.5,43.5 C 88.0871,43.1858 95.5871,43.5192 103,44.5C 104.586,51.0573 104.92,57.724 104,64.5C 103.626,65.4162 103.126,66.2496 102.5,67C 95.5,67.6667 88.5,67.6667 81.5,67C 80.6919,66.6924 80.0253,66.1924 79.5,65.5C 77.9164,58.0148 78.2498,50.6814 80.5,43.5 Z"/></g>
<g><path style="opacity:1" fill="#e40104" d="M 119.5,43.5 C 127.087,43.1858 134.587,43.5192 142,44.5C 143.586,51.0573 143.92,57.724 143,64.5C 142.626,65.4162 142.126,66.2496 141.5,67C 134.5,67.6667 127.5,67.6667 120.5,67C 119.692,66.6924 119.025,66.1924 118.5,65.5C 116.916,58.0148 117.25,50.6814 119.5,43.5 Z"/></g>
<g><path style="opacity:1" fill="#fbfafb" d="M 158.5,43.5 C 166.087,43.1858 173.587,43.5192 181,44.5C 182.586,51.0573 182.92,57.724 182,64.5C 181.626,65.4162 181.126,66.2496 180.5,67C 173.5,67.6667 166.5,67.6667 159.5,67C 158.692,66.6924 158.025,66.1924 157.5,65.5C 155.916,58.0148 156.25,50.6814 158.5,43.5 Z"/></g>
<g><path style="opacity:1" fill="#e30105" d="M 4.5,83.5 C 10.5092,83.3338 16.5092,83.5005 22.5,84C 23.4162,84.3742 24.2496,84.8742 25,85.5C 26.5863,92.0573 26.9196,98.724 26,105.5C 25.1667,106.333 24.3333,107.167 23.5,108C 16.8333,108.667 10.1667,108.667 3.5,108C 2.66667,107.167 1.83333,106.333 1,105.5C 0.333333,99.5 0.333333,93.5 1,87.5C 1.68972,85.6498 2.85639,84.3164 4.5,83.5 Z"/></g>
<g><path style="opacity:1" fill="#f9f8fa" d="M 43.5,83.5 C 49.5092,83.3338 55.5092,83.5005 61.5,84C 62.9308,84.4652 64.0975,85.2986 65,86.5C 65.6667,92.8333 65.6667,99.1667 65,105.5C 64.1667,106.333 63.3333,107.167 62.5,108C 55.8333,108.667 49.1667,108.667 42.5,108C 41.6667,107.167 40.8333,106.333 40,105.5C 39.3333,99.1667 39.3333,92.8333 40,86.5C 41.1451,85.3636 42.3117,84.3636 43.5,83.5 Z"/></g>
<g><path style="opacity:1" fill="#e30105" d="M 82.5,83.5 C 88.5092,83.3338 94.5092,83.5005 100.5,84C 101.931,84.4652 103.097,85.2986 104,86.5C 104.667,92.8333 104.667,99.1667 104,105.5C 103.167,106.333 102.333,107.167 101.5,108C 94.8333,108.667 88.1667,108.667 81.5,108C 80.6667,107.167 79.8333,106.333 79,105.5C 78.3333,99.1667 78.3333,92.8333 79,86.5C 80.1451,85.3636 81.3117,84.3636 82.5,83.5 Z"/></g>
<g><path style="opacity:1" fill="#f9f8fa" d="M 121.5,83.5 C 127.509,83.3338 133.509,83.5005 139.5,84C 140.931,84.4652 142.097,85.2986 143,86.5C 143.667,92.8333 143.667,99.1667 143,105.5C 142.692,106.308 142.192,106.975 141.5,107.5C 134.55,108.63 127.55,108.797 120.5,108C 119.667,107.167 118.833,106.333 118,105.5C 117.333,99.1667 117.333,92.8333 118,86.5C 119.145,85.3636 120.312,84.3636 121.5,83.5 Z"/></g>
<g><path style="opacity:1" fill="#e30205" d="M 160.5,83.5 C 166.509,83.3338 172.509,83.5005 178.5,84C 179.931,84.4652 181.097,85.2986 182,86.5C 182.667,92.8333 182.667,99.1667 182,105.5C 181.692,106.308 181.192,106.975 180.5,107.5C 173.55,108.63 166.55,108.797 159.5,108C 158.667,107.167 157.833,106.333 157,105.5C 156.333,99.5 156.333,93.5 157,87.5C 157.69,85.6498 158.856,84.3164 160.5,83.5 Z"/></g>
<g><path style="opacity:1" fill="#f9f8fa" d="M 3.5,124.5 C 10.175,124.334 16.8417,124.5 23.5,125C 24.3333,125.833 25.1667,126.667 26,127.5C 26.6667,133.5 26.6667,139.5 26,145.5C 25.5348,146.931 24.7014,148.097 23.5,149C 16.8333,149.667 10.1667,149.667 3.5,149C 2.66667,148.167 1.83333,147.333 1,146.5C 0.333333,140.167 0.333333,133.833 1,127.5C 2.04499,126.627 2.87833,125.627 3.5,124.5 Z"/></g>
<g><path style="opacity:1" fill="#f9f8fa" d="M 42.5,124.5 C 49.175,124.334 55.8417,124.5 62.5,125C 63.3333,125.833 64.1667,126.667 65,127.5C 65.6667,133.5 65.6667,139.5 65,145.5C 64.5348,146.931 63.7014,148.097 62.5,149C 56.1667,149.667 49.8333,149.667 43.5,149C 42.0692,148.535 40.9025,147.701 40,146.5C 39.3333,140.167 39.3333,133.833 40,127.5C 41.045,126.627 41.8783,125.627 42.5,124.5 Z"/></g>
<g><path style="opacity:1" fill="#e30105" d="M 81.5,124.5 C 88.175,124.334 94.8417,124.5 101.5,125C 102.333,125.833 103.167,126.667 104,127.5C 104.667,133.5 104.667,139.5 104,145.5C 103.535,146.931 102.701,148.097 101.5,149C 95.1667,149.667 88.8333,149.667 82.5,149C 81.0692,148.535 79.9025,147.701 79,146.5C 78.3333,140.167 78.3333,133.833 79,127.5C 80.045,126.627 80.8783,125.627 81.5,124.5 Z"/></g>
<g><path style="opacity:1" fill="#f9f8fa" d="M 120.5,124.5 C 127.175,124.334 133.842,124.5 140.5,125C 141.333,125.833 142.167,126.667 143,127.5C 143.667,133.833 143.667,140.167 143,146.5C 142.167,147.333 141.333,148.167 140.5,149C 134.167,149.667 127.833,149.667 121.5,149C 120.069,148.535 118.903,147.701 118,146.5C 117.333,140.167 117.333,133.833 118,127.5C 119.045,126.627 119.878,125.627 120.5,124.5 Z"/></g>
<g><path style="opacity:1" fill="#f9f8fa" d="M 159.5,124.5 C 166.175,124.334 172.842,124.5 179.5,125C 180.333,125.833 181.167,126.667 182,127.5C 182.667,133.833 182.667,140.167 182,146.5C 181.167,147.333 180.333,148.167 179.5,149C 173.167,149.667 166.833,149.667 160.5,149C 159.069,148.535 157.903,147.701 157,146.5C 156.333,140.167 156.333,133.833 157,127.5C 158.045,126.627 158.878,125.627 159.5,124.5 Z"/></g>
<g><path style="opacity:1" fill="#f8f6f9" d="M 3.5,165.5 C 10.7546,165.187 17.9213,165.52 25,166.5C 26.5863,173.057 26.9196,179.724 26,186.5C 25.5348,187.931 24.7014,189.097 23.5,190C 17.1667,190.667 10.8333,190.667 4.5,190C 3.58377,189.626 2.75044,189.126 2,188.5C 0.413721,181.943 0.0803873,175.276 1,168.5C 1.69794,167.309 2.53128,166.309 3.5,165.5 Z"/></g>
<g><path style="opacity:1" fill="#f8f6f9" d="M 42.5,165.5 C 49.7546,165.187 56.9213,165.52 64,166.5C 65.5863,173.057 65.9196,179.724 65,186.5C 64.5348,187.931 63.7014,189.097 62.5,190C 56.1667,190.667 49.8333,190.667 43.5,190C 42.5838,189.626 41.7504,189.126 41,188.5C 39.4137,181.943 39.0804,175.276 40,168.5C 40.6979,167.309 41.5313,166.309 42.5,165.5 Z"/></g>
<g><path style="opacity:1" fill="#e20207" d="M 81.5,165.5 C 88.7546,165.187 95.9213,165.52 103,166.5C 104.586,173.057 104.92,179.724 104,186.5C 103.535,187.931 102.701,189.097 101.5,190C 95.1667,190.667 88.8333,190.667 82.5,190C 81.5838,189.626 80.7504,189.126 80,188.5C 78.4137,181.943 78.0804,175.276 79,168.5C 79.6979,167.309 80.5313,166.309 81.5,165.5 Z"/></g>
<g><path style="opacity:1" fill="#f8f7f9" d="M 120.5,165.5 C 127.755,165.187 134.921,165.52 142,166.5C 143.586,173.057 143.92,179.724 143,186.5C 142.535,187.931 141.701,189.097 140.5,190C 134.167,190.667 127.833,190.667 121.5,190C 120.584,189.626 119.75,189.126 119,188.5C 117.414,181.943 117.08,175.276 118,168.5C 119.045,167.627 119.878,166.627 120.5,165.5 Z"/></g>
<g><path style="opacity:1" fill="#f8f7f9" d="M 159.5,165.5 C 166.755,165.187 173.921,165.52 181,166.5C 182.586,173.057 182.92,179.724 182,186.5C 181.535,187.931 180.701,189.097 179.5,190C 173.167,190.667 166.833,190.667 160.5,190C 159.584,189.626 158.75,189.126 158,188.5C 156.414,181.943 156.08,175.276 157,168.5C 158.045,167.627 158.878,166.627 159.5,165.5 Z"/></g>
</svg>
