<?xml version="1.0" encoding="UTF-8"?>
<!DOCTYPE svg PUBLIC "-//W3C//DTD SVG 1.1//EN" "http://www.w3.org/Graphics/SVG/1.1/DTD/svg11.dtd">
<svg xmlns="http://www.w3.org/2000/svg" version="1.1" width="186px" height="193px" style="shape-rendering:geometricPrecision; text-rendering:geometricPrecision; image-rendering:optimizeQuality; fill-rule:evenodd; clip-rule:evenodd" xmlns:xlink="http://www.w3.org/1999/xlink">
<g><path style="opacity:1" fill="#5a2c70" d="M -0.5,-0.5 C 61.5,-0.5 123.5,-0.5 185.5,-0.5C 185.5,63.8333 185.5,128.167 185.5,192.5C 123.5,192.5 61.5,192.5 -0.5,192.5C -0.5,128.167 -0.5,63.8333 -0.5,-0.5 Z"/></g>
<g><path style="opacity:1" fill="#e30205" d="M 4.5,2.5 C 11.175,2.33375 17.8417,2.50042 24.5,3C 25.3081,3.30762 25.9747,3.80762 26.5,4.5C 27.626,10.7818 27.7927,17.1151 27,23.5C 26.6258,24.4162 26.1258,25.2496 25.5,26C 18.9427,27.5863 12.276,27.9196 5.5,27C 4.58377,26.6258 3.75044,26.1258 3,25.5C 1.41372,18.9427 1.08039,12.276 2,5.5C 3.04499,4.62656 3.87833,3.62656 4.5,2.5 Z"/></g>
<g><path style="opacity:1" fill="#e30205" d="M 43.5,2.5 C 50.175,2.33375 56.8417,2.50042 63.5,3C 64.3081,3.30762 64.9747,3.80762 65.5,4.5C 66.626,10.7818 66.7927,17.1151 66,23.5C 65.6258,24.4162 65.1258,25.2496 64.5,26C 57.9427,27.5863 51.276,27.9196 44.5,27C 43.5838,26.6258 42.7504,26.1258 42,25.5C 40.4137,18.9427 40.0804,12.276 41,5.5C 42.045,4.62656 42.8783,3.62656 43.5,2.5 Z"/></g>
<g><path style="opacity:1" fill="#e30206" d="M 82.5,2.5 C 89.175,2.33375 95.8417,2.50042 102.5,3C 103.308,3.30762 103.975,3.80762 104.5,4.5C 105.626,10.7818 105.793,17.1151 105,23.5C 104.535,24.9308 103.701,26.0975 102.5,27C 96.1667,27.6667 89.8333,27.6667 83.5,27C 82.5838,26.6258 81.7504,26.1258 81,25.5C 79.4137,18.9427 79.0804,12.276 80,5.5C 81.045,4.62656 81.8783,3.62656 82.5,2.5 Z"/></g>
<g><path style="opacity:1" fill="#e30206" d="M 121.5,2.5 C 128.175,2.33375 134.842,2.50042 141.5,3C 142.308,3.30762 142.975,3.80762 143.5,4.5C 144.626,10.7818 144.793,17.1151 144,23.5C 143.535,24.9308 142.701,26.0975 141.5,27C 135.167,27.6667 128.833,27.6667 122.5,27C 121.584,26.6258 120.75,26.1258 120,25.5C 118.414,18.9427 118.08,12.276 119,5.5C 120.045,4.62656 120.878,3.62656 121.5,2.5 Z"/></g>
<g><path style="opacity:1" fill="#e30206" d="M 160.5,2.5 C 167.755,2.18678 174.921,2.52011 182,3.5C 183.586,10.0573 183.92,16.724 183,23.5C 182.535,24.9308 181.701,26.0975 180.5,27C 174.167,27.6667 167.833,27.6667 161.5,27C 160.584,26.6258 159.75,26.1258 159,25.5C 157.414,18.9427 157.08,12.276 158,5.5C 159.045,4.62656 159.878,3.62656 160.5,2.5 Z"/></g>
<g><path style="opacity:1" fill="#e40104" d="M 3.5,43.5 C 11.0871,43.1858 18.5871,43.5192 26,44.5C 27.5863,51.0573 27.9196,57.724 27,64.5C 26.6258,65.4162 26.1258,66.2496 25.5,67C 17.9201,67.8132 10.4201,67.6466 3,66.5C 1.91099,62.9516 1.41099,59.285 1.5,55.5C 1.2822,51.2784 1.94886,47.2784 3.5,43.5 Z"/></g>
<g><path style="opacity:1" fill="#e40104" d="M 42.5,43.5 C 50.0871,43.1858 57.5871,43.5192 65,44.5C 66.5863,51.0573 66.9196,57.724 66,64.5C 65.6258,65.4162 65.1258,66.2496 64.5,67C 57.5,67.6667 50.5,67.6667 43.5,67C 42.6919,66.6924 42.0253,66.1924 41.5,65.5C 39.9164,58.0148 40.2498,50.6814 42.5,43.5 Z"/></g>
<g><path style="opacity:1" fill="#e40104" d="M 81.5,43.5 C 89.0871,43.1858 96.5871,43.5192 104,44.5C 105.586,51.0573 105.92,57.724 105,64.5C 104.626,65.4162 104.126,66.2496 103.5,67C 96.5,67.6667 89.5,67.6667 82.5,67C 81.6919,66.6924 81.0253,66.1924 80.5,65.5C 78.9164,58.0148 79.2498,50.6814 81.5,43.5 Z"/></g>
<g><path style="opacity:1" fill="#e40104" d="M 120.5,43.5 C 128.087,43.1858 135.587,43.5192 143,44.5C 144.586,51.0573 144.92,57.724 144,64.5C 143.626,65.4162 143.126,66.2496 142.5,67C 135.5,67.6667 128.5,67.6667 121.5,67C 120.692,66.6924 120.025,66.1924 119.5,65.5C 117.916,58.0148 118.25,50.6814 120.5,43.5 Z"/></g>
<g><path style="opacity:1" fill="#e40104" d="M 159.5,43.5 C 167.087,43.1858 174.587,43.5192 182,44.5C 183.586,51.0573 183.92,57.724 183,64.5C 182.626,65.4162 182.126,66.2496 181.5,67C 174.5,67.6667 167.5,67.6667 160.5,67C 159.667,66.1667 158.833,65.3333 158,64.5C 156.954,57.2975 157.454,50.2975 159.5,43.5 Z"/></g>
<g><path style="opacity:1" fill="#e30105" d="M 5.5,83.5 C 11.5092,83.3338 17.5092,83.5005 23.5,84C 24.4162,84.3742 25.2496,84.8742 26,85.5C 27.5863,92.0573 27.9196,98.724 27,105.5C 26.1667,106.333 25.3333,107.167 24.5,108C 17.8333,108.667 11.1667,108.667 4.5,108C 3.66667,107.167 2.83333,106.333 2,105.5C 1.33333,99.5 1.33333,93.5 2,87.5C 2.68972,85.6498 3.85639,84.3164 5.5,83.5 Z"/></g>
<g><path style="opacity:1" fill="#e30105" d="M 44.5,83.5 C 50.5092,83.3338 56.5092,83.5005 62.5,84C 63.4162,84.3742 64.2496,84.8742 65,85.5C 66.5863,92.0573 66.9196,98.724 66,105.5C 65.1667,106.333 64.3333,107.167 63.5,108C 56.8333,108.667 50.1667,108.667 43.5,108C 42.6667,107.167 41.8333,106.333 41,105.5C 40.3333,99.5 40.3333,93.5 41,87.5C 41.6897,85.6498 42.8564,84.3164 44.5,83.5 Z"/></g>
<g><path style="opacity:1" fill="#e30105" d="M 83.5,83.5 C 89.5092,83.3338 95.5092,83.5005 101.5,84C 102.931,84.4652 104.097,85.2986 105,86.5C 105.667,92.8333 105.667,99.1667 105,105.5C 104.167,106.333 103.333,107.167 102.5,108C 95.8333,108.667 89.1667,108.667 82.5,108C 81.6667,107.167 80.8333,106.333 80,105.5C 79.3333,99.5 79.3333,93.5 80,87.5C 80.6897,85.6498 81.8564,84.3164 83.5,83.5 Z"/></g>
<g><path style="opacity:1" fill="#e30205" d="M 122.5,83.5 C 128.509,83.3338 134.509,83.5005 140.5,84C 141.931,84.4652 143.097,85.2986 144,86.5C 144.667,92.8333 144.667,99.1667 144,105.5C 143.692,106.308 143.192,106.975 142.5,107.5C 135.55,108.63 128.55,108.797 121.5,108C 120.667,107.167 119.833,106.333 119,105.5C 118.333,99.1667 118.333,92.8333 119,86.5C 120.145,85.3636 121.312,84.3636 122.5,83.5 Z"/></g>
<g><path style="opacity:1" fill="#e30205" d="M 161.5,83.5 C 167.509,83.3338 173.509,83.5005 179.5,84C 180.931,84.4652 182.097,85.2986 183,86.5C 183.667,92.8333 183.667,99.1667 183,105.5C 182.692,106.308 182.192,106.975 181.5,107.5C 174.55,108.63 167.55,108.797 160.5,108C 159.667,107.167 158.833,106.333 158,105.5C 157.333,99.5 157.333,93.5 158,87.5C 158.69,85.6498 159.856,84.3164 161.5,83.5 Z"/></g>
<g><path style="opacity:1" fill="#e30104" d="M 4.5,124.5 C 11.175,124.334 17.8417,124.5 24.5,125C 25.3333,125.833 26.1667,126.667 27,127.5C 27.6667,133.5 27.6667,139.5 27,145.5C 26.6258,146.416 26.1258,147.25 25.5,148C 18.9427,149.586 12.276,149.92 5.5,149C 4.06919,148.535 2.90252,147.701 2,146.5C 1.33333,140.167 1.33333,133.833 2,127.5C 3.04499,126.627 3.87833,125.627 4.5,124.5 Z"/></g>
<g><path style="opacity:1" fill="#e30105" d="M 43.5,124.5 C 50.175,124.334 56.8417,124.5 63.5,125C 64.3333,125.833 65.1667,126.667 66,127.5C 66.6667,133.5 66.6667,139.5 66,145.5C 65.5348,146.931 64.7014,148.097 63.5,149C 57.1667,149.667 50.8333,149.667 44.5,149C 43.0692,148.535 41.9025,147.701 41,146.5C 40.3333,140.167 40.3333,133.833 41,127.5C 42.045,126.627 42.8783,125.627 43.5,124.5 Z"/></g>
<g><path style="opacity:1" fill="#e30105" d="M 82.5,124.5 C 89.175,124.334 95.8417,124.5 102.5,125C 103.333,125.833 104.167,126.667 105,127.5C 105.667,133.5 105.667,139.5 105,145.5C 104.535,146.931 103.701,148.097 102.5,149C 96.1667,149.667 89.8333,149.667 83.5,149C 82.0692,148.535 80.9025,147.701 80,146.5C 79.3333,140.167 79.3333,133.833 80,127.5C 81.045,126.627 81.8783,125.627 82.5,124.5 Z"/></g>
<g><path style="opacity:1" fill="#e30105" d="M 121.5,124.5 C 128.175,124.334 134.842,124.5 141.5,125C 142.333,125.833 143.167,126.667 144,127.5C 144.667,133.5 144.667,139.5 144,145.5C 143.535,146.931 142.701,148.097 141.5,149C 135.167,149.667 128.833,149.667 122.5,149C 121.069,148.535 119.903,147.701 119,146.5C 118.333,140.167 118.333,133.833 119,127.5C 120.045,126.627 120.878,125.627 121.5,124.5 Z"/></g>
<g><path style="opacity:1" fill="#e30205" d="M 160.5,124.5 C 167.175,124.334 173.842,124.5 180.5,125C 181.333,125.833 182.167,126.667 183,127.5C 183.667,133.833 183.667,140.167 183,146.5C 182.167,147.333 181.333,148.167 180.5,149C 174.167,149.667 167.833,149.667 161.5,149C 160.069,148.535 158.903,147.701 158,146.5C 157.333,140.167 157.333,133.833 158,127.5C 159.045,126.627 159.878,125.627 160.5,124.5 Z"/></g>
<g><path style="opacity:1" fill="#e20206" d="M 4.5,165.5 C 11.7546,165.187 18.9213,165.52 26,166.5C 27.5863,173.057 27.9196,179.724 27,186.5C 26.6258,187.416 26.1258,188.25 25.5,189C 18.9427,190.586 12.276,190.92 5.5,190C 4.58377,189.626 3.75044,189.126 3,188.5C 1.41372,181.943 1.08039,175.276 2,168.5C 2.69794,167.309 3.53128,166.309 4.5,165.5 Z"/></g>
<g><path style="opacity:1" fill="#e20206" d="M 43.5,165.5 C 50.7546,165.187 57.9213,165.52 65,166.5C 66.5863,173.057 66.9196,179.724 66,186.5C 65.6258,187.416 65.1258,188.25 64.5,189C 57.9427,190.586 51.276,190.92 44.5,190C 43.5838,189.626 42.7504,189.126 42,188.5C 40.4137,181.943 40.0804,175.276 41,168.5C 41.6979,167.309 42.5313,166.309 43.5,165.5 Z"/></g>
<g><path style="opacity:1" fill="#e20207" d="M 82.5,165.5 C 89.7546,165.187 96.9213,165.52 104,166.5C 105.586,173.057 105.92,179.724 105,186.5C 104.535,187.931 103.701,189.097 102.5,190C 96.1667,190.667 89.8333,190.667 83.5,190C 82.5838,189.626 81.7504,189.126 81,188.5C 79.4137,181.943 79.0804,175.276 80,168.5C 80.6979,167.309 81.5313,166.309 82.5,165.5 Z"/></g>
<g><path style="opacity:1" fill="#e20207" d="M 121.5,165.5 C 128.755,165.187 135.921,165.52 143,166.5C 144.586,173.057 144.92,179.724 144,186.5C 143.535,187.931 142.701,189.097 141.5,190C 135.167,190.667 128.833,190.667 122.5,190C 121.584,189.626 120.75,189.126 120,188.5C 118.414,181.943 118.08,175.276 119,168.5C 120.045,167.627 120.878,166.627 121.5,165.5 Z"/></g>
<g><path style="opacity:1" fill="#e20207" d="M 160.5,165.5 C 167.755,165.187 174.921,165.52 182,166.5C 183.586,173.057 183.92,179.724 183,186.5C 182.535,187.931 181.701,189.097 180.5,190C 174.167,190.667 167.833,190.667 161.5,190C 160.584,189.626 159.75,189.126 159,188.5C 157.414,181.943 157.08,175.276 158,168.5C 159.045,167.627 159.878,166.627 160.5,165.5 Z"/></g>
</svg>
