<?xml version="1.0" encoding="UTF-8"?>
<!DOCTYPE svg PUBLIC "-//W3C//DTD SVG 1.1//EN" "http://www.w3.org/Graphics/SVG/1.1/DTD/svg11.dtd">
<svg xmlns="http://www.w3.org/2000/svg" version="1.1" width="186px" height="196px" style="shape-rendering:geometricPrecision; text-rendering:geometricPrecision; image-rendering:optimizeQuality; fill-rule:evenodd; clip-rule:evenodd" xmlns:xlink="http://www.w3.org/1999/xlink">
<g><path style="opacity:1" fill="#5a2d71" d="M -0.5,-0.5 C 61.5,-0.5 123.5,-0.5 185.5,-0.5C 185.5,64.8333 185.5,130.167 185.5,195.5C 123.5,195.5 61.5,195.5 -0.5,195.5C -0.5,130.167 -0.5,64.8333 -0.5,-0.5 Z"/></g>
<g><path style="opacity:1" fill="#f9f7fa" d="M 4.5,4.5 C 11.175,4.33375 17.8417,4.50042 24.5,5C 25.3081,5.30762 25.9747,5.80762 26.5,6.5C 27.626,12.7818 27.7927,19.1151 27,25.5C 26.5348,26.9308 25.7014,28.0975 24.5,29C 18.1667,29.6667 11.8333,29.6667 5.5,29C 4.58377,28.6258 3.75044,28.1258 3,27.5C 1.41372,20.9427 1.08039,14.276 2,7.5C 2.69794,6.30943 3.53128,5.30943 4.5,4.5 Z"/></g>
<g><path style="opacity:1" fill="#f9f7fa" d="M 82.5,4.5 C 89.175,4.33375 95.8417,4.50042 102.5,5C 103.308,5.30762 103.975,5.80762 104.5,6.5C 105.626,12.7818 105.793,19.1151 105,25.5C 104.535,26.9308 103.701,28.0975 102.5,29C 96.1667,29.6667 89.8333,29.6667 83.5,29C 82.5838,28.6258 81.7504,28.1258 81,27.5C 79.4137,20.9427 79.0804,14.276 80,7.5C 81.045,6.62656 81.8783,5.62656 82.5,4.5 Z"/></g>
<g><path style="opacity:1" fill="#f9f7fa" d="M 160.5,4.5 C 167.755,4.18678 174.921,4.52011 182,5.5C 183.586,12.0573 183.92,18.724 183,25.5C 182.535,26.9308 181.701,28.0975 180.5,29C 174.167,29.6667 167.833,29.6667 161.5,29C 160.584,28.6258 159.75,28.1258 159,27.5C 157.414,20.9427 157.08,14.276 158,7.5C 159.045,6.62656 159.878,5.62656 160.5,4.5 Z"/></g>
<g><path style="opacity:1" fill="#e30205" d="M 43.5,4.5 C 50.175,4.33375 56.8417,4.50042 63.5,5C 64.3081,5.30762 64.9747,5.80762 65.5,6.5C 66.626,12.7818 66.7927,19.1151 66,25.5C 65.6258,26.4162 65.1258,27.2496 64.5,28C 57.9427,29.5863 51.276,29.9196 44.5,29C 43.5838,28.6258 42.7504,28.1258 42,27.5C 40.4137,20.9427 40.0804,14.276 41,7.5C 42.045,6.62656 42.8783,5.62656 43.5,4.5 Z"/></g>
<g><path style="opacity:1" fill="#e30206" d="M 121.5,4.5 C 128.175,4.33375 134.842,4.50042 141.5,5C 142.308,5.30762 142.975,5.80762 143.5,6.5C 144.626,12.7818 144.793,19.1151 144,25.5C 143.535,26.9308 142.701,28.0975 141.5,29C 135.167,29.6667 128.833,29.6667 122.5,29C 121.584,28.6258 120.75,28.1258 120,27.5C 118.414,20.9427 118.08,14.276 119,7.5C 120.045,6.62656 120.878,5.62656 121.5,4.5 Z"/></g>
<g><path style="opacity:1" fill="#e40104" d="M 3.5,45.5 C 11.0871,45.1858 18.5871,45.5192 26,46.5C 27.5863,53.0573 27.9196,59.724 27,66.5C 26.6258,67.4162 26.1258,68.2496 25.5,69C 17.9201,69.8132 10.4201,69.6466 3,68.5C 1.91099,64.9516 1.41099,61.285 1.5,57.5C 1.2822,53.2784 1.94886,49.2784 3.5,45.5 Z"/></g>
<g><path style="opacity:1" fill="#faf9fb" d="M 42.5,45.5 C 50.0871,45.1858 57.5871,45.5192 65,46.5C 66.5863,53.0573 66.9196,59.724 66,66.5C 65.6258,67.4162 65.1258,68.2496 64.5,69C 56.9201,69.8132 49.4201,69.6466 42,68.5C 40.911,64.9516 40.411,61.285 40.5,57.5C 40.2822,53.2784 40.9489,49.2784 42.5,45.5 Z"/></g>
<g><path style="opacity:1" fill="#e40104" d="M 81.5,45.5 C 89.0871,45.1858 96.5871,45.5192 104,46.5C 105.586,53.0573 105.92,59.724 105,66.5C 104.626,67.4162 104.126,68.2496 103.5,69C 96.5,69.6667 89.5,69.6667 82.5,69C 81.6919,68.6924 81.0253,68.1924 80.5,67.5C 78.9164,60.0148 79.2498,52.6814 81.5,45.5 Z"/></g>
<g><path style="opacity:1" fill="#fbfafb" d="M 120.5,45.5 C 128.087,45.1858 135.587,45.5192 143,46.5C 144.586,53.0573 144.92,59.724 144,66.5C 143.626,67.4162 143.126,68.2496 142.5,69C 135.5,69.6667 128.5,69.6667 121.5,69C 120.692,68.6924 120.025,68.1924 119.5,67.5C 117.916,60.0148 118.25,52.6814 120.5,45.5 Z"/></g>
<g><path style="opacity:1" fill="#e40104" d="M 159.5,45.5 C 167.087,45.1858 174.587,45.5192 182,46.5C 183.586,53.0573 183.92,59.724 183,66.5C 182.626,67.4162 182.126,68.2496 181.5,69C 174.5,69.6667 167.5,69.6667 160.5,69C 159.667,68.1667 158.833,67.3333 158,66.5C 156.954,59.2975 157.454,52.2975 159.5,45.5 Z"/></g>
<g><path style="opacity:1" fill="#e30105" d="M 5.5,85.5 C 11.5092,85.3338 17.5092,85.5005 23.5,86C 24.4162,86.3742 25.2496,86.8742 26,87.5C 27.5863,94.0573 27.9196,100.724 27,107.5C 26.1667,108.333 25.3333,109.167 24.5,110C 17.8333,110.667 11.1667,110.667 4.5,110C 3.66667,109.167 2.83333,108.333 2,107.5C 1.33333,101.5 1.33333,95.5 2,89.5C 2.68972,87.6498 3.85639,86.3164 5.5,85.5 Z"/></g>
<g><path style="opacity:1" fill="#e30105" d="M 44.5,85.5 C 50.5092,85.3338 56.5092,85.5005 62.5,86C 63.4162,86.3742 64.2496,86.8742 65,87.5C 66.5863,94.0573 66.9196,100.724 66,107.5C 65.1667,108.333 64.3333,109.167 63.5,110C 56.8333,110.667 50.1667,110.667 43.5,110C 42.6667,109.167 41.8333,108.333 41,107.5C 40.3333,101.5 40.3333,95.5 41,89.5C 41.6897,87.6498 42.8564,86.3164 44.5,85.5 Z"/></g>
<g><path style="opacity:1" fill="#e30105" d="M 83.5,85.5 C 89.5092,85.3338 95.5092,85.5005 101.5,86C 102.931,86.4652 104.097,87.2986 105,88.5C 105.667,94.8333 105.667,101.167 105,107.5C 104.167,108.333 103.333,109.167 102.5,110C 95.8333,110.667 89.1667,110.667 82.5,110C 81.6667,109.167 80.8333,108.333 80,107.5C 79.3333,101.5 79.3333,95.5 80,89.5C 80.6897,87.6498 81.8564,86.3164 83.5,85.5 Z"/></g>
<g><path style="opacity:1" fill="#e30205" d="M 122.5,85.5 C 128.509,85.3338 134.509,85.5005 140.5,86C 141.931,86.4652 143.097,87.2986 144,88.5C 144.667,94.8333 144.667,101.167 144,107.5C 143.692,108.308 143.192,108.975 142.5,109.5C 135.55,110.63 128.55,110.797 121.5,110C 120.667,109.167 119.833,108.333 119,107.5C 118.333,101.167 118.333,94.8333 119,88.5C 120.145,87.3636 121.312,86.3636 122.5,85.5 Z"/></g>
<g><path style="opacity:1" fill="#e30205" d="M 161.5,85.5 C 167.509,85.3338 173.509,85.5005 179.5,86C 180.931,86.4652 182.097,87.2986 183,88.5C 183.667,94.8333 183.667,101.167 183,107.5C 182.692,108.308 182.192,108.975 181.5,109.5C 174.55,110.63 167.55,110.797 160.5,110C 159.667,109.167 158.833,108.333 158,107.5C 157.333,101.5 157.333,95.5 158,89.5C 158.69,87.6498 159.856,86.3164 161.5,85.5 Z"/></g>
<g><path style="opacity:1" fill="#e30104" d="M 4.5,126.5 C 11.175,126.334 17.8417,126.5 24.5,127C 25.3333,127.833 26.1667,128.667 27,129.5C 27.6667,135.5 27.6667,141.5 27,147.5C 26.6258,148.416 26.1258,149.25 25.5,150C 18.9427,151.586 12.276,151.92 5.5,151C 4.06919,150.535 2.90252,149.701 2,148.5C 1.33333,142.167 1.33333,135.833 2,129.5C 3.04499,128.627 3.87833,127.627 4.5,126.5 Z"/></g>
<g><path style="opacity:1" fill="#e30105" d="M 43.5,126.5 C 50.175,126.334 56.8417,126.5 63.5,127C 64.3333,127.833 65.1667,128.667 66,129.5C 66.6667,135.5 66.6667,141.5 66,147.5C 65.5348,148.931 64.7014,150.097 63.5,151C 57.1667,151.667 50.8333,151.667 44.5,151C 43.0692,150.535 41.9025,149.701 41,148.5C 40.3333,142.167 40.3333,135.833 41,129.5C 42.045,128.627 42.8783,127.627 43.5,126.5 Z"/></g>
<g><path style="opacity:1" fill="#e30105" d="M 82.5,126.5 C 89.175,126.334 95.8417,126.5 102.5,127C 103.333,127.833 104.167,128.667 105,129.5C 105.667,135.5 105.667,141.5 105,147.5C 104.535,148.931 103.701,150.097 102.5,151C 96.1667,151.667 89.8333,151.667 83.5,151C 82.0692,150.535 80.9025,149.701 80,148.5C 79.3333,142.167 79.3333,135.833 80,129.5C 81.045,128.627 81.8783,127.627 82.5,126.5 Z"/></g>
<g><path style="opacity:1" fill="#e30105" d="M 121.5,126.5 C 128.175,126.334 134.842,126.5 141.5,127C 142.333,127.833 143.167,128.667 144,129.5C 144.667,135.5 144.667,141.5 144,147.5C 143.535,148.931 142.701,150.097 141.5,151C 135.167,151.667 128.833,151.667 122.5,151C 121.069,150.535 119.903,149.701 119,148.5C 118.333,142.167 118.333,135.833 119,129.5C 120.045,128.627 120.878,127.627 121.5,126.5 Z"/></g>
<g><path style="opacity:1" fill="#e30205" d="M 160.5,126.5 C 167.175,126.334 173.842,126.5 180.5,127C 181.333,127.833 182.167,128.667 183,129.5C 183.667,135.833 183.667,142.167 183,148.5C 182.167,149.333 181.333,150.167 180.5,151C 174.167,151.667 167.833,151.667 161.5,151C 160.069,150.535 158.903,149.701 158,148.5C 157.333,142.167 157.333,135.833 158,129.5C 159.045,128.627 159.878,127.627 160.5,126.5 Z"/></g>
<g><path style="opacity:1" fill="#e20206" d="M 4.5,167.5 C 11.7546,167.187 18.9213,167.52 26,168.5C 27.5863,175.057 27.9196,181.724 27,188.5C 26.6258,189.416 26.1258,190.25 25.5,191C 18.9427,192.586 12.276,192.92 5.5,192C 4.58377,191.626 3.75044,191.126 3,190.5C 1.41372,183.943 1.08039,177.276 2,170.5C 2.69794,169.309 3.53128,168.309 4.5,167.5 Z"/></g>
<g><path style="opacity:1" fill="#f8f6f9" d="M 43.5,167.5 C 50.7546,167.187 57.9213,167.52 65,168.5C 66.5863,175.057 66.9196,181.724 66,188.5C 65.5348,189.931 64.7014,191.097 63.5,192C 57.1667,192.667 50.8333,192.667 44.5,192C 43.5838,191.626 42.7504,191.126 42,190.5C 40.4137,183.943 40.0804,177.276 41,170.5C 41.6979,169.309 42.5313,168.309 43.5,167.5 Z"/></g>
<g><path style="opacity:1" fill="#e20207" d="M 82.5,167.5 C 89.7546,167.187 96.9213,167.52 104,168.5C 105.586,175.057 105.92,181.724 105,188.5C 104.535,189.931 103.701,191.097 102.5,192C 96.1667,192.667 89.8333,192.667 83.5,192C 82.5838,191.626 81.7504,191.126 81,190.5C 79.4137,183.943 79.0804,177.276 80,170.5C 80.6979,169.309 81.5313,168.309 82.5,167.5 Z"/></g>
<g><path style="opacity:1" fill="#f8f7f9" d="M 121.5,167.5 C 128.755,167.187 135.921,167.52 143,168.5C 144.586,175.057 144.92,181.724 144,188.5C 143.535,189.931 142.701,191.097 141.5,192C 135.167,192.667 128.833,192.667 122.5,192C 121.584,191.626 120.75,191.126 120,190.5C 118.414,183.943 118.08,177.276 119,170.5C 120.045,169.627 120.878,168.627 121.5,167.5 Z"/></g>
<g><path style="opacity:1" fill="#e20207" d="M 160.5,167.5 C 167.755,167.187 174.921,167.52 182,168.5C 183.586,175.057 183.92,181.724 183,188.5C 182.535,189.931 181.701,191.097 180.5,192C 174.167,192.667 167.833,192.667 161.5,192C 160.584,191.626 159.75,191.126 159,190.5C 157.414,183.943 157.08,177.276 158,170.5C 159.045,169.627 159.878,168.627 160.5,167.5 Z"/></g>
</svg>
