<?xml version="1.0" encoding="UTF-8"?>
<!DOCTYPE svg PUBLIC "-//W3C//DTD SVG 1.1//EN" "http://www.w3.org/Graphics/SVG/1.1/DTD/svg11.dtd">
<svg xmlns="http://www.w3.org/2000/svg" version="1.1" width="191px" height="197px" style="shape-rendering:geometricPrecision; text-rendering:geometricPrecision; image-rendering:optimizeQuality; fill-rule:evenodd; clip-rule:evenodd" xmlns:xlink="http://www.w3.org/1999/xlink">
<g><path style="opacity:1" fill="#5a2e72" d="M -0.5,-0.5 C 63.1667,-0.5 126.833,-0.5 190.5,-0.5C 190.5,65.1667 190.5,130.833 190.5,196.5C 126.833,196.5 63.1667,196.5 -0.5,196.5C -0.5,130.833 -0.5,65.1667 -0.5,-0.5 Z"/></g>
<g><path style="opacity:1" fill="#f9f7fa" d="M 84.5,4.5 C 91.175,4.33375 97.8417,4.50042 104.5,5C 105.308,5.30762 105.975,5.80762 106.5,6.5C 107.626,12.7818 107.793,19.1151 107,25.5C 106.535,26.9308 105.701,28.0975 104.5,29C 98.1667,29.6667 91.8333,29.6667 85.5,29C 84.5838,28.6258 83.7504,28.1258 83,27.5C 81.4137,20.9427 81.0804,14.276 82,7.5C 83.045,6.62656 83.8783,5.62656 84.5,4.5 Z"/></g>
<g><path style="opacity:1" fill="#f9f7fa" d="M 123.5,4.5 C 130.175,4.33375 136.842,4.50042 143.5,5C 144.308,5.30762 144.975,5.80762 145.5,6.5C 146.626,12.7818 146.793,19.1151 146,25.5C 145.535,26.9308 144.701,28.0975 143.5,29C 137.167,29.6667 130.833,29.6667 124.5,29C 123.584,28.6258 122.75,28.1258 122,27.5C 120.414,20.9427 120.08,14.276 121,7.5C 122.045,6.62656 122.878,5.62656 123.5,4.5 Z"/></g>
<g><path style="opacity:1" fill="#f9f7fa" d="M 162.5,4.5 C 169.755,4.18678 176.921,4.52011 184,5.5C 185.586,12.0573 185.92,18.724 185,25.5C 184.535,26.9308 183.701,28.0975 182.5,29C 176.167,29.6667 169.833,29.6667 163.5,29C 162.584,28.6258 161.75,28.1258 161,27.5C 159.414,20.9427 159.08,14.276 160,7.5C 161.045,6.62656 161.878,5.62656 162.5,4.5 Z"/></g>
<g><path style="opacity:1" fill="#e30205" d="M 6.5,4.5 C 13.175,4.33375 19.8417,4.50042 26.5,5C 27.3081,5.30762 27.9747,5.80762 28.5,6.5C 29.626,12.7818 29.7927,19.1151 29,25.5C 28.6258,26.4162 28.1258,27.2496 27.5,28C 20.9427,29.5863 14.276,29.9196 7.5,29C 6.58377,28.6258 5.75044,28.1258 5,27.5C 3.41372,20.9427 3.08039,14.276 4,7.5C 5.04499,6.62656 5.87833,5.62656 6.5,4.5 Z"/></g>
<g><path style="opacity:1" fill="#e30205" d="M 45.5,4.5 C 52.175,4.33375 58.8417,4.50042 65.5,5C 66.3081,5.30762 66.9747,5.80762 67.5,6.5C 68.626,12.7818 68.7927,19.1151 68,25.5C 67.6258,26.4162 67.1258,27.2496 66.5,28C 59.9427,29.5863 53.276,29.9196 46.5,29C 45.5838,28.6258 44.7504,28.1258 44,27.5C 42.4137,20.9427 42.0804,14.276 43,7.5C 44.045,6.62656 44.8783,5.62656 45.5,4.5 Z"/></g>
<g><path style="opacity:1" fill="#faf9fb" d="M 5.5,45.5 C 13.0871,45.1858 20.5871,45.5192 28,46.5C 29.5863,53.0573 29.9196,59.724 29,66.5C 28.6258,67.4162 28.1258,68.2496 27.5,69C 19.9201,69.8132 12.4201,69.6466 5,68.5C 3.91099,64.9516 3.41099,61.285 3.5,57.5C 3.2822,53.2784 3.94886,49.2784 5.5,45.5 Z"/></g>
<g><path style="opacity:1" fill="#e40104" d="M 44.5,45.5 C 52.0871,45.1858 59.5871,45.5192 67,46.5C 68.5863,53.0573 68.9196,59.724 68,66.5C 67.6258,67.4162 67.1258,68.2496 66.5,69C 59.5,69.6667 52.5,69.6667 45.5,69C 44.6919,68.6924 44.0253,68.1924 43.5,67.5C 41.9164,60.0148 42.2498,52.6814 44.5,45.5 Z"/></g>
<g><path style="opacity:1" fill="#fbfafb" d="M 83.5,45.5 C 91.0871,45.1858 98.5871,45.5192 106,46.5C 107.586,53.0573 107.92,59.724 107,66.5C 106.626,67.4162 106.126,68.2496 105.5,69C 98.5,69.6667 91.5,69.6667 84.5,69C 83.6919,68.6924 83.0253,68.1924 82.5,67.5C 80.9164,60.0148 81.2498,52.6814 83.5,45.5 Z"/></g>
<g><path style="opacity:1" fill="#fbfafb" d="M 122.5,45.5 C 130.087,45.1858 137.587,45.5192 145,46.5C 146.586,53.0573 146.92,59.724 146,66.5C 145.626,67.4162 145.126,68.2496 144.5,69C 137.5,69.6667 130.5,69.6667 123.5,69C 122.692,68.6924 122.025,68.1924 121.5,67.5C 119.916,60.0148 120.25,52.6814 122.5,45.5 Z"/></g>
<g><path style="opacity:1" fill="#fbfafb" d="M 161.5,45.5 C 169.087,45.1858 176.587,45.5192 184,46.5C 185.586,53.0573 185.92,59.724 185,66.5C 184.626,67.4162 184.126,68.2496 183.5,69C 176.5,69.6667 169.5,69.6667 162.5,69C 161.692,68.6924 161.025,68.1924 160.5,67.5C 158.916,60.0148 159.25,52.6814 161.5,45.5 Z"/></g>
<g><path style="opacity:1" fill="#f9f8fa" d="M 7.5,85.5 C 13.5092,85.3338 19.5092,85.5005 25.5,86C 26.9308,86.4652 28.0975,87.2986 29,88.5C 29.6667,94.8333 29.6667,101.167 29,107.5C 28.1667,108.333 27.3333,109.167 26.5,110C 19.8333,110.667 13.1667,110.667 6.5,110C 5.66667,109.167 4.83333,108.333 4,107.5C 3.33333,101.167 3.33333,94.8333 4,88.5C 5.14508,87.3636 6.31174,86.3636 7.5,85.5 Z"/></g>
<g><path style="opacity:1" fill="#e30105" d="M 46.5,85.5 C 52.5092,85.3338 58.5092,85.5005 64.5,86C 65.4162,86.3742 66.2496,86.8742 67,87.5C 68.5863,94.0573 68.9196,100.724 68,107.5C 67.1667,108.333 66.3333,109.167 65.5,110C 58.8333,110.667 52.1667,110.667 45.5,110C 44.6667,109.167 43.8333,108.333 43,107.5C 42.3333,101.167 42.3333,94.8333 43,88.5C 44.1451,87.3636 45.3117,86.3636 46.5,85.5 Z"/></g>
<g><path style="opacity:1" fill="#f9f8fa" d="M 85.5,85.5 C 91.5092,85.3338 97.5092,85.5005 103.5,86C 104.931,86.4652 106.097,87.2986 107,88.5C 107.667,94.8333 107.667,101.167 107,107.5C 106.692,108.308 106.192,108.975 105.5,109.5C 98.5505,110.63 91.5505,110.797 84.5,110C 83.6667,109.167 82.8333,108.333 82,107.5C 81.3333,101.167 81.3333,94.8333 82,88.5C 83.1451,87.3636 84.3117,86.3636 85.5,85.5 Z"/></g>
<g><path style="opacity:1" fill="#f9f8fa" d="M 124.5,85.5 C 130.509,85.3338 136.509,85.5005 142.5,86C 143.931,86.4652 145.097,87.2986 146,88.5C 146.667,94.8333 146.667,101.167 146,107.5C 145.692,108.308 145.192,108.975 144.5,109.5C 137.55,110.63 130.55,110.797 123.5,110C 122.667,109.167 121.833,108.333 121,107.5C 120.333,101.167 120.333,94.8333 121,88.5C 122.145,87.3636 123.312,86.3636 124.5,85.5 Z"/></g>
<g><path style="opacity:1" fill="#f9f8fa" d="M 163.5,85.5 C 169.509,85.3338 175.509,85.5005 181.5,86C 182.931,86.4652 184.097,87.2986 185,88.5C 185.667,94.8333 185.667,101.167 185,107.5C 184.692,108.308 184.192,108.975 183.5,109.5C 176.55,110.63 169.55,110.797 162.5,110C 161.667,109.167 160.833,108.333 160,107.5C 159.333,101.167 159.333,94.8333 160,88.5C 161.145,87.3636 162.312,86.3636 163.5,85.5 Z"/></g>
<g><path style="opacity:1" fill="#f9f8fa" d="M 6.5,126.5 C 13.175,126.334 19.8417,126.5 26.5,127C 27.3333,127.833 28.1667,128.667 29,129.5C 29.6667,135.5 29.6667,141.5 29,147.5C 28.5348,148.931 27.7014,150.097 26.5,151C 19.8333,151.667 13.1667,151.667 6.5,151C 5.66667,150.167 4.83333,149.333 4,148.5C 3.33333,142.167 3.33333,135.833 4,129.5C 5.04499,128.627 5.87833,127.627 6.5,126.5 Z"/></g>
<g><path style="opacity:1" fill="#e30105" d="M 45.5,126.5 C 52.175,126.334 58.8417,126.5 65.5,127C 66.3333,127.833 67.1667,128.667 68,129.5C 68.6667,135.5 68.6667,141.5 68,147.5C 67.5348,148.931 66.7014,150.097 65.5,151C 59.1667,151.667 52.8333,151.667 46.5,151C 45.0692,150.535 43.9025,149.701 43,148.5C 42.3333,142.167 42.3333,135.833 43,129.5C 44.045,128.627 44.8783,127.627 45.5,126.5 Z"/></g>
<g><path style="opacity:1" fill="#e30105" d="M 84.5,126.5 C 91.175,126.334 97.8417,126.5 104.5,127C 105.333,127.833 106.167,128.667 107,129.5C 107.667,135.5 107.667,141.5 107,147.5C 106.535,148.931 105.701,150.097 104.5,151C 98.1667,151.667 91.8333,151.667 85.5,151C 84.0692,150.535 82.9025,149.701 82,148.5C 81.3333,142.167 81.3333,135.833 82,129.5C 83.045,128.627 83.8783,127.627 84.5,126.5 Z"/></g>
<g><path style="opacity:1" fill="#e30105" d="M 123.5,126.5 C 130.175,126.334 136.842,126.5 143.5,127C 144.333,127.833 145.167,128.667 146,129.5C 146.667,135.5 146.667,141.5 146,147.5C 145.535,148.931 144.701,150.097 143.5,151C 137.167,151.667 130.833,151.667 124.5,151C 123.069,150.535 121.903,149.701 121,148.5C 120.333,142.167 120.333,135.833 121,129.5C 122.045,128.627 122.878,127.627 123.5,126.5 Z"/></g>
<g><path style="opacity:1" fill="#f9f8fa" d="M 162.5,126.5 C 169.175,126.334 175.842,126.5 182.5,127C 183.333,127.833 184.167,128.667 185,129.5C 185.667,135.833 185.667,142.167 185,148.5C 184.167,149.333 183.333,150.167 182.5,151C 176.167,151.667 169.833,151.667 163.5,151C 162.069,150.535 160.903,149.701 160,148.5C 159.333,142.167 159.333,135.833 160,129.5C 161.045,128.627 161.878,127.627 162.5,126.5 Z"/></g>
<g><path style="opacity:1" fill="#f8f6f9" d="M 6.5,167.5 C 13.7546,167.187 20.9213,167.52 28,168.5C 29.5863,175.057 29.9196,181.724 29,188.5C 28.5348,189.931 27.7014,191.097 26.5,192C 20.1667,192.667 13.8333,192.667 7.5,192C 6.58377,191.626 5.75044,191.126 5,190.5C 3.41372,183.943 3.08039,177.276 4,170.5C 4.69794,169.309 5.53128,168.309 6.5,167.5 Z"/></g>
<g><path style="opacity:1" fill="#e20206" d="M 45.5,167.5 C 52.7546,167.187 59.9213,167.52 67,168.5C 68.5863,175.057 68.9196,181.724 68,188.5C 67.6258,189.416 67.1258,190.25 66.5,191C 59.9427,192.586 53.276,192.92 46.5,192C 45.5838,191.626 44.7504,191.126 44,190.5C 42.4137,183.943 42.0804,177.276 43,170.5C 43.6979,169.309 44.5313,168.309 45.5,167.5 Z"/></g>
<g><path style="opacity:1" fill="#f8f6f9" d="M 84.5,167.5 C 91.7546,167.187 98.9213,167.52 106,168.5C 107.586,175.057 107.92,181.724 107,188.5C 106.535,189.931 105.701,191.097 104.5,192C 98.1667,192.667 91.8333,192.667 85.5,192C 84.5838,191.626 83.7504,191.126 83,190.5C 81.4137,183.943 81.0804,177.276 82,170.5C 82.6979,169.309 83.5313,168.309 84.5,167.5 Z"/></g>
<g><path style="opacity:1" fill="#e20207" d="M 123.5,167.5 C 130.755,167.187 137.921,167.52 145,168.5C 146.586,175.057 146.92,181.724 146,188.5C 145.535,189.931 144.701,191.097 143.5,192C 137.167,192.667 130.833,192.667 124.5,192C 123.584,191.626 122.75,191.126 122,190.5C 120.414,183.943 120.08,177.276 121,170.5C 122.045,169.627 122.878,168.627 123.5,167.5 Z"/></g>
<g><path style="opacity:1" fill="#f8f7f9" d="M 162.5,167.5 C 169.755,167.187 176.921,167.52 184,168.5C 185.586,175.057 185.92,181.724 185,188.5C 184.535,189.931 183.701,191.097 182.5,192C 176.167,192.667 169.833,192.667 163.5,192C 162.584,191.626 161.75,191.126 161,190.5C 159.414,183.943 159.08,177.276 160,170.5C 161.045,169.627 161.878,168.627 162.5,167.5 Z"/></g>
</svg>
