<?xml version="1.0" encoding="UTF-8"?>
<!DOCTYPE svg PUBLIC "-//W3C//DTD SVG 1.1//EN" "http://www.w3.org/Graphics/SVG/1.1/DTD/svg11.dtd">
<svg xmlns="http://www.w3.org/2000/svg" version="1.1" width="190px" height="196px" style="shape-rendering:geometricPrecision; text-rendering:geometricPrecision; image-rendering:optimizeQuality; fill-rule:evenodd; clip-rule:evenodd" xmlns:xlink="http://www.w3.org/1999/xlink">
<g><path style="opacity:1" fill="#5a2d71" d="M -0.5,-0.5 C 62.8333,-0.5 126.167,-0.5 189.5,-0.5C 189.5,64.8333 189.5,130.167 189.5,195.5C 126.167,195.5 62.8333,195.5 -0.5,195.5C -0.5,130.167 -0.5,64.8333 -0.5,-0.5 Z"/></g>
<g><path style="opacity:1" fill="#f9f7fa" d="M 5.5,4.5 C 12.175,4.33375 18.8417,4.50042 25.5,5C 26.3081,5.30762 26.9747,5.80762 27.5,6.5C 28.626,12.7818 28.7927,19.1151 28,25.5C 27.5348,26.9308 26.7014,28.0975 25.5,29C 19.1667,29.6667 12.8333,29.6667 6.5,29C 5.58377,28.6258 4.75044,28.1258 4,27.5C 2.41372,20.9427 2.08039,14.276 3,7.5C 3.69794,6.30943 4.53128,5.30943 5.5,4.5 Z"/></g>
<g><path style="opacity:1" fill="#f9f7fa" d="M 83.5,4.5 C 90.175,4.33375 96.8417,4.50042 103.5,5C 104.308,5.30762 104.975,5.80762 105.5,6.5C 106.626,12.7818 106.793,19.1151 106,25.5C 105.535,26.9308 104.701,28.0975 103.5,29C 97.1667,29.6667 90.8333,29.6667 84.5,29C 83.5838,28.6258 82.7504,28.1258 82,27.5C 80.4137,20.9427 80.0804,14.276 81,7.5C 82.045,6.62656 82.8783,5.62656 83.5,4.5 Z"/></g>
<g><path style="opacity:1" fill="#f9f7fa" d="M 161.5,4.5 C 168.755,4.18678 175.921,4.52011 183,5.5C 184.586,12.0573 184.92,18.724 184,25.5C 183.535,26.9308 182.701,28.0975 181.5,29C 175.167,29.6667 168.833,29.6667 162.5,29C 161.584,28.6258 160.75,28.1258 160,27.5C 158.414,20.9427 158.08,14.276 159,7.5C 160.045,6.62656 160.878,5.62656 161.5,4.5 Z"/></g>
<g><path style="opacity:1" fill="#e30205" d="M 44.5,4.5 C 51.175,4.33375 57.8417,4.50042 64.5,5C 65.3081,5.30762 65.9747,5.80762 66.5,6.5C 67.626,12.7818 67.7927,19.1151 67,25.5C 66.6258,26.4162 66.1258,27.2496 65.5,28C 58.9427,29.5863 52.276,29.9196 45.5,29C 44.5838,28.6258 43.7504,28.1258 43,27.5C 41.4137,20.9427 41.0804,14.276 42,7.5C 43.045,6.62656 43.8783,5.62656 44.5,4.5 Z"/></g>
<g><path style="opacity:1" fill="#e30206" d="M 122.5,4.5 C 129.175,4.33375 135.842,4.50042 142.5,5C 143.308,5.30762 143.975,5.80762 144.5,6.5C 145.626,12.7818 145.793,19.1151 145,25.5C 144.535,26.9308 143.701,28.0975 142.5,29C 136.167,29.6667 129.833,29.6667 123.5,29C 122.584,28.6258 121.75,28.1258 121,27.5C 119.414,20.9427 119.08,14.276 120,7.5C 121.045,6.62656 121.878,5.62656 122.5,4.5 Z"/></g>
<g><path style="opacity:1" fill="#e40104" d="M 4.5,45.5 C 12.0871,45.1858 19.5871,45.5192 27,46.5C 28.5863,53.0573 28.9196,59.724 28,66.5C 27.6258,67.4162 27.1258,68.2496 26.5,69C 18.9201,69.8132 11.4201,69.6466 4,68.5C 2.91099,64.9516 2.41099,61.285 2.5,57.5C 2.2822,53.2784 2.94886,49.2784 4.5,45.5 Z"/></g>
<g><path style="opacity:1" fill="#e40104" d="M 43.5,45.5 C 51.0871,45.1858 58.5871,45.5192 66,46.5C 67.5863,53.0573 67.9196,59.724 67,66.5C 66.6258,67.4162 66.1258,68.2496 65.5,69C 58.5,69.6667 51.5,69.6667 44.5,69C 43.6919,68.6924 43.0253,68.1924 42.5,67.5C 40.9164,60.0148 41.2498,52.6814 43.5,45.5 Z"/></g>
<g><path style="opacity:1" fill="#e40104" d="M 82.5,45.5 C 90.0871,45.1858 97.5871,45.5192 105,46.5C 106.586,53.0573 106.92,59.724 106,66.5C 105.626,67.4162 105.126,68.2496 104.5,69C 97.5,69.6667 90.5,69.6667 83.5,69C 82.6919,68.6924 82.0253,68.1924 81.5,67.5C 79.9164,60.0148 80.2498,52.6814 82.5,45.5 Z"/></g>
<g><path style="opacity:1" fill="#e40104" d="M 121.5,45.5 C 129.087,45.1858 136.587,45.5192 144,46.5C 145.586,53.0573 145.92,59.724 145,66.5C 144.626,67.4162 144.126,68.2496 143.5,69C 136.5,69.6667 129.5,69.6667 122.5,69C 121.692,68.6924 121.025,68.1924 120.5,67.5C 118.916,60.0148 119.25,52.6814 121.5,45.5 Z"/></g>
<g><path style="opacity:1" fill="#e40104" d="M 160.5,45.5 C 168.087,45.1858 175.587,45.5192 183,46.5C 184.586,53.0573 184.92,59.724 184,66.5C 183.626,67.4162 183.126,68.2496 182.5,69C 175.5,69.6667 168.5,69.6667 161.5,69C 160.667,68.1667 159.833,67.3333 159,66.5C 157.954,59.2975 158.454,52.2975 160.5,45.5 Z"/></g>
<g><path style="opacity:1" fill="#e30105" d="M 6.5,85.5 C 12.5092,85.3338 18.5092,85.5005 24.5,86C 25.4162,86.3742 26.2496,86.8742 27,87.5C 28.5863,94.0573 28.9196,100.724 28,107.5C 27.1667,108.333 26.3333,109.167 25.5,110C 18.8333,110.667 12.1667,110.667 5.5,110C 4.66667,109.167 3.83333,108.333 3,107.5C 2.33333,101.5 2.33333,95.5 3,89.5C 3.68972,87.6498 4.85639,86.3164 6.5,85.5 Z"/></g>
<g><path style="opacity:1" fill="#e30105" d="M 45.5,85.5 C 51.5092,85.3338 57.5092,85.5005 63.5,86C 64.4162,86.3742 65.2496,86.8742 66,87.5C 67.5863,94.0573 67.9196,100.724 67,107.5C 66.1667,108.333 65.3333,109.167 64.5,110C 57.8333,110.667 51.1667,110.667 44.5,110C 43.6667,109.167 42.8333,108.333 42,107.5C 41.3333,101.5 41.3333,95.5 42,89.5C 42.6897,87.6498 43.8564,86.3164 45.5,85.5 Z"/></g>
<g><path style="opacity:1" fill="#e30105" d="M 84.5,85.5 C 90.5092,85.3338 96.5092,85.5005 102.5,86C 103.931,86.4652 105.097,87.2986 106,88.5C 106.667,94.8333 106.667,101.167 106,107.5C 105.167,108.333 104.333,109.167 103.5,110C 96.8333,110.667 90.1667,110.667 83.5,110C 82.6667,109.167 81.8333,108.333 81,107.5C 80.3333,101.5 80.3333,95.5 81,89.5C 81.6897,87.6498 82.8564,86.3164 84.5,85.5 Z"/></g>
<g><path style="opacity:1" fill="#e30205" d="M 123.5,85.5 C 129.509,85.3338 135.509,85.5005 141.5,86C 142.931,86.4652 144.097,87.2986 145,88.5C 145.667,94.8333 145.667,101.167 145,107.5C 144.692,108.308 144.192,108.975 143.5,109.5C 136.55,110.63 129.55,110.797 122.5,110C 121.667,109.167 120.833,108.333 120,107.5C 119.333,101.167 119.333,94.8333 120,88.5C 121.145,87.3636 122.312,86.3636 123.5,85.5 Z"/></g>
<g><path style="opacity:1" fill="#e30205" d="M 162.5,85.5 C 168.509,85.3338 174.509,85.5005 180.5,86C 181.931,86.4652 183.097,87.2986 184,88.5C 184.667,94.8333 184.667,101.167 184,107.5C 183.692,108.308 183.192,108.975 182.5,109.5C 175.55,110.63 168.55,110.797 161.5,110C 160.667,109.167 159.833,108.333 159,107.5C 158.333,101.5 158.333,95.5 159,89.5C 159.69,87.6498 160.856,86.3164 162.5,85.5 Z"/></g>
<g><path style="opacity:1" fill="#f9f8fa" d="M 5.5,126.5 C 12.175,126.334 18.8417,126.5 25.5,127C 26.3333,127.833 27.1667,128.667 28,129.5C 28.6667,135.5 28.6667,141.5 28,147.5C 27.5348,148.931 26.7014,150.097 25.5,151C 18.8333,151.667 12.1667,151.667 5.5,151C 4.66667,150.167 3.83333,149.333 3,148.5C 2.33333,142.167 2.33333,135.833 3,129.5C 4.04499,128.627 4.87833,127.627 5.5,126.5 Z"/></g>
<g><path style="opacity:1" fill="#e30105" d="M 44.5,126.5 C 51.175,126.334 57.8417,126.5 64.5,127C 65.3333,127.833 66.1667,128.667 67,129.5C 67.6667,135.5 67.6667,141.5 67,147.5C 66.5348,148.931 65.7014,150.097 64.5,151C 58.1667,151.667 51.8333,151.667 45.5,151C 44.0692,150.535 42.9025,149.701 42,148.5C 41.3333,142.167 41.3333,135.833 42,129.5C 43.045,128.627 43.8783,127.627 44.5,126.5 Z"/></g>
<g><path style="opacity:1" fill="#e30105" d="M 83.5,126.5 C 90.175,126.334 96.8417,126.5 103.5,127C 104.333,127.833 105.167,128.667 106,129.5C 106.667,135.5 106.667,141.5 106,147.5C 105.535,148.931 104.701,150.097 103.5,151C 97.1667,151.667 90.8333,151.667 84.5,151C 83.0692,150.535 81.9025,149.701 81,148.5C 80.3333,142.167 80.3333,135.833 81,129.5C 82.045,128.627 82.8783,127.627 83.5,126.5 Z"/></g>
<g><path style="opacity:1" fill="#e30105" d="M 122.5,126.5 C 129.175,126.334 135.842,126.5 142.5,127C 143.333,127.833 144.167,128.667 145,129.5C 145.667,135.5 145.667,141.5 145,147.5C 144.535,148.931 143.701,150.097 142.5,151C 136.167,151.667 129.833,151.667 123.5,151C 122.069,150.535 120.903,149.701 120,148.5C 119.333,142.167 119.333,135.833 120,129.5C 121.045,128.627 121.878,127.627 122.5,126.5 Z"/></g>
<g><path style="opacity:1" fill="#f9f8fa" d="M 161.5,126.5 C 168.175,126.334 174.842,126.5 181.5,127C 182.333,127.833 183.167,128.667 184,129.5C 184.667,135.833 184.667,142.167 184,148.5C 183.167,149.333 182.333,150.167 181.5,151C 175.167,151.667 168.833,151.667 162.5,151C 161.069,150.535 159.903,149.701 159,148.5C 158.333,142.167 158.333,135.833 159,129.5C 160.045,128.627 160.878,127.627 161.5,126.5 Z"/></g>
<g><path style="opacity:1" fill="#f8f6f9" d="M 5.5,167.5 C 12.7546,167.187 19.9213,167.52 27,168.5C 28.5863,175.057 28.9196,181.724 28,188.5C 27.5348,189.931 26.7014,191.097 25.5,192C 19.1667,192.667 12.8333,192.667 6.5,192C 5.58377,191.626 4.75044,191.126 4,190.5C 2.41372,183.943 2.08039,177.276 3,170.5C 3.69794,169.309 4.53128,168.309 5.5,167.5 Z"/></g>
<g><path style="opacity:1" fill="#f8f6f9" d="M 44.5,167.5 C 51.7546,167.187 58.9213,167.52 66,168.5C 67.5863,175.057 67.9196,181.724 67,188.5C 66.5348,189.931 65.7014,191.097 64.5,192C 58.1667,192.667 51.8333,192.667 45.5,192C 44.5838,191.626 43.7504,191.126 43,190.5C 41.4137,183.943 41.0804,177.276 42,170.5C 42.6979,169.309 43.5313,168.309 44.5,167.5 Z"/></g>
<g><path style="opacity:1" fill="#e20207" d="M 83.5,167.5 C 90.7546,167.187 97.9213,167.52 105,168.5C 106.586,175.057 106.92,181.724 106,188.5C 105.535,189.931 104.701,191.097 103.5,192C 97.1667,192.667 90.8333,192.667 84.5,192C 83.5838,191.626 82.7504,191.126 82,190.5C 80.4137,183.943 80.0804,177.276 81,170.5C 81.6979,169.309 82.5313,168.309 83.5,167.5 Z"/></g>
<g><path style="opacity:1" fill="#f8f7f9" d="M 122.5,167.5 C 129.755,167.187 136.921,167.52 144,168.5C 145.586,175.057 145.92,181.724 145,188.5C 144.535,189.931 143.701,191.097 142.5,192C 136.167,192.667 129.833,192.667 123.5,192C 122.584,191.626 121.75,191.126 121,190.5C 119.414,183.943 119.08,177.276 120,170.5C 121.045,169.627 121.878,168.627 122.5,167.5 Z"/></g>
<g><path style="opacity:1" fill="#f8f7f9" d="M 161.5,167.5 C 168.755,167.187 175.921,167.52 183,168.5C 184.586,175.057 184.92,181.724 184,188.5C 183.535,189.931 182.701,191.097 181.5,192C 175.167,192.667 168.833,192.667 162.5,192C 161.584,191.626 160.75,191.126 160,190.5C 158.414,183.943 158.08,177.276 159,170.5C 160.045,169.627 160.878,168.627 161.5,167.5 Z"/></g>
</svg>
