<?xml version="1.0" encoding="UTF-8"?>
<!DOCTYPE svg PUBLIC "-//W3C//DTD SVG 1.1//EN" "http://www.w3.org/Graphics/SVG/1.1/DTD/svg11.dtd">
<svg xmlns="http://www.w3.org/2000/svg" version="1.1" width="187px" height="196px" style="shape-rendering:geometricPrecision; text-rendering:geometricPrecision; image-rendering:optimizeQuality; fill-rule:evenodd; clip-rule:evenodd" xmlns:xlink="http://www.w3.org/1999/xlink">
<g><path style="opacity:1" fill="#5a2e72" d="M -0.5,-0.5 C 61.8333,-0.5 124.167,-0.5 186.5,-0.5C 186.5,64.8333 186.5,130.167 186.5,195.5C 124.167,195.5 61.8333,195.5 -0.5,195.5C -0.5,130.167 -0.5,64.8333 -0.5,-0.5 Z"/></g>
<g><path style="opacity:1" fill="#f9f7fa" d="M 5.5,3.5 C 12.175,3.33375 18.8417,3.50042 25.5,4C 26.3081,4.30762 26.9747,4.80762 27.5,5.5C 28.626,11.7818 28.7927,18.1151 28,24.5C 27.5348,25.9308 26.7014,27.0975 25.5,28C 19.1667,28.6667 12.8333,28.6667 6.5,28C 5.58377,27.6258 4.75044,27.1258 4,26.5C 2.41372,19.9427 2.08039,13.276 3,6.5C 3.69794,5.30943 4.53128,4.30943 5.5,3.5 Z"/></g>
<g><path style="opacity:1" fill="#f9f7fa" d="M 44.5,3.5 C 51.175,3.33375 57.8417,3.50042 64.5,4C 65.3081,4.30762 65.9747,4.80762 66.5,5.5C 67.626,11.7818 67.7927,18.1151 67,24.5C 66.5348,25.9308 65.7014,27.0975 64.5,28C 58.1667,28.6667 51.8333,28.6667 45.5,28C 44.5838,27.6258 43.7504,27.1258 43,26.5C 41.4137,19.9427 41.0804,13.276 42,6.5C 43.045,5.62656 43.8783,4.62656 44.5,3.5 Z"/></g>
<g><path style="opacity:1" fill="#f9f7fa" d="M 122.5,3.5 C 129.175,3.33375 135.842,3.50042 142.5,4C 143.308,4.30762 143.975,4.80762 144.5,5.5C 145.626,11.7818 145.793,18.1151 145,24.5C 144.535,25.9308 143.701,27.0975 142.5,28C 136.167,28.6667 129.833,28.6667 123.5,28C 122.584,27.6258 121.75,27.1258 121,26.5C 119.414,19.9427 119.08,13.276 120,6.5C 121.045,5.62656 121.878,4.62656 122.5,3.5 Z"/></g>
<g><path style="opacity:1" fill="#f9f7fa" d="M 161.5,3.5 C 168.755,3.18678 175.921,3.52011 183,4.5C 184.586,11.0573 184.92,17.724 184,24.5C 183.535,25.9308 182.701,27.0975 181.5,28C 175.167,28.6667 168.833,28.6667 162.5,28C 161.584,27.6258 160.75,27.1258 160,26.5C 158.414,19.9427 158.08,13.276 159,6.5C 160.045,5.62656 160.878,4.62656 161.5,3.5 Z"/></g>
<g><path style="opacity:1" fill="#e30206" d="M 83.5,3.5 C 90.175,3.33375 96.8417,3.50042 103.5,4C 104.308,4.30762 104.975,4.80762 105.5,5.5C 106.626,11.7818 106.793,18.1151 106,24.5C 105.535,25.9308 104.701,27.0975 103.5,28C 97.1667,28.6667 90.8333,28.6667 84.5,28C 83.5838,27.6258 82.7504,27.1258 82,26.5C 80.4137,19.9427 80.0804,13.276 81,6.5C 82.045,5.62656 82.8783,4.62656 83.5,3.5 Z"/></g>
<g><path style="opacity:1" fill="#faf9fb" d="M 4.5,44.5 C 12.0871,44.1858 19.5871,44.5192 27,45.5C 28.5863,52.0573 28.9196,58.724 28,65.5C 27.6258,66.4162 27.1258,67.2496 26.5,68C 18.9201,68.8132 11.4201,68.6466 4,67.5C 2.91099,63.9516 2.41099,60.285 2.5,56.5C 2.2822,52.2784 2.94886,48.2784 4.5,44.5 Z"/></g>
<g><path style="opacity:1" fill="#faf9fb" d="M 43.5,44.5 C 51.0871,44.1858 58.5871,44.5192 66,45.5C 67.5863,52.0573 67.9196,58.724 67,65.5C 66.6258,66.4162 66.1258,67.2496 65.5,68C 57.9201,68.8132 50.4201,68.6466 43,67.5C 41.911,63.9516 41.411,60.285 41.5,56.5C 41.2822,52.2784 41.9489,48.2784 43.5,44.5 Z"/></g>
<g><path style="opacity:1" fill="#fbfafb" d="M 82.5,44.5 C 90.0871,44.1858 97.5871,44.5192 105,45.5C 106.586,52.0573 106.92,58.724 106,65.5C 105.626,66.4162 105.126,67.2496 104.5,68C 97.5,68.6667 90.5,68.6667 83.5,68C 82.6919,67.6924 82.0253,67.1924 81.5,66.5C 79.9164,59.0148 80.2498,51.6814 82.5,44.5 Z"/></g>
<g><path style="opacity:1" fill="#e40104" d="M 121.5,44.5 C 129.087,44.1858 136.587,44.5192 144,45.5C 145.586,52.0573 145.92,58.724 145,65.5C 144.626,66.4162 144.126,67.2496 143.5,68C 136.5,68.6667 129.5,68.6667 122.5,68C 121.692,67.6924 121.025,67.1924 120.5,66.5C 118.916,59.0148 119.25,51.6814 121.5,44.5 Z"/></g>
<g><path style="opacity:1" fill="#fbfafb" d="M 160.5,44.5 C 168.087,44.1858 175.587,44.5192 183,45.5C 184.586,52.0573 184.92,58.724 184,65.5C 183.626,66.4162 183.126,67.2496 182.5,68C 175.5,68.6667 168.5,68.6667 161.5,68C 160.692,67.6924 160.025,67.1924 159.5,66.5C 157.916,59.0148 158.25,51.6814 160.5,44.5 Z"/></g>
<g><path style="opacity:1" fill="#e30105" d="M 6.5,84.5 C 12.5092,84.3338 18.5092,84.5005 24.5,85C 25.4162,85.3742 26.2496,85.8742 27,86.5C 28.5863,93.0573 28.9196,99.724 28,106.5C 27.1667,107.333 26.3333,108.167 25.5,109C 18.8333,109.667 12.1667,109.667 5.5,109C 4.66667,108.167 3.83333,107.333 3,106.5C 2.33333,100.5 2.33333,94.5 3,88.5C 3.68972,86.6498 4.85639,85.3164 6.5,84.5 Z"/></g>
<g><path style="opacity:1" fill="#e30105" d="M 45.5,84.5 C 51.5092,84.3338 57.5092,84.5005 63.5,85C 64.4162,85.3742 65.2496,85.8742 66,86.5C 67.5863,93.0573 67.9196,99.724 67,106.5C 66.1667,107.333 65.3333,108.167 64.5,109C 57.8333,109.667 51.1667,109.667 44.5,109C 43.6667,108.167 42.8333,107.333 42,106.5C 41.3333,100.167 41.3333,93.8333 42,87.5C 43.1451,86.3636 44.3117,85.3636 45.5,84.5 Z"/></g>
<g><path style="opacity:1" fill="#e30105" d="M 84.5,84.5 C 90.5092,84.3338 96.5092,84.5005 102.5,85C 103.931,85.4652 105.097,86.2986 106,87.5C 106.667,93.8333 106.667,100.167 106,106.5C 105.167,107.333 104.333,108.167 103.5,109C 96.8333,109.667 90.1667,109.667 83.5,109C 82.6667,108.167 81.8333,107.333 81,106.5C 80.3333,100.167 80.3333,93.8333 81,87.5C 82.1451,86.3636 83.3117,85.3636 84.5,84.5 Z"/></g>
<g><path style="opacity:1" fill="#e30205" d="M 123.5,84.5 C 129.509,84.3338 135.509,84.5005 141.5,85C 142.931,85.4652 144.097,86.2986 145,87.5C 145.667,93.8333 145.667,100.167 145,106.5C 144.692,107.308 144.192,107.975 143.5,108.5C 136.55,109.63 129.55,109.797 122.5,109C 121.667,108.167 120.833,107.333 120,106.5C 119.333,100.167 119.333,93.8333 120,87.5C 121.145,86.3636 122.312,85.3636 123.5,84.5 Z"/></g>
<g><path style="opacity:1" fill="#e30205" d="M 162.5,84.5 C 168.509,84.3338 174.509,84.5005 180.5,85C 181.931,85.4652 183.097,86.2986 184,87.5C 184.667,93.8333 184.667,100.167 184,106.5C 183.692,107.308 183.192,107.975 182.5,108.5C 175.55,109.63 168.55,109.797 161.5,109C 160.667,108.167 159.833,107.333 159,106.5C 158.333,100.5 158.333,94.5 159,88.5C 159.69,86.6498 160.856,85.3164 162.5,84.5 Z"/></g>
<g><path style="opacity:1" fill="#f9f8fa" d="M 5.5,125.5 C 12.175,125.334 18.8417,125.5 25.5,126C 26.3333,126.833 27.1667,127.667 28,128.5C 28.6667,134.5 28.6667,140.5 28,146.5C 27.5348,147.931 26.7014,149.097 25.5,150C 18.8333,150.667 12.1667,150.667 5.5,150C 4.66667,149.167 3.83333,148.333 3,147.5C 2.33333,141.167 2.33333,134.833 3,128.5C 4.04499,127.627 4.87833,126.627 5.5,125.5 Z"/></g>
<g><path style="opacity:1" fill="#f9f8fa" d="M 44.5,125.5 C 51.175,125.334 57.8417,125.5 64.5,126C 65.3333,126.833 66.1667,127.667 67,128.5C 67.6667,134.5 67.6667,140.5 67,146.5C 66.5348,147.931 65.7014,149.097 64.5,150C 58.1667,150.667 51.8333,150.667 45.5,150C 44.0692,149.535 42.9025,148.701 42,147.5C 41.3333,141.167 41.3333,134.833 42,128.5C 43.045,127.627 43.8783,126.627 44.5,125.5 Z"/></g>
<g><path style="opacity:1" fill="#f9f8fa" d="M 83.5,125.5 C 90.175,125.334 96.8417,125.5 103.5,126C 104.333,126.833 105.167,127.667 106,128.5C 106.667,134.833 106.667,141.167 106,147.5C 105.167,148.333 104.333,149.167 103.5,150C 97.1667,150.667 90.8333,150.667 84.5,150C 83.0692,149.535 81.9025,148.701 81,147.5C 80.3333,141.167 80.3333,134.833 81,128.5C 82.045,127.627 82.8783,126.627 83.5,125.5 Z"/></g>
<g><path style="opacity:1" fill="#e30105" d="M 122.5,125.5 C 129.175,125.334 135.842,125.5 142.5,126C 143.333,126.833 144.167,127.667 145,128.5C 145.667,134.5 145.667,140.5 145,146.5C 144.535,147.931 143.701,149.097 142.5,150C 136.167,150.667 129.833,150.667 123.5,150C 122.069,149.535 120.903,148.701 120,147.5C 119.333,141.167 119.333,134.833 120,128.5C 121.045,127.627 121.878,126.627 122.5,125.5 Z"/></g>
<g><path style="opacity:1" fill="#f9f8fa" d="M 161.5,125.5 C 168.175,125.334 174.842,125.5 181.5,126C 182.333,126.833 183.167,127.667 184,128.5C 184.667,134.833 184.667,141.167 184,147.5C 183.167,148.333 182.333,149.167 181.5,150C 175.167,150.667 168.833,150.667 162.5,150C 161.069,149.535 159.903,148.701 159,147.5C 158.333,141.167 158.333,134.833 159,128.5C 160.045,127.627 160.878,126.627 161.5,125.5 Z"/></g>
<g><path style="opacity:1" fill="#f8f6f9" d="M 5.5,166.5 C 12.7546,166.187 19.9213,166.52 27,167.5C 28.5863,174.057 28.9196,180.724 28,187.5C 27.5348,188.931 26.7014,190.097 25.5,191C 19.1667,191.667 12.8333,191.667 6.5,191C 5.58377,190.626 4.75044,190.126 4,189.5C 2.41372,182.943 2.08039,176.276 3,169.5C 3.69794,168.309 4.53128,167.309 5.5,166.5 Z"/></g>
<g><path style="opacity:1" fill="#f8f6f9" d="M 44.5,166.5 C 51.7546,166.187 58.9213,166.52 66,167.5C 67.5863,174.057 67.9196,180.724 67,187.5C 66.5348,188.931 65.7014,190.097 64.5,191C 58.1667,191.667 51.8333,191.667 45.5,191C 44.5838,190.626 43.7504,190.126 43,189.5C 41.4137,182.943 41.0804,176.276 42,169.5C 42.6979,168.309 43.5313,167.309 44.5,166.5 Z"/></g>
<g><path style="opacity:1" fill="#e20207" d="M 83.5,166.5 C 90.7546,166.187 97.9213,166.52 105,167.5C 106.586,174.057 106.92,180.724 106,187.5C 105.535,188.931 104.701,190.097 103.5,191C 97.1667,191.667 90.8333,191.667 84.5,191C 83.5838,190.626 82.7504,190.126 82,189.5C 80.4137,182.943 80.0804,176.276 81,169.5C 81.6979,168.309 82.5313,167.309 83.5,166.5 Z"/></g>
<g><path style="opacity:1" fill="#f8f7f9" d="M 122.5,166.5 C 129.755,166.187 136.921,166.52 144,167.5C 145.586,174.057 145.92,180.724 145,187.5C 144.535,188.931 143.701,190.097 142.5,191C 136.167,191.667 129.833,191.667 123.5,191C 122.584,190.626 121.75,190.126 121,189.5C 119.414,182.943 119.08,176.276 120,169.5C 121.045,168.627 121.878,167.627 122.5,166.5 Z"/></g>
<g><path style="opacity:1" fill="#f8f7f9" d="M 161.5,166.5 C 168.755,166.187 175.921,166.52 183,167.5C 184.586,174.057 184.92,180.724 184,187.5C 183.535,188.931 182.701,190.097 181.5,191C 175.167,191.667 168.833,191.667 162.5,191C 161.584,190.626 160.75,190.126 160,189.5C 158.414,182.943 158.08,176.276 159,169.5C 160.045,168.627 160.878,167.627 161.5,166.5 Z"/></g>
</svg>
