<?xml version="1.0" encoding="UTF-8"?>
<!DOCTYPE svg PUBLIC "-//W3C//DTD SVG 1.1//EN" "http://www.w3.org/Graphics/SVG/1.1/DTD/svg11.dtd">
<svg xmlns="http://www.w3.org/2000/svg" version="1.1" width="190px" height="193px" style="shape-rendering:geometricPrecision; text-rendering:geometricPrecision; image-rendering:optimizeQuality; fill-rule:evenodd; clip-rule:evenodd" xmlns:xlink="http://www.w3.org/1999/xlink">
<g><path style="opacity:1" fill="#5a2e72" d="M -0.5,-0.5 C 62.8333,-0.5 126.167,-0.5 189.5,-0.5C 189.5,63.8333 189.5,128.167 189.5,192.5C 126.167,192.5 62.8333,192.5 -0.5,192.5C -0.5,128.167 -0.5,63.8333 -0.5,-0.5 Z"/></g>
<g><path style="opacity:1" fill="#f9f7fa" d="M 45.5,3.5 C 52.175,3.33375 58.8417,3.50042 65.5,4C 66.3081,4.30762 66.9747,4.80762 67.5,5.5C 68.626,11.7818 68.7927,18.1151 68,24.5C 67.5348,25.9308 66.7014,27.0975 65.5,28C 59.1667,28.6667 52.8333,28.6667 46.5,28C 45.5838,27.6258 44.7504,27.1258 44,26.5C 42.4137,19.9427 42.0804,13.276 43,6.5C 44.045,5.62656 44.8783,4.62656 45.5,3.5 Z"/></g>
<g><path style="opacity:1" fill="#f9f7fa" d="M 84.5,3.5 C 91.175,3.33375 97.8417,3.50042 104.5,4C 105.308,4.30762 105.975,4.80762 106.5,5.5C 107.626,11.7818 107.793,18.1151 107,24.5C 106.535,25.9308 105.701,27.0975 104.5,28C 98.1667,28.6667 91.8333,28.6667 85.5,28C 84.5838,27.6258 83.7504,27.1258 83,26.5C 81.4137,19.9427 81.0804,13.276 82,6.5C 83.045,5.62656 83.8783,4.62656 84.5,3.5 Z"/></g>
<g><path style="opacity:1" fill="#f9f7fa" d="M 123.5,3.5 C 130.175,3.33375 136.842,3.50042 143.5,4C 144.308,4.30762 144.975,4.80762 145.5,5.5C 146.626,11.7818 146.793,18.1151 146,24.5C 145.535,25.9308 144.701,27.0975 143.5,28C 137.167,28.6667 130.833,28.6667 124.5,28C 123.584,27.6258 122.75,27.1258 122,26.5C 120.414,19.9427 120.08,13.276 121,6.5C 122.045,5.62656 122.878,4.62656 123.5,3.5 Z"/></g>
<g><path style="opacity:1" fill="#e30205" d="M 6.5,3.5 C 13.175,3.33375 19.8417,3.50042 26.5,4C 27.3081,4.30762 27.9747,4.80762 28.5,5.5C 29.626,11.7818 29.7927,18.1151 29,24.5C 28.6258,25.4162 28.1258,26.2496 27.5,27C 20.9427,28.5863 14.276,28.9196 7.5,28C 6.58377,27.6258 5.75044,27.1258 5,26.5C 3.41372,19.9427 3.08039,13.276 4,6.5C 5.04499,5.62656 5.87833,4.62656 6.5,3.5 Z"/></g>
<g><path style="opacity:1" fill="#e30206" d="M 162.5,3.5 C 169.755,3.18678 176.921,3.52011 184,4.5C 185.586,11.0573 185.92,17.724 185,24.5C 184.535,25.9308 183.701,27.0975 182.5,28C 176.167,28.6667 169.833,28.6667 163.5,28C 162.584,27.6258 161.75,27.1258 161,26.5C 159.414,19.9427 159.08,13.276 160,6.5C 161.045,5.62656 161.878,4.62656 162.5,3.5 Z"/></g>
<g><path style="opacity:1" fill="#faf9fb" d="M 5.5,44.5 C 13.0871,44.1858 20.5871,44.5192 28,45.5C 29.5863,52.0573 29.9196,58.724 29,65.5C 28.6258,66.4162 28.1258,67.2496 27.5,68C 19.9201,68.8132 12.4201,68.6466 5,67.5C 3.91099,63.9516 3.41099,60.285 3.5,56.5C 3.2822,52.2784 3.94886,48.2784 5.5,44.5 Z"/></g>
<g><path style="opacity:1" fill="#e40104" d="M 44.5,44.5 C 52.0871,44.1858 59.5871,44.5192 67,45.5C 68.5863,52.0573 68.9196,58.724 68,65.5C 67.6258,66.4162 67.1258,67.2496 66.5,68C 59.5,68.6667 52.5,68.6667 45.5,68C 44.6919,67.6924 44.0253,67.1924 43.5,66.5C 41.9164,59.0148 42.2498,51.6814 44.5,44.5 Z"/></g>
<g><path style="opacity:1" fill="#fbfafb" d="M 83.5,44.5 C 91.0871,44.1858 98.5871,44.5192 106,45.5C 107.586,52.0573 107.92,58.724 107,65.5C 106.626,66.4162 106.126,67.2496 105.5,68C 98.5,68.6667 91.5,68.6667 84.5,68C 83.6919,67.6924 83.0253,67.1924 82.5,66.5C 80.9164,59.0148 81.2498,51.6814 83.5,44.5 Z"/></g>
<g><path style="opacity:1" fill="#e40104" d="M 122.5,44.5 C 130.087,44.1858 137.587,44.5192 145,45.5C 146.586,52.0573 146.92,58.724 146,65.5C 145.626,66.4162 145.126,67.2496 144.5,68C 137.5,68.6667 130.5,68.6667 123.5,68C 122.692,67.6924 122.025,67.1924 121.5,66.5C 119.916,59.0148 120.25,51.6814 122.5,44.5 Z"/></g>
<g><path style="opacity:1" fill="#fbfafb" d="M 161.5,44.5 C 169.087,44.1858 176.587,44.5192 184,45.5C 185.586,52.0573 185.92,58.724 185,65.5C 184.626,66.4162 184.126,67.2496 183.5,68C 176.5,68.6667 169.5,68.6667 162.5,68C 161.692,67.6924 161.025,67.1924 160.5,66.5C 158.916,59.0148 159.25,51.6814 161.5,44.5 Z"/></g>
<g><path style="opacity:1" fill="#f9f8fa" d="M 7.5,84.5 C 13.5092,84.3338 19.5092,84.5005 25.5,85C 26.9308,85.4652 28.0975,86.2986 29,87.5C 29.6667,93.8333 29.6667,100.167 29,106.5C 28.1667,107.333 27.3333,108.167 26.5,109C 19.8333,109.667 13.1667,109.667 6.5,109C 5.66667,108.167 4.83333,107.333 4,106.5C 3.33333,100.167 3.33333,93.8333 4,87.5C 5.14508,86.3636 6.31174,85.3636 7.5,84.5 Z"/></g>
<g><path style="opacity:1" fill="#f9f8fa" d="M 46.5,84.5 C 52.5092,84.3338 58.5092,84.5005 64.5,85C 65.9308,85.4652 67.0975,86.2986 68,87.5C 68.6667,93.8333 68.6667,100.167 68,106.5C 67.1667,107.333 66.3333,108.167 65.5,109C 58.8333,109.667 52.1667,109.667 45.5,109C 44.6667,108.167 43.8333,107.333 43,106.5C 42.3333,100.167 42.3333,93.8333 43,87.5C 44.1451,86.3636 45.3117,85.3636 46.5,84.5 Z"/></g>
<g><path style="opacity:1" fill="#e30105" d="M 85.5,84.5 C 91.5092,84.3338 97.5092,84.5005 103.5,85C 104.931,85.4652 106.097,86.2986 107,87.5C 107.667,93.8333 107.667,100.167 107,106.5C 106.167,107.333 105.333,108.167 104.5,109C 97.8333,109.667 91.1667,109.667 84.5,109C 83.6667,108.167 82.8333,107.333 82,106.5C 81.3333,100.167 81.3333,93.8333 82,87.5C 83.1451,86.3636 84.3117,85.3636 85.5,84.5 Z"/></g>
<g><path style="opacity:1" fill="#f9f8fa" d="M 124.5,84.5 C 130.509,84.3338 136.509,84.5005 142.5,85C 143.931,85.4652 145.097,86.2986 146,87.5C 146.667,93.8333 146.667,100.167 146,106.5C 145.692,107.308 145.192,107.975 144.5,108.5C 137.55,109.63 130.55,109.797 123.5,109C 122.667,108.167 121.833,107.333 121,106.5C 120.333,100.167 120.333,93.8333 121,87.5C 122.145,86.3636 123.312,85.3636 124.5,84.5 Z"/></g>
<g><path style="opacity:1" fill="#f9f8fa" d="M 163.5,84.5 C 169.509,84.3338 175.509,84.5005 181.5,85C 182.931,85.4652 184.097,86.2986 185,87.5C 185.667,93.8333 185.667,100.167 185,106.5C 184.692,107.308 184.192,107.975 183.5,108.5C 176.55,109.63 169.55,109.797 162.5,109C 161.667,108.167 160.833,107.333 160,106.5C 159.333,100.167 159.333,93.8333 160,87.5C 161.145,86.3636 162.312,85.3636 163.5,84.5 Z"/></g>
<g><path style="opacity:1" fill="#f9f8fa" d="M 6.5,125.5 C 13.175,125.334 19.8417,125.5 26.5,126C 27.3333,126.833 28.1667,127.667 29,128.5C 29.6667,134.5 29.6667,140.5 29,146.5C 28.5348,147.931 27.7014,149.097 26.5,150C 19.8333,150.667 13.1667,150.667 6.5,150C 5.66667,149.167 4.83333,148.333 4,147.5C 3.33333,141.167 3.33333,134.833 4,128.5C 5.04499,127.627 5.87833,126.627 6.5,125.5 Z"/></g>
<g><path style="opacity:1" fill="#e30105" d="M 45.5,125.5 C 52.175,125.334 58.8417,125.5 65.5,126C 66.3333,126.833 67.1667,127.667 68,128.5C 68.6667,134.5 68.6667,140.5 68,146.5C 67.5348,147.931 66.7014,149.097 65.5,150C 59.1667,150.667 52.8333,150.667 46.5,150C 45.0692,149.535 43.9025,148.701 43,147.5C 42.3333,141.167 42.3333,134.833 43,128.5C 44.045,127.627 44.8783,126.627 45.5,125.5 Z"/></g>
<g><path style="opacity:1" fill="#f9f8fa" d="M 84.5,125.5 C 91.175,125.334 97.8417,125.5 104.5,126C 105.333,126.833 106.167,127.667 107,128.5C 107.667,134.833 107.667,141.167 107,147.5C 106.167,148.333 105.333,149.167 104.5,150C 98.1667,150.667 91.8333,150.667 85.5,150C 84.0692,149.535 82.9025,148.701 82,147.5C 81.3333,141.167 81.3333,134.833 82,128.5C 83.045,127.627 83.8783,126.627 84.5,125.5 Z"/></g>
<g><path style="opacity:1" fill="#e30105" d="M 123.5,125.5 C 130.175,125.334 136.842,125.5 143.5,126C 144.333,126.833 145.167,127.667 146,128.5C 146.667,134.5 146.667,140.5 146,146.5C 145.535,147.931 144.701,149.097 143.5,150C 137.167,150.667 130.833,150.667 124.5,150C 123.069,149.535 121.903,148.701 121,147.5C 120.333,141.167 120.333,134.833 121,128.5C 122.045,127.627 122.878,126.627 123.5,125.5 Z"/></g>
<g><path style="opacity:1" fill="#f9f8fa" d="M 162.5,125.5 C 169.175,125.334 175.842,125.5 182.5,126C 183.333,126.833 184.167,127.667 185,128.5C 185.667,134.833 185.667,141.167 185,147.5C 184.167,148.333 183.333,149.167 182.5,150C 176.167,150.667 169.833,150.667 163.5,150C 162.069,149.535 160.903,148.701 160,147.5C 159.333,141.167 159.333,134.833 160,128.5C 161.045,127.627 161.878,126.627 162.5,125.5 Z"/></g>
<g><path style="opacity:1" fill="#e20206" d="M 6.5,166.5 C 13.7546,166.187 20.9213,166.52 28,167.5C 29.5863,174.057 29.9196,180.724 29,187.5C 28.6258,188.416 28.1258,189.25 27.5,190C 20.9427,191.586 14.276,191.92 7.5,191C 6.58377,190.626 5.75044,190.126 5,189.5C 3.41372,182.943 3.08039,176.276 4,169.5C 4.69794,168.309 5.53128,167.309 6.5,166.5 Z"/></g>
<g><path style="opacity:1" fill="#f8f6f9" d="M 45.5,166.5 C 52.7546,166.187 59.9213,166.52 67,167.5C 68.5863,174.057 68.9196,180.724 68,187.5C 67.5348,188.931 66.7014,190.097 65.5,191C 59.1667,191.667 52.8333,191.667 46.5,191C 45.5838,190.626 44.7504,190.126 44,189.5C 42.4137,182.943 42.0804,176.276 43,169.5C 43.6979,168.309 44.5313,167.309 45.5,166.5 Z"/></g>
<g><path style="opacity:1" fill="#f8f6f9" d="M 84.5,166.5 C 91.7546,166.187 98.9213,166.52 106,167.5C 107.586,174.057 107.92,180.724 107,187.5C 106.535,188.931 105.701,190.097 104.5,191C 98.1667,191.667 91.8333,191.667 85.5,191C 84.5838,190.626 83.7504,190.126 83,189.5C 81.4137,182.943 81.0804,176.276 82,169.5C 82.6979,168.309 83.5313,167.309 84.5,166.5 Z"/></g>
<g><path style="opacity:1" fill="#f8f7f9" d="M 123.5,166.5 C 130.755,166.187 137.921,166.52 145,167.5C 146.586,174.057 146.92,180.724 146,187.5C 145.535,188.931 144.701,190.097 143.5,191C 137.167,191.667 130.833,191.667 124.5,191C 123.584,190.626 122.75,190.126 122,189.5C 120.414,182.943 120.08,176.276 121,169.5C 122.045,168.627 122.878,167.627 123.5,166.5 Z"/></g>
<g><path style="opacity:1" fill="#e20207" d="M 162.5,166.5 C 169.755,166.187 176.921,166.52 184,167.5C 185.586,174.057 185.92,180.724 185,187.5C 184.535,188.931 183.701,190.097 182.5,191C 176.167,191.667 169.833,191.667 163.5,191C 162.584,190.626 161.75,190.126 161,189.5C 159.414,182.943 159.08,176.276 160,169.5C 161.045,168.627 161.878,167.627 162.5,166.5 Z"/></g>
</svg>
