<?xml version="1.0" encoding="UTF-8"?>
<!DOCTYPE svg PUBLIC "-//W3C//DTD SVG 1.1//EN" "http://www.w3.org/Graphics/SVG/1.1/DTD/svg11.dtd">
<svg xmlns="http://www.w3.org/2000/svg" version="1.1" width="192px" height="197px" style="shape-rendering:geometricPrecision; text-rendering:geometricPrecision; image-rendering:optimizeQuality; fill-rule:evenodd; clip-rule:evenodd" xmlns:xlink="http://www.w3.org/1999/xlink">
<g><path style="opacity:1" fill="#5a2d72" d="M -0.5,-0.5 C 63.5,-0.5 127.5,-0.5 191.5,-0.5C 191.5,65.1667 191.5,130.833 191.5,196.5C 127.5,196.5 63.5,196.5 -0.5,196.5C -0.5,130.833 -0.5,65.1667 -0.5,-0.5 Z"/></g>
<g><path style="opacity:1" fill="#f9f7fa" d="M 8.5,4.5 C 15.175,4.33375 21.8417,4.50042 28.5,5C 29.3081,5.30762 29.9747,5.80762 30.5,6.5C 31.626,12.7818 31.7927,19.1151 31,25.5C 30.5348,26.9308 29.7014,28.0975 28.5,29C 22.1667,29.6667 15.8333,29.6667 9.5,29C 8.58377,28.6258 7.75044,28.1258 7,27.5C 5.41372,20.9427 5.08039,14.276 6,7.5C 6.69794,6.30943 7.53128,5.30943 8.5,4.5 Z"/></g>
<g><path style="opacity:1" fill="#f9f7fa" d="M 86.5,4.5 C 93.175,4.33375 99.8417,4.50042 106.5,5C 107.308,5.30762 107.975,5.80762 108.5,6.5C 109.626,12.7818 109.793,19.1151 109,25.5C 108.535,26.9308 107.701,28.0975 106.5,29C 100.167,29.6667 93.8333,29.6667 87.5,29C 86.5838,28.6258 85.7504,28.1258 85,27.5C 83.4137,20.9427 83.0804,14.276 84,7.5C 85.045,6.62656 85.8783,5.62656 86.5,4.5 Z"/></g>
<g><path style="opacity:1" fill="#f9f7fa" d="M 164.5,4.5 C 171.755,4.18678 178.921,4.52011 186,5.5C 187.586,12.0573 187.92,18.724 187,25.5C 186.535,26.9308 185.701,28.0975 184.5,29C 178.167,29.6667 171.833,29.6667 165.5,29C 164.584,28.6258 163.75,28.1258 163,27.5C 161.414,20.9427 161.08,14.276 162,7.5C 163.045,6.62656 163.878,5.62656 164.5,4.5 Z"/></g>
<g><path style="opacity:1" fill="#e30205" d="M 47.5,4.5 C 54.175,4.33375 60.8417,4.50042 67.5,5C 68.3081,5.30762 68.9747,5.80762 69.5,6.5C 70.626,12.7818 70.7927,19.1151 70,25.5C 69.6258,26.4162 69.1258,27.2496 68.5,28C 61.9427,29.5863 55.276,29.9196 48.5,29C 47.5838,28.6258 46.7504,28.1258 46,27.5C 44.4137,20.9427 44.0804,14.276 45,7.5C 46.045,6.62656 46.8783,5.62656 47.5,4.5 Z"/></g>
<g><path style="opacity:1" fill="#e30206" d="M 125.5,4.5 C 132.175,4.33375 138.842,4.50042 145.5,5C 146.308,5.30762 146.975,5.80762 147.5,6.5C 148.626,12.7818 148.793,19.1151 148,25.5C 147.535,26.9308 146.701,28.0975 145.5,29C 139.167,29.6667 132.833,29.6667 126.5,29C 125.584,28.6258 124.75,28.1258 124,27.5C 122.414,20.9427 122.08,14.276 123,7.5C 124.045,6.62656 124.878,5.62656 125.5,4.5 Z"/></g>
<g><path style="opacity:1" fill="#faf9fb" d="M 7.5,45.5 C 15.0871,45.1858 22.5871,45.5192 30,46.5C 31.5863,53.0573 31.9196,59.724 31,66.5C 30.6258,67.4162 30.1258,68.2496 29.5,69C 21.9201,69.8132 14.4201,69.6466 7,68.5C 5.91099,64.9516 5.41099,61.285 5.5,57.5C 5.2822,53.2784 5.94886,49.2784 7.5,45.5 Z"/></g>
<g><path style="opacity:1" fill="#e40104" d="M 46.5,45.5 C 54.0871,45.1858 61.5871,45.5192 69,46.5C 70.5863,53.0573 70.9196,59.724 70,66.5C 69.6258,67.4162 69.1258,68.2496 68.5,69C 61.5,69.6667 54.5,69.6667 47.5,69C 46.6919,68.6924 46.0253,68.1924 45.5,67.5C 43.9164,60.0148 44.2498,52.6814 46.5,45.5 Z"/></g>
<g><path style="opacity:1" fill="#fbfafb" d="M 85.5,45.5 C 93.0871,45.1858 100.587,45.5192 108,46.5C 109.586,53.0573 109.92,59.724 109,66.5C 108.626,67.4162 108.126,68.2496 107.5,69C 100.5,69.6667 93.5,69.6667 86.5,69C 85.6919,68.6924 85.0253,68.1924 84.5,67.5C 82.9164,60.0148 83.2498,52.6814 85.5,45.5 Z"/></g>
<g><path style="opacity:1" fill="#e40104" d="M 124.5,45.5 C 132.087,45.1858 139.587,45.5192 147,46.5C 148.586,53.0573 148.92,59.724 148,66.5C 147.626,67.4162 147.126,68.2496 146.5,69C 139.5,69.6667 132.5,69.6667 125.5,69C 124.692,68.6924 124.025,68.1924 123.5,67.5C 121.916,60.0148 122.25,52.6814 124.5,45.5 Z"/></g>
<g><path style="opacity:1" fill="#fbfafb" d="M 163.5,45.5 C 171.087,45.1858 178.587,45.5192 186,46.5C 187.586,53.0573 187.92,59.724 187,66.5C 186.626,67.4162 186.126,68.2496 185.5,69C 178.5,69.6667 171.5,69.6667 164.5,69C 163.692,68.6924 163.025,68.1924 162.5,67.5C 160.916,60.0148 161.25,52.6814 163.5,45.5 Z"/></g>
<g><path style="opacity:1" fill="#f9f8fa" d="M 9.5,85.5 C 15.5092,85.3338 21.5092,85.5005 27.5,86C 28.9308,86.4652 30.0975,87.2986 31,88.5C 31.6667,94.8333 31.6667,101.167 31,107.5C 30.1667,108.333 29.3333,109.167 28.5,110C 21.8333,110.667 15.1667,110.667 8.5,110C 7.66667,109.167 6.83333,108.333 6,107.5C 5.33333,101.167 5.33333,94.8333 6,88.5C 7.14508,87.3636 8.31174,86.3636 9.5,85.5 Z"/></g>
<g><path style="opacity:1" fill="#f9f8fa" d="M 48.5,85.5 C 54.5092,85.3338 60.5092,85.5005 66.5,86C 67.9308,86.4652 69.0975,87.2986 70,88.5C 70.6667,94.8333 70.6667,101.167 70,107.5C 69.1667,108.333 68.3333,109.167 67.5,110C 60.8333,110.667 54.1667,110.667 47.5,110C 46.6667,109.167 45.8333,108.333 45,107.5C 44.3333,101.167 44.3333,94.8333 45,88.5C 46.1451,87.3636 47.3117,86.3636 48.5,85.5 Z"/></g>
<g><path style="opacity:1" fill="#f9f8fa" d="M 87.5,85.5 C 93.5092,85.3338 99.5092,85.5005 105.5,86C 106.931,86.4652 108.097,87.2986 109,88.5C 109.667,94.8333 109.667,101.167 109,107.5C 108.692,108.308 108.192,108.975 107.5,109.5C 100.55,110.63 93.5505,110.797 86.5,110C 85.6667,109.167 84.8333,108.333 84,107.5C 83.3333,101.167 83.3333,94.8333 84,88.5C 85.1451,87.3636 86.3117,86.3636 87.5,85.5 Z"/></g>
<g><path style="opacity:1" fill="#f9f8fa" d="M 126.5,85.5 C 132.509,85.3338 138.509,85.5005 144.5,86C 145.931,86.4652 147.097,87.2986 148,88.5C 148.667,94.8333 148.667,101.167 148,107.5C 147.692,108.308 147.192,108.975 146.5,109.5C 139.55,110.63 132.55,110.797 125.5,110C 124.667,109.167 123.833,108.333 123,107.5C 122.333,101.167 122.333,94.8333 123,88.5C 124.145,87.3636 125.312,86.3636 126.5,85.5 Z"/></g>
<g><path style="opacity:1" fill="#f9f8fa" d="M 165.5,85.5 C 171.509,85.3338 177.509,85.5005 183.5,86C 184.931,86.4652 186.097,87.2986 187,88.5C 187.667,94.8333 187.667,101.167 187,107.5C 186.692,108.308 186.192,108.975 185.5,109.5C 178.55,110.63 171.55,110.797 164.5,110C 163.667,109.167 162.833,108.333 162,107.5C 161.333,101.167 161.333,94.8333 162,88.5C 163.145,87.3636 164.312,86.3636 165.5,85.5 Z"/></g>
<g><path style="opacity:1" fill="#e30104" d="M 8.5,126.5 C 15.175,126.334 21.8417,126.5 28.5,127C 29.3333,127.833 30.1667,128.667 31,129.5C 31.6667,135.5 31.6667,141.5 31,147.5C 30.6258,148.416 30.1258,149.25 29.5,150C 22.9427,151.586 16.276,151.92 9.5,151C 8.06919,150.535 6.90252,149.701 6,148.5C 5.33333,142.167 5.33333,135.833 6,129.5C 7.04499,128.627 7.87833,127.627 8.5,126.5 Z"/></g>
<g><path style="opacity:1" fill="#f9f8fa" d="M 47.5,126.5 C 54.175,126.334 60.8417,126.5 67.5,127C 68.3333,127.833 69.1667,128.667 70,129.5C 70.6667,135.5 70.6667,141.5 70,147.5C 69.5348,148.931 68.7014,150.097 67.5,151C 61.1667,151.667 54.8333,151.667 48.5,151C 47.0692,150.535 45.9025,149.701 45,148.5C 44.3333,142.167 44.3333,135.833 45,129.5C 46.045,128.627 46.8783,127.627 47.5,126.5 Z"/></g>
<g><path style="opacity:1" fill="#f9f8fa" d="M 86.5,126.5 C 93.175,126.334 99.8417,126.5 106.5,127C 107.333,127.833 108.167,128.667 109,129.5C 109.667,135.833 109.667,142.167 109,148.5C 108.167,149.333 107.333,150.167 106.5,151C 100.167,151.667 93.8333,151.667 87.5,151C 86.0692,150.535 84.9025,149.701 84,148.5C 83.3333,142.167 83.3333,135.833 84,129.5C 85.045,128.627 85.8783,127.627 86.5,126.5 Z"/></g>
<g><path style="opacity:1" fill="#f9f8fa" d="M 125.5,126.5 C 132.175,126.334 138.842,126.5 145.5,127C 146.333,127.833 147.167,128.667 148,129.5C 148.667,135.833 148.667,142.167 148,148.5C 147.167,149.333 146.333,150.167 145.5,151C 139.167,151.667 132.833,151.667 126.5,151C 125.069,150.535 123.903,149.701 123,148.5C 122.333,142.167 122.333,135.833 123,129.5C 124.045,128.627 124.878,127.627 125.5,126.5 Z"/></g>
<g><path style="opacity:1" fill="#e30205" d="M 164.5,126.5 C 171.175,126.334 177.842,126.5 184.5,127C 185.333,127.833 186.167,128.667 187,129.5C 187.667,135.833 187.667,142.167 187,148.5C 186.167,149.333 185.333,150.167 184.5,151C 178.167,151.667 171.833,151.667 165.5,151C 164.069,150.535 162.903,149.701 162,148.5C 161.333,142.167 161.333,135.833 162,129.5C 163.045,128.627 163.878,127.627 164.5,126.5 Z"/></g>
<g><path style="opacity:1" fill="#f8f6f9" d="M 8.5,167.5 C 15.7546,167.187 22.9213,167.52 30,168.5C 31.5863,175.057 31.9196,181.724 31,188.5C 30.5348,189.931 29.7014,191.097 28.5,192C 22.1667,192.667 15.8333,192.667 9.5,192C 8.58377,191.626 7.75044,191.126 7,190.5C 5.41372,183.943 5.08039,177.276 6,170.5C 6.69794,169.309 7.53128,168.309 8.5,167.5 Z"/></g>
<g><path style="opacity:1" fill="#e20206" d="M 47.5,167.5 C 54.7546,167.187 61.9213,167.52 69,168.5C 70.5863,175.057 70.9196,181.724 70,188.5C 69.6258,189.416 69.1258,190.25 68.5,191C 61.9427,192.586 55.276,192.92 48.5,192C 47.5838,191.626 46.7504,191.126 46,190.5C 44.4137,183.943 44.0804,177.276 45,170.5C 45.6979,169.309 46.5313,168.309 47.5,167.5 Z"/></g>
<g><path style="opacity:1" fill="#e20207" d="M 86.5,167.5 C 93.7546,167.187 100.921,167.52 108,168.5C 109.586,175.057 109.92,181.724 109,188.5C 108.535,189.931 107.701,191.097 106.5,192C 100.167,192.667 93.8333,192.667 87.5,192C 86.5838,191.626 85.7504,191.126 85,190.5C 83.4137,183.943 83.0804,177.276 84,170.5C 84.6979,169.309 85.5313,168.309 86.5,167.5 Z"/></g>
<g><path style="opacity:1" fill="#e20207" d="M 125.5,167.5 C 132.755,167.187 139.921,167.52 147,168.5C 148.586,175.057 148.92,181.724 148,188.5C 147.535,189.931 146.701,191.097 145.5,192C 139.167,192.667 132.833,192.667 126.5,192C 125.584,191.626 124.75,191.126 124,190.5C 122.414,183.943 122.08,177.276 123,170.5C 124.045,169.627 124.878,168.627 125.5,167.5 Z"/></g>
<g><path style="opacity:1" fill="#f8f7f9" d="M 164.5,167.5 C 171.755,167.187 178.921,167.52 186,168.5C 187.586,175.057 187.92,181.724 187,188.5C 186.535,189.931 185.701,191.097 184.5,192C 178.167,192.667 171.833,192.667 165.5,192C 164.584,191.626 163.75,191.126 163,190.5C 161.414,183.943 161.08,177.276 162,170.5C 163.045,169.627 163.878,168.627 164.5,167.5 Z"/></g>
</svg>
