<?xml version="1.0" encoding="UTF-8"?>
<!DOCTYPE svg PUBLIC "-//W3C//DTD SVG 1.1//EN" "http://www.w3.org/Graphics/SVG/1.1/DTD/svg11.dtd">
<svg xmlns="http://www.w3.org/2000/svg" version="1.1" width="142px" height="145px" style="shape-rendering:geometricPrecision; text-rendering:geometricPrecision; image-rendering:optimizeQuality; fill-rule:evenodd; clip-rule:evenodd" xmlns:xlink="http://www.w3.org/1999/xlink">
<g><path style="opacity:1" fill="#5b2e71" d="M -0.5,-0.5 C 46.8333,-0.5 94.1667,-0.5 141.5,-0.5C 141.5,47.8333 141.5,96.1667 141.5,144.5C 94.1667,144.5 46.8333,144.5 -0.5,144.5C -0.5,96.1667 -0.5,47.8333 -0.5,-0.5 Z"/></g>
<g><path style="opacity:1" fill="#e40103" d="M 5.5,3.5 C 11.0934,3.19343 16.5934,3.52676 22,4.5C 22.6667,9.5 22.6667,14.5 22,19.5C 21.5,20 21,20.5 20.5,21C 3.75716,25.0944 -1.24284,19.261 5.5,3.5 Z"/></g>
<g><path style="opacity:1" fill="#fbfbfc" d="M 33.5,3.5 C 39.2055,3.17124 44.8722,3.50457 50.5,4.5C 55.5393,19.9614 50.2059,25.4614 34.5,21C 34,20.5 33.5,20 33,19.5C 32.2665,14.1149 32.4332,8.78154 33.5,3.5 Z"/></g>
<g><path style="opacity:1" fill="#e50002" d="M 62.5,3.5 C 67.8437,3.33398 73.1771,3.50065 78.5,4C 79,4.5 79.5,5 80,5.5C 80.6667,10.1667 80.6667,14.8333 80,19.5C 79.5,20 79,20.5 78.5,21C 73.5,21.6667 68.5,21.6667 63.5,21C 63,20.5 62.5,20 62,19.5C 61.2665,14.1149 61.4332,8.78154 62.5,3.5 Z"/></g>
<g><path style="opacity:1" fill="#fbfafb" d="M 91.5,3.5 C 96.8437,3.33398 102.177,3.50065 107.5,4C 108,4.5 108.5,5 109,5.5C 109.667,10.1667 109.667,14.8333 109,19.5C 108.5,20 108,20.5 107.5,21C 91.2471,25.2456 85.9138,19.4122 91.5,3.5 Z"/></g>
<g><path style="opacity:1" fill="#e30105" d="M 120.5,3.5 C 125.844,3.33398 131.177,3.50065 136.5,4C 137,4.5 137.5,5 138,5.5C 138.667,10.1667 138.667,14.8333 138,19.5C 137.5,20 137,20.5 136.5,21C 131.167,21.6667 125.833,21.6667 120.5,21C 119.187,15.167 119.187,9.33366 120.5,3.5 Z"/></g>
<g><path style="opacity:1" fill="#e50103" d="M 5.5,33.5 C 10.5111,33.3341 15.5111,33.5007 20.5,34C 21,34.5 21.5,35 22,35.5C 22.6667,40.1667 22.6667,44.8333 22,49.5C 21.5,50 21,50.5 20.5,51C 3.75716,55.0944 -1.24284,49.261 5.5,33.5 Z"/></g>
<g><path style="opacity:1" fill="#fcfbfc" d="M 34.5,33.5 C 39.5111,33.3341 44.5111,33.5007 49.5,34C 50,34.5 50.5,35 51,35.5C 51.6667,40.1667 51.6667,44.8333 51,49.5C 50.5,50 50,50.5 49.5,51C 44.1357,51.8295 38.8023,51.6628 33.5,50.5C 31.8983,44.6066 32.2316,38.9399 34.5,33.5 Z"/></g>
<g><path style="opacity:1" fill="#e50002" d="M 62.5,33.5 C 67.8437,33.334 73.1771,33.5006 78.5,34C 79,34.5 79.5,35 80,35.5C 80.6667,40.1667 80.6667,44.8333 80,49.5C 79.5,50 79,50.5 78.5,51C 73.5,51.6667 68.5,51.6667 63.5,51C 63,50.5 62.5,50 62,49.5C 61.2665,44.1149 61.4332,38.7815 62.5,33.5 Z"/></g>
<g><path style="opacity:1" fill="#fbfafb" d="M 91.5,33.5 C 96.8437,33.334 102.177,33.5006 107.5,34C 108,34.5 108.5,35 109,35.5C 109.667,40.1667 109.667,44.8333 109,49.5C 108.5,50 108,50.5 107.5,51C 91.2471,55.2456 85.9138,49.4122 91.5,33.5 Z"/></g>
<g><path style="opacity:1" fill="#e30105" d="M 120.5,33.5 C 125.844,33.334 131.177,33.5006 136.5,34C 137,34.5 137.5,35 138,35.5C 138.667,40.1667 138.667,44.8333 138,49.5C 137.5,50 137,50.5 136.5,51C 131.167,51.6667 125.833,51.6667 120.5,51C 119.187,45.167 119.187,39.3337 120.5,33.5 Z"/></g>
<g><path style="opacity:1" fill="#e40103" d="M 5.5,63.5 C 10.5111,63.3341 15.5111,63.5007 20.5,64C 21,64.5 21.5,65 22,65.5C 22.8037,70.7513 22.637,75.918 21.5,81C 16.1667,81.6667 10.8333,81.6667 5.5,81C 5,80.5 4.5,80 4,79.5C 2.94555,73.8855 3.44555,68.5522 5.5,63.5 Z"/></g>
<g><path style="opacity:1" fill="#e50002" d="M 34.5,63.5 C 39.5111,63.3341 44.5111,63.5007 49.5,64C 50,64.5 50.5,65 51,65.5C 51.6667,70.1667 51.6667,74.8333 51,79.5C 50.5,80 50,80.5 49.5,81C 44.1357,81.8295 38.8023,81.6628 33.5,80.5C 31.8983,74.6066 32.2316,68.9399 34.5,63.5 Z"/></g>
<g><path style="opacity:1" fill="#e50002" d="M 63.5,63.5 C 68.5111,63.3341 73.5111,63.5007 78.5,64C 79,64.5 79.5,65 80,65.5C 80.6667,70.1667 80.6667,74.8333 80,79.5C 79.5,80 79,80.5 78.5,81C 73.1357,81.8295 67.8023,81.6628 62.5,80.5C 60.8983,74.6066 61.2316,68.9399 63.5,63.5 Z"/></g>
<g><path style="opacity:1" fill="#e40103" d="M 108.5,80.5 C 103.26,81.4491 97.9265,81.7825 92.5,81.5C 91.8826,81.3893 91.3826,81.056 91,80.5C 90.3333,75.5 90.3333,70.5 91,65.5C 91.5,65 92,64.5 92.5,64C 108.237,59.5693 113.57,65.0693 108.5,80.5 Z"/></g>
<g><path style="opacity:1" fill="#e30205" d="M 120.5,63.5 C 125.844,63.334 131.177,63.5006 136.5,64C 137,64.5 137.5,65 138,65.5C 138.667,70.1667 138.667,74.8333 138,79.5C 137.5,80 137,80.5 136.5,81C 131.167,81.6667 125.833,81.6667 120.5,81C 119.187,75.167 119.187,69.3337 120.5,63.5 Z"/></g>
<g><path style="opacity:1" fill="#851f4f" d="M 108.5,80.5 C 106.257,81.8117 103.59,82.4783 100.5,82.5C 97.6445,82.4975 94.9779,82.1641 92.5,81.5C 97.9265,81.7825 103.26,81.4491 108.5,80.5 Z"/></g>
<g><path style="opacity:1" fill="#faf8fa" d="M 5.5,93.5 C 10.5111,93.3341 15.5111,93.5007 20.5,94C 21,94.5 21.5,95 22,95.5C 22.8037,100.751 22.637,105.918 21.5,111C 15.5837,111.807 9.75039,111.641 4,110.5C 3.33333,105.5 3.33333,100.5 4,95.5C 4.71719,94.9558 5.21719,94.2891 5.5,93.5 Z"/></g>
<g><path style="opacity:1" fill="#fbf9fb" d="M 34.5,93.5 C 39.5111,93.3341 44.5111,93.5007 49.5,94C 50,94.5 50.5,95 51,95.5C 51.8037,100.751 51.637,105.918 50.5,111C 44.5837,111.807 38.7504,111.641 33,110.5C 32.3333,105.5 32.3333,100.5 33,95.5C 33.7172,94.9558 34.2172,94.2891 34.5,93.5 Z"/></g>
<g><path style="opacity:1" fill="#e40103" d="M 63.5,93.5 C 68.5111,93.3341 73.5111,93.5007 78.5,94C 79,94.5 79.5,95 80,95.5C 80.781,100.554 80.6143,105.554 79.5,110.5C 73.612,111.807 67.7787,111.807 62,110.5C 61.3333,105.5 61.3333,100.5 62,95.5C 62.7172,94.9558 63.2172,94.2891 63.5,93.5 Z"/></g>
<g><path style="opacity:1" fill="#faf9fb" d="M 92.5,93.5 C 97.5111,93.3341 102.511,93.5007 107.5,94C 108,94.5 108.5,95 109,95.5C 109.781,100.554 109.614,105.554 108.5,110.5C 102.612,111.807 96.7787,111.807 91,110.5C 90.3333,105.5 90.3333,100.5 91,95.5C 91.7172,94.9558 92.2172,94.2891 92.5,93.5 Z"/></g>
<g><path style="opacity:1" fill="#f9f8fa" d="M 121.5,93.5 C 126.511,93.3341 131.511,93.5007 136.5,94C 137,94.5 137.5,95 138,95.5C 138.667,100.167 138.667,104.833 138,109.5C 137.5,110 137,110.5 136.5,111C 130.916,111.806 125.416,111.639 120,110.5C 118.958,104.545 119.458,98.878 121.5,93.5 Z"/></g>
<g><path style="opacity:1" fill="#f6f4f7" d="M 5.5,123.5 C 10.5111,123.334 15.5111,123.501 20.5,124C 21,124.5 21.5,125 22,125.5C 22.6667,130.5 22.6667,135.5 22,140.5C 21.5,141 21,141.5 20.5,142C 15.5,142.667 10.5,142.667 5.5,142C 5,141.5 4.5,141 4,140.5C 3.33333,135.5 3.33333,130.5 4,125.5C 4.71719,124.956 5.21719,124.289 5.5,123.5 Z"/></g>
<g><path style="opacity:1" fill="#f7f5f8" d="M 34.5,123.5 C 39.5111,123.334 44.5111,123.501 49.5,124C 50,124.5 50.5,125 51,125.5C 51.6667,130.5 51.6667,135.5 51,140.5C 50.5,141 50,141.5 49.5,142C 44.5,142.667 39.5,142.667 34.5,142C 34,141.5 33.5,141 33,140.5C 32.3333,135.5 32.3333,130.5 33,125.5C 33.7172,124.956 34.2172,124.289 34.5,123.5 Z"/></g>
<g><path style="opacity:1" fill="#e10208" d="M 63.5,123.5 C 68.5111,123.334 73.5111,123.501 78.5,124C 79,124.5 79.5,125 80,125.5C 80.6667,130.5 80.6667,135.5 80,140.5C 79.5,141 79,141.5 78.5,142C 73.5,142.667 68.5,142.667 63.5,142C 63,141.5 62.5,141 62,140.5C 61.3333,135.5 61.3333,130.5 62,125.5C 62.7172,124.956 63.2172,124.289 63.5,123.5 Z"/></g>
<g><path style="opacity:1" fill="#f6f4f7" d="M 92.5,123.5 C 97.5111,123.334 102.511,123.501 107.5,124C 108,124.5 108.5,125 109,125.5C 109.667,130.5 109.667,135.5 109,140.5C 108.5,141 108,141.5 107.5,142C 102.5,142.667 97.5,142.667 92.5,142C 92,141.5 91.5,141 91,140.5C 90.3333,135.5 90.3333,130.5 91,125.5C 91.7172,124.956 92.2172,124.289 92.5,123.5 Z"/></g>
<g><path style="opacity:1" fill="#f5f2f6" d="M 121.5,123.5 C 126.511,123.334 131.511,123.501 136.5,124C 137,124.5 137.5,125 138,125.5C 138.667,130.5 138.667,135.5 138,140.5C 137.5,141 137,141.5 136.5,142C 131.5,142.667 126.5,142.667 121.5,142C 121,141.5 120.5,141 120,140.5C 118.958,134.545 119.458,128.878 121.5,123.5 Z"/></g>
</svg>
