<?xml version="1.0" encoding="UTF-8"?>
<!DOCTYPE svg PUBLIC "-//W3C//DTD SVG 1.1//EN" "http://www.w3.org/Graphics/SVG/1.1/DTD/svg11.dtd">
<svg xmlns="http://www.w3.org/2000/svg" version="1.1" width="187px" height="196px" style="shape-rendering:geometricPrecision; text-rendering:geometricPrecision; image-rendering:optimizeQuality; fill-rule:evenodd; clip-rule:evenodd" xmlns:xlink="http://www.w3.org/1999/xlink">
<g><path style="opacity:1" fill="#5a2e72" d="M -0.5,-0.5 C 61.8333,-0.5 124.167,-0.5 186.5,-0.5C 186.5,64.8333 186.5,130.167 186.5,195.5C 124.167,195.5 61.8333,195.5 -0.5,195.5C -0.5,130.167 -0.5,64.8333 -0.5,-0.5 Z"/></g>
<g><path style="opacity:1" fill="#f9f7fa" d="M 5.5,2.5 C 12.175,2.33375 18.8417,2.50042 25.5,3C 26.3081,3.30762 26.9747,3.80762 27.5,4.5C 28.626,10.7818 28.7927,17.1151 28,23.5C 27.5348,24.9308 26.7014,26.0975 25.5,27C 19.1667,27.6667 12.8333,27.6667 6.5,27C 5.58377,26.6258 4.75044,26.1258 4,25.5C 2.41372,18.9427 2.08039,12.276 3,5.5C 3.69794,4.30943 4.53128,3.30943 5.5,2.5 Z"/></g>
<g><path style="opacity:1" fill="#f9f7fa" d="M 44.5,2.5 C 51.175,2.33375 57.8417,2.50042 64.5,3C 65.3081,3.30762 65.9747,3.80762 66.5,4.5C 67.626,10.7818 67.7927,17.1151 67,23.5C 66.5348,24.9308 65.7014,26.0975 64.5,27C 58.1667,27.6667 51.8333,27.6667 45.5,27C 44.5838,26.6258 43.7504,26.1258 43,25.5C 41.4137,18.9427 41.0804,12.276 42,5.5C 43.045,4.62656 43.8783,3.62656 44.5,2.5 Z"/></g>
<g><path style="opacity:1" fill="#f9f7fa" d="M 83.5,2.5 C 90.175,2.33375 96.8417,2.50042 103.5,3C 104.308,3.30762 104.975,3.80762 105.5,4.5C 106.626,10.7818 106.793,17.1151 106,23.5C 105.535,24.9308 104.701,26.0975 103.5,27C 97.1667,27.6667 90.8333,27.6667 84.5,27C 83.5838,26.6258 82.7504,26.1258 82,25.5C 80.4137,18.9427 80.0804,12.276 81,5.5C 82.045,4.62656 82.8783,3.62656 83.5,2.5 Z"/></g>
<g><path style="opacity:1" fill="#f9f7fa" d="M 122.5,2.5 C 129.175,2.33375 135.842,2.50042 142.5,3C 143.308,3.30762 143.975,3.80762 144.5,4.5C 145.626,10.7818 145.793,17.1151 145,23.5C 144.535,24.9308 143.701,26.0975 142.5,27C 136.167,27.6667 129.833,27.6667 123.5,27C 122.584,26.6258 121.75,26.1258 121,25.5C 119.414,18.9427 119.08,12.276 120,5.5C 121.045,4.62656 121.878,3.62656 122.5,2.5 Z"/></g>
<g><path style="opacity:1" fill="#f9f7fa" d="M 161.5,2.5 C 168.755,2.18678 175.921,2.52011 183,3.5C 184.586,10.0573 184.92,16.724 184,23.5C 183.535,24.9308 182.701,26.0975 181.5,27C 175.167,27.6667 168.833,27.6667 162.5,27C 161.584,26.6258 160.75,26.1258 160,25.5C 158.414,18.9427 158.08,12.276 159,5.5C 160.045,4.62656 160.878,3.62656 161.5,2.5 Z"/></g>
<g><path style="opacity:1" fill="#faf9fb" d="M 4.5,43.5 C 12.0871,43.1858 19.5871,43.5192 27,44.5C 28.5863,51.0573 28.9196,57.724 28,64.5C 27.6258,65.4162 27.1258,66.2496 26.5,67C 18.9201,67.8132 11.4201,67.6466 4,66.5C 2.91099,62.9516 2.41099,59.285 2.5,55.5C 2.2822,51.2784 2.94886,47.2784 4.5,43.5 Z"/></g>
<g><path style="opacity:1" fill="#faf9fb" d="M 43.5,43.5 C 51.0871,43.1858 58.5871,43.5192 66,44.5C 67.5863,51.0573 67.9196,57.724 67,64.5C 66.6258,65.4162 66.1258,66.2496 65.5,67C 57.9201,67.8132 50.4201,67.6466 43,66.5C 41.911,62.9516 41.411,59.285 41.5,55.5C 41.2822,51.2784 41.9489,47.2784 43.5,43.5 Z"/></g>
<g><path style="opacity:1" fill="#fbfafb" d="M 82.5,43.5 C 90.0871,43.1858 97.5871,43.5192 105,44.5C 106.586,51.0573 106.92,57.724 106,64.5C 105.626,65.4162 105.126,66.2496 104.5,67C 97.5,67.6667 90.5,67.6667 83.5,67C 82.6919,66.6924 82.0253,66.1924 81.5,65.5C 79.9164,58.0148 80.2498,50.6814 82.5,43.5 Z"/></g>
<g><path style="opacity:1" fill="#fbfafb" d="M 121.5,43.5 C 129.087,43.1858 136.587,43.5192 144,44.5C 145.586,51.0573 145.92,57.724 145,64.5C 144.626,65.4162 144.126,66.2496 143.5,67C 136.5,67.6667 129.5,67.6667 122.5,67C 121.692,66.6924 121.025,66.1924 120.5,65.5C 118.916,58.0148 119.25,50.6814 121.5,43.5 Z"/></g>
<g><path style="opacity:1" fill="#e40104" d="M 160.5,43.5 C 168.087,43.1858 175.587,43.5192 183,44.5C 184.586,51.0573 184.92,57.724 184,64.5C 183.626,65.4162 183.126,66.2496 182.5,67C 175.5,67.6667 168.5,67.6667 161.5,67C 160.667,66.1667 159.833,65.3333 159,64.5C 157.954,57.2975 158.454,50.2975 160.5,43.5 Z"/></g>
<g><path style="opacity:1" fill="#f9f8fa" d="M 6.5,83.5 C 12.5092,83.3338 18.5092,83.5005 24.5,84C 25.9308,84.4652 27.0975,85.2986 28,86.5C 28.6667,92.8333 28.6667,99.1667 28,105.5C 27.1667,106.333 26.3333,107.167 25.5,108C 18.8333,108.667 12.1667,108.667 5.5,108C 4.66667,107.167 3.83333,106.333 3,105.5C 2.33333,99.1667 2.33333,92.8333 3,86.5C 4.14508,85.3636 5.31174,84.3636 6.5,83.5 Z"/></g>
<g><path style="opacity:1" fill="#f9f8fa" d="M 45.5,83.5 C 51.5092,83.3338 57.5092,83.5005 63.5,84C 64.9308,84.4652 66.0975,85.2986 67,86.5C 67.6667,92.8333 67.6667,99.1667 67,105.5C 66.1667,106.333 65.3333,107.167 64.5,108C 57.8333,108.667 51.1667,108.667 44.5,108C 43.6667,107.167 42.8333,106.333 42,105.5C 41.3333,99.1667 41.3333,92.8333 42,86.5C 43.1451,85.3636 44.3117,84.3636 45.5,83.5 Z"/></g>
<g><path style="opacity:1" fill="#f9f8fa" d="M 84.5,83.5 C 90.5092,83.3338 96.5092,83.5005 102.5,84C 103.931,84.4652 105.097,85.2986 106,86.5C 106.667,92.8333 106.667,99.1667 106,105.5C 105.692,106.308 105.192,106.975 104.5,107.5C 97.5505,108.63 90.5505,108.797 83.5,108C 82.6667,107.167 81.8333,106.333 81,105.5C 80.3333,99.1667 80.3333,92.8333 81,86.5C 82.1451,85.3636 83.3117,84.3636 84.5,83.5 Z"/></g>
<g><path style="opacity:1" fill="#e30205" d="M 123.5,83.5 C 129.509,83.3338 135.509,83.5005 141.5,84C 142.931,84.4652 144.097,85.2986 145,86.5C 145.667,92.8333 145.667,99.1667 145,105.5C 144.692,106.308 144.192,106.975 143.5,107.5C 136.55,108.63 129.55,108.797 122.5,108C 121.667,107.167 120.833,106.333 120,105.5C 119.333,99.1667 119.333,92.8333 120,86.5C 121.145,85.3636 122.312,84.3636 123.5,83.5 Z"/></g>
<g><path style="opacity:1" fill="#f9f8fa" d="M 162.5,83.5 C 168.509,83.3338 174.509,83.5005 180.5,84C 181.931,84.4652 183.097,85.2986 184,86.5C 184.667,92.8333 184.667,99.1667 184,105.5C 183.692,106.308 183.192,106.975 182.5,107.5C 175.55,108.63 168.55,108.797 161.5,108C 160.667,107.167 159.833,106.333 159,105.5C 158.333,99.1667 158.333,92.8333 159,86.5C 160.145,85.3636 161.312,84.3636 162.5,83.5 Z"/></g>
<g><path style="opacity:1" fill="#e30104" d="M 5.5,124.5 C 12.175,124.334 18.8417,124.5 25.5,125C 26.3333,125.833 27.1667,126.667 28,127.5C 28.6667,133.5 28.6667,139.5 28,145.5C 27.6258,146.416 27.1258,147.25 26.5,148C 19.9427,149.586 13.276,149.92 6.5,149C 5.06919,148.535 3.90252,147.701 3,146.5C 2.33333,140.167 2.33333,133.833 3,127.5C 4.04499,126.627 4.87833,125.627 5.5,124.5 Z"/></g>
<g><path style="opacity:1" fill="#f9f8fa" d="M 44.5,124.5 C 51.175,124.334 57.8417,124.5 64.5,125C 65.3333,125.833 66.1667,126.667 67,127.5C 67.6667,133.5 67.6667,139.5 67,145.5C 66.5348,146.931 65.7014,148.097 64.5,149C 58.1667,149.667 51.8333,149.667 45.5,149C 44.0692,148.535 42.9025,147.701 42,146.5C 41.3333,140.167 41.3333,133.833 42,127.5C 43.045,126.627 43.8783,125.627 44.5,124.5 Z"/></g>
<g><path style="opacity:1" fill="#e30105" d="M 83.5,124.5 C 90.175,124.334 96.8417,124.5 103.5,125C 104.333,125.833 105.167,126.667 106,127.5C 106.667,133.5 106.667,139.5 106,145.5C 105.535,146.931 104.701,148.097 103.5,149C 97.1667,149.667 90.8333,149.667 84.5,149C 83.0692,148.535 81.9025,147.701 81,146.5C 80.3333,140.167 80.3333,133.833 81,127.5C 82.045,126.627 82.8783,125.627 83.5,124.5 Z"/></g>
<g><path style="opacity:1" fill="#f9f8fa" d="M 122.5,124.5 C 129.175,124.334 135.842,124.5 142.5,125C 143.333,125.833 144.167,126.667 145,127.5C 145.667,133.833 145.667,140.167 145,146.5C 144.167,147.333 143.333,148.167 142.5,149C 136.167,149.667 129.833,149.667 123.5,149C 122.069,148.535 120.903,147.701 120,146.5C 119.333,140.167 119.333,133.833 120,127.5C 121.045,126.627 121.878,125.627 122.5,124.5 Z"/></g>
<g><path style="opacity:1" fill="#f9f8fa" d="M 161.5,124.5 C 168.175,124.334 174.842,124.5 181.5,125C 182.333,125.833 183.167,126.667 184,127.5C 184.667,133.833 184.667,140.167 184,146.5C 183.167,147.333 182.333,148.167 181.5,149C 175.167,149.667 168.833,149.667 162.5,149C 161.069,148.535 159.903,147.701 159,146.5C 158.333,140.167 158.333,133.833 159,127.5C 160.045,126.627 160.878,125.627 161.5,124.5 Z"/></g>
<g><path style="opacity:1" fill="#f8f6f9" d="M 5.5,165.5 C 12.7546,165.187 19.9213,165.52 27,166.5C 28.5863,173.057 28.9196,179.724 28,186.5C 27.5348,187.931 26.7014,189.097 25.5,190C 19.1667,190.667 12.8333,190.667 6.5,190C 5.58377,189.626 4.75044,189.126 4,188.5C 2.41372,181.943 2.08039,175.276 3,168.5C 3.69794,167.309 4.53128,166.309 5.5,165.5 Z"/></g>
<g><path style="opacity:1" fill="#e20206" d="M 44.5,165.5 C 51.7546,165.187 58.9213,165.52 66,166.5C 67.5863,173.057 67.9196,179.724 67,186.5C 66.6258,187.416 66.1258,188.25 65.5,189C 58.9427,190.586 52.276,190.92 45.5,190C 44.5838,189.626 43.7504,189.126 43,188.5C 41.4137,181.943 41.0804,175.276 42,168.5C 42.6979,167.309 43.5313,166.309 44.5,165.5 Z"/></g>
<g><path style="opacity:1" fill="#f8f6f9" d="M 83.5,165.5 C 90.7546,165.187 97.9213,165.52 105,166.5C 106.586,173.057 106.92,179.724 106,186.5C 105.535,187.931 104.701,189.097 103.5,190C 97.1667,190.667 90.8333,190.667 84.5,190C 83.5838,189.626 82.7504,189.126 82,188.5C 80.4137,181.943 80.0804,175.276 81,168.5C 81.6979,167.309 82.5313,166.309 83.5,165.5 Z"/></g>
<g><path style="opacity:1" fill="#f8f7f9" d="M 122.5,165.5 C 129.755,165.187 136.921,165.52 144,166.5C 145.586,173.057 145.92,179.724 145,186.5C 144.535,187.931 143.701,189.097 142.5,190C 136.167,190.667 129.833,190.667 123.5,190C 122.584,189.626 121.75,189.126 121,188.5C 119.414,181.943 119.08,175.276 120,168.5C 121.045,167.627 121.878,166.627 122.5,165.5 Z"/></g>
<g><path style="opacity:1" fill="#f8f7f9" d="M 161.5,165.5 C 168.755,165.187 175.921,165.52 183,166.5C 184.586,173.057 184.92,179.724 184,186.5C 183.535,187.931 182.701,189.097 181.5,190C 175.167,190.667 168.833,190.667 162.5,190C 161.584,189.626 160.75,189.126 160,188.5C 158.414,181.943 158.08,175.276 159,168.5C 160.045,167.627 160.878,166.627 161.5,165.5 Z"/></g>
</svg>
