<?xml version="1.0" encoding="UTF-8"?>
<svg id="Layer_1" xmlns="http://www.w3.org/2000/svg" viewBox="0 0 330.64 370.85">
  <defs>
    <style>
      .cls-1 {
        fill: #fbad18;
      }

      .cls-2 {
        fill: #fff;
      }
    </style>
  </defs>
  <rect class="cls-2" x="0" y="0" width="204.23" height="108.87" rx="17.78" ry="17.78"/>
  <path class="cls-2" d="M74.19,312.12c-.51,6.63-.39,13.02.38,19.16.76,6.14,2.2,11.79,4.27,16.96,2.06,5.18,4.76,9.51,8.08,12.99,1.87,2.2,4.19,4.11,6.97,5.7.04.02.08.05.12.07H18.1c-9.82,0-17.77-7.95-17.77-17.77v-73.31c0-9.82,7.95-17.79,17.77-17.79h78.29c-.32.33-.63.66-.93,1-3.88,4.29-7.2,9.07-9.99,14.32-3.19,6.05-5.75,12.34-7.64,18.87-1.89,6.56-3.11,13.17-3.64,19.8Z"/>
  <path class="cls-1" d="M204.57,275.91v68.79c-2.75-1.42-5.06-3.19-6.93-5.27-3.15-3.6-5.84-7.87-8.07-12.77-2.2-4.92-3.86-10.23-4.94-15.94-1.08-5.69-1.55-11.63-1.44-17.83.12-6.18.88-12.34,2.32-18.48,1.26-5.39,3.03-10.66,5.33-15.82,7.85,1.85,13.71,8.89,13.71,17.31Z"/>
  <rect class="cls-2" x=".33" y="129.06" width="91.19" height="108.87" rx="14.89" ry="14.89"/>
  <rect class="cls-2" x="113.12" y="129.06" width="91.19" height="108.87" rx="14.89" ry="14.89"/>
  <g>
    <path class="cls-2" d="M178.67,317.8c-.39-1.59-1.59-3.25-3.66-4.94-1.08-.89-2.26-1.85-3.52-2.89-1.26-1.02-2.6-2.01-3.97-2.93-2.1-1.42-4.21-2.14-6.32-2.22-2.13-.08-4.76.45-7.93,1.57-2.7,1.02-5.92,2.13-9.68,3.33-3.76,1.2-7.34,2.52-10.72,3.95-1.87.67-3.54,1.26-5.04,1.81-1.49.53-2.72,1.12-3.7,1.73-.96.63-1.59,1.3-1.89,2.07-.3.75-.14,1.67.49,2.73,2.87,4.7,6.08,7.77,9.64,9.27,3.56,1.48,8.18,1.5,13.89.04-.93,3.25-1.99,6.32-3.19,9.21-1.2,2.87-2.54,5.41-3.99,7.56-1.46,2.16-3.03,3.82-4.74,5.02-1.69,1.18-3.46,1.69-5.31,1.51-2.14-.2-4.07-1.53-5.78-4.01s-3.05-5.59-4.03-9.37c-.98-3.78-1.59-7.99-1.79-12.63-.22-4.62.06-9.25.81-13.85.71-5.71,1.87-11.29,3.42-16.74,1.57-5.47,3.35-10.35,5.31-14.66,1.95-4.29,4.05-7.71,6.28-10.25,2.22-2.54,4.35-3.76,6.38-3.62,1,.08,1.81.65,2.38,1.73.57,1.08,1.24,2.44,1.97,4.03.27.89.55,1.75.85,2.62.28.87.51,1.79.71,2.75.12,1,.27,1.93.49,2.75.24.83.53,1.67.91,2.52,1.42,4.43,3.97,7.71,7.65,9.82,3.7,2.11,8.99,2.89,15.9,2.4,2.42-.31,4.03-.87,4.84-1.63.79-.77,1.34-2.11,1.63-4.01.1-1.5.08-3.36-.02-5.55-.1-2.2-.28-4.49-.51-6.85-.24-2.36-.57-4.7-1-7.02-.43-2.3-.89-4.39-1.38-6.24-1.16-3.29-2.66-6.18-4.47-8.68-.08-.12-.18-.24-.26-.35-1.93-2.56-4.78-4.7-8.54-6.41-1.99-.98-4.19-1.81-6.57-2.46-2.4-.67-4.9-1.16-7.52-1.5-2.64-.35-5.29-.55-8.03-.65-2.72-.08-5.35,0-7.89.26-1.79.1-3.68.35-5.71.77-2.01.41-4.01.96-6.02,1.65-2.01.71-3.95,1.61-5.82,2.73-1.87,1.14-3.54,2.5-5,4.09-.59.61-1.18,1.24-1.75,1.87-3.88,4.29-7.2,9.07-10,14.32-3.19,6.04-5.75,12.34-7.63,18.87-1.89,6.55-3.11,13.16-3.64,19.79-.51,6.63-.39,13.03.37,19.16s2.2,11.79,4.27,16.96c2.07,5.17,4.76,9.5,8.09,12.99,1.87,2.2,4.19,4.11,6.97,5.71.65.37,1.32.73,1.97,1.06,2.11,1.08,4.23,1.89,6.34,2.44,7.59,1.38,15.17,1.75,22.75,1.12,4.33-.35,8.36-1.2,12.08-2.58.81-.3,1.59-.63,2.38-.98,2.79-1.26,5.41-2.85,7.81-4.8,4.78-4.05,8.89-9.27,12.38-15.62,3.48-6.37,6.18-13.93,8.07-22.67.39-2.48.39-4.53.02-6.1Z"/>
    <path class="cls-2" d="M276.86,270.44c-1-7.71-2.7-14.7-5.1-20.97-1.57-3.74-3.52-6.98-5.84-9.7-2.3-2.72-5.57-5.06-9.8-7.06-3.76-1.71-8.28-2.91-13.56-3.58-5.29-.65-10.76-.83-16.39-.49-4.37.26-8.74,1.5-13.12,3.7-4.41,2.2-8.03,4.86-10.88,7.95-4.17,5.02-7.63,10.45-10.37,16.25-.33.69-.65,1.38-.94,2.07-2.3,5.16-4.07,10.43-5.33,15.82-1.44,6.14-2.2,12.3-2.32,18.48-.12,6.2.35,12.14,1.44,17.83,1.08,5.71,2.73,11.02,4.94,15.94,2.22,4.9,4.92,9.17,8.07,12.77,1.87,2.09,4.17,3.86,6.93,5.27.12.06.24.12.35.18,2.89,1.44,5.76,2.5,8.62,3.21,3.48.85,7.2,1.26,11.21,1.22,3.97-.04,7.83-.26,11.57-.67,5.57-.59,10.37-1.79,14.4-3.6,4.03-1.81,7.67-4.49,10.94-8.03,4.7-5.8,8.32-12.42,10.82-19.89,2.5-7.46,4.11-15.17,4.8-23.16.71-7.97.55-15.8-.43-23.51ZM246.42,295.29c-.37,5.35-1.12,10.39-2.18,15.11-1.08,4.7-2.42,8.76-4.01,12.14-1.61,3.4-3.36,6.02-5.27,7.91-1.91,1.87-3.94,2.72-6.08,2.5-2.34-.16-4.37-1.5-6.08-4.01-1.73-2.52-3.09-5.69-4.07-9.5-1-3.82-1.67-8.03-2.03-12.63-.35-4.6-.3-9.13.2-13.6.45-4.55,1.3-9.33,2.5-14.34,1.22-5.02,2.68-9.64,4.41-13.89,1.71-4.25,3.6-7.71,5.65-10.41s4.13-3.94,6.28-3.74c2.03.14,3.82,1.69,5.39,4.64,1.57,2.97,2.81,6.67,3.72,11.12.91,4.35,1.49,9.11,1.77,14.28s.22,9.98-.18,14.42Z"/>
    <path class="cls-2" d="M292.27,320.59c.57-1.83,1.61-3.48,3.1-4.95,1.5-1.47,3.44-2.61,5.82-3.43,2.38-.82,5.19-1.15,8.43-.98,2.72.08,5.02.56,6.9,1.42,1.88.86,3.35,1.92,4.41,3.18,1.06,1.26,1.76,2.6,2.11,4.01.34,1.41.43,2.69.27,3.83-.12.86-.48,1.93-1.06,3.21-.59,1.28-1.38,2.51-2.39,3.69-1.01,1.18-2.28,2.28-3.82,3.29-1.54,1.01-3.37,1.74-5.48,2.18-4.49,1.02-8.56.71-12.2-.95-3.64-1.65-5.81-4.63-6.5-8.93-.29-1.88-.15-3.74.42-5.57ZM329.6,212.42c.96,1.52,1.26,3.56.9,6.14-1.12,7.18-2.19,14.44-3.22,21.78-1.03,7.35-1.98,14.58-2.86,21.71-.88,7.13-1.61,13.97-2.2,20.53-.59,6.56-1.06,12.65-1.39,18.28-.09,1.96-.6,3.27-1.51,3.93-.92.65-2.53.94-4.85.86-2.78.11-5.37.07-7.76-.13-2.39-.2-4.75-.57-7.06-1.11-2.43-.61-4.13-1.48-5.12-2.62-.99-1.14-1.51-3.04-1.56-5.72-.3-5.31-.48-11.59-.53-18.85-.05-7.26.02-14.75.22-22.48.2-7.73.47-15.38.8-22.95.33-7.57.72-14.37,1.18-20.39.2-2.91.97-4.83,2.33-5.76,1.36-.93,3.67-1.22,6.95-.88,3.03.12,6.38.49,10.06,1.11,3.68.63,6.93,1.48,9.76,2.56,2.94,1.15,4.89,2.48,5.86,4Z"/>
  </g>
</svg>